{
.appVersion = "919";
classes = (
{
code = "zero one two three four five six seven eight nine parenleft parenright";
name = standard;
},
{
code = "zerosuperior onesuperior twosuperior threesuperior foursuperior fivesuperior sixsuperior sevensuperior eightsuperior ninesuperior parenleftsuperior parenrightsuperior";
name = sups;
},
{
code = "zeroinferior oneinferior twoinferior threeinferior fourinferior fiveinferior sixinferior seveninferior eightinferior nineinferior parenleftinferior parenrightinferior";
name = subs;
},
{
code = "zero.numerator one.numerator two.numerator three.numerator four.numerator five.numerator six.numerator seven.numerator eight.numerator nine.numerator parenleft.numerator parenright.numerator";
name = numerator;
},
{
code = "zero.denominator one.denominator two.denominator three.denominator four.denominator five.denominator six.denominator seven.denominator eight.denominator nine.denominator parenleft.denominator parenright.denominator";
name = denominator;
},
{
code = "zero.otlf one.otlf two.otlf three.otlf four.otlf five.otlf six.otlf seven.otlf eight.otlf nine.otlf parenleft.otlf parenright.otlf";
name = tnum1;
}
);
copyright = "Copyright (c) 2015 by Hubert & Fischer. All rights reserved. Copyright (c) 2016 by Meir Sadan. Copyright (c) 2016 Cyreal.";
customParameters = (
{
name = macintoshFONDFamilyID;
value = 128;
},
{
name = openTypeHeadFlags;
value = (
);
},
{
name = openTypeNameDescription;
value = "";
},
{
name = openTypeNameLicense;
value = "This Font Software is licensed under the SIL Open Font License, Version 1.1. This license is available with a FAQ at: http://scripts.sil.org/OFL";
},
{
name = openTypeNameLicenseURL;
value = "http://scripts.sil.org/OFL";
},
{
name = openTypeNameSampleText;
value = "";
},
{
name = openTypeNameUniqueID;
value = "Hubert&Fischer: Rubik Light: 2015";
},
{
name = openTypeNameVersion;
value = "Version 1.002";
},
{
name = openTypeOS2CodePageRanges;
value = (
0,
1,
2,
4,
5,
7
);
},
{

glyphs = (
{
glyphname = A;
lastChange = "2016-08-29 13:57:42 +0000";
layers = (
{
guideLines = (
{
position = "{-150, 680}";
},
{
angle = 90;
position = "{-115, 0}";
},
{
angle = 90;
position = "{487, 0}";
},
{
angle = 90;
position = "{186, 0}";
}
);
hints = (
{
horizontal = 1;
place = "{-135, 0}";
type = Tag;
name = hr00;
}
);
layerId = "581BC726-83A6-4935-8633-5A6508251040";
paths = (
{
closed = 1;
nodes = (
"15 0 LINE SMOOTH",
"28 0 OFFCURVE",
"37 10 OFFCURVE",
"40 15 CURVE SMOOTH",
"136 175 LINE",
"490 175 LINE",
"518 15 LINE SMOOTH",
"519 10 OFFCURVE",
"524 0 OFFCURVE",
"537 0 CURVE SMOOTH",
"557 0 LINE SMOOTH",
"568 0 OFFCURVE",
"579 9 OFFCURVE",
"581 20 CURVE SMOOTH",
"582 22 OFFCURVE",
"582 28 OFFCURVE",
"582 31 CURVE SMOOTH",
"467 680 LINE SMOOTH",
"465 693 OFFCURVE",
"458 700 OFFCURVE",
"442 700 CURVE SMOOTH",
"408 700 LINE SMOOTH",
"392 700 OFFCURVE",
"383 693 OFFCURVE",
"375 680 CURVE SMOOTH",
"-16 31 LINE SMOOTH",
"-18 28 OFFCURVE",
"-20 22 OFFCURVE",
"-21 20 CURVE SMOOTH",
"-23 9 OFFCURVE",
"-16 0 OFFCURVE",
"-5 0 CURVE SMOOTH"
);
},
{
closed = 1;
nodes = (
"410 629 LINE",
"479 235 LINE",
"173 235 LINE"
);
}
);
width = 650;
},
{
layerId = "EC64484B-0978-4CB1-9EE9-C40A2D8C4059";
paths = (
{
closed = 1;
nodes = (
"158 0 LINE SMOOTH",
"184 0 OFFCURVE",
"196 14 OFFCURVE",
"203 25 CURVE SMOOTH",
"241 91 LINE",
"456 91 LINE",
"466 25 LINE SMOOTH",
"467 14 OFFCURVE",
"473 0 OFFCURVE",
"499 0 CURVE SMOOTH",
"684 0 LINE SMOOTH",
"696 0 OFFCURVE",
"708 10 OFFCURVE",
"711 22 CURVE SMOOTH",
"711 24 OFFCURVE",
"712 26 OFFCURVE",
"711 29 CURVE SMOOTH",
"624 667 LINE",
"623 682 OFFCURVE",
"613 700 OFFCURVE",
"586 700 CURVE SMOOTH",
"369 700 LINE SMOOTH",
"342 700 OFFCURVE",
"324 682 OFFCURVE",
"317 667 CURVE",
"-42 29 LINE SMOOTH",
"-43 26 OFFCURVE",
"-44 24 OFFCURVE",
"-44 22 CURVE SMOOTH",
"-47 10 OFFCURVE",
"-39 0 OFFCURVE",
"-27 0 CURVE SMOOTH"
);
},
{
closed = 1;
nodes = (
"429 472 LINE",
"446 286 LINE",
"333 286 LINE"
);
}
);
width = 755;
}
);
leftKerningGroup = A;
rightKerningGroup = A;
unicode = 0041;
userData = {
com.typemytype.robofont.guides = (
{
angle = 0;
isGlobal = 0;
magnetic = 5;
x = 0;
y = 680;
},
{
angle = 90;
isGlobal = 0;
magnetic = 5;
x = 35;
y = 0;
},
{
angle = 90;
isGlobal = 0;
magnetic = 5;
x = 637;
y = 0;
},
{
angle = 90;
isGlobal = 0;
magnetic = 5;
x = 336;
y = 0;
}
);
};
},
{
glyphname = Aogonek;
lastChange = "2016-01-20 15:26:13 +0000";
layers = (
{
hints = (
{
horizontal = 1;
place = "{-370, 0}";
type = Tag;
name = hr00;
}
);
layerId = "581BC726-83A6-4935-8633-5A6508251040";
paths = (
{
closed = 1;
nodes = (
"496 -220 LINE SMOOTH",
"509 -220 OFFCURVE",
"520 -211 OFFCURVE",
"523 -198 CURVE SMOOTH",
"526 -185 LINE SMOOTH",
"529 -172 OFFCURVE",
"522 -163 OFFCURVE",
"509 -163 CURVE SMOOTH",
"494 -163 LINE SMOOTH",
"450 -163 OFFCURVE",
"424 -133 OFFCURVE",
"435 -82 CURVE SMOOTH",
"446 -31 OFFCURVE",
"484 0 OFFCURVE",
"528 0 CURVE SMOOTH",
"557 0 LINE SMOOTH",
"568 0 OFFCURVE",
"579 9 OFFCURVE",
"581 20 CURVE SMOOTH",
"582 22 OFFCURVE",
"582 28 OFFCURVE",
"582 31 CURVE SMOOTH",
"467 680 LINE SMOOTH",
"465 693 OFFCURVE",
"458 700 OFFCURVE",
"442 700 CURVE SMOOTH",
"408 700 LINE SMOOTH",
"392 700 OFFCURVE",
"383 693 OFFCURVE",
"375 680 CURVE SMOOTH",
"-16 31 LINE SMOOTH",
"-18 28 OFFCURVE",
"-20 22 OFFCURVE",
"-21 20 CURVE SMOOTH",
"-23 9 OFFCURVE",
"-16 0 OFFCURVE",
"-5 0 CURVE SMOOTH",
"15 0 LINE SMOOTH",
"28 0 OFFCURVE",
"37 10 OFFCURVE",
"40 15 CURVE SMOOTH",
"136 175 LINE",
"490 175 LINE",
"510 63 LINE",
"510 60 OFFCURVE",
"511 58 OFFCURVE",
"511 55 CURVE",
"443 45 OFFCURVE",
"391 -6 OFFCURVE",
"375 -82 CURVE SMOOTH",
"357 -167 OFFCURVE",
"396 -220 OFFCURVE",
"477 -220 CURVE SMOOTH"
);
},
{
closed = 1;
nodes = (
"410 629 LINE",
"479 235 LINE",
"173 235 LINE"
);
}
);
width = 650;
},
{
guideLines = (
{
position = "{350, -220}";
}
);
hints = (
{
horizontal = 1;
place = "{-2147483648, 0}";
type = Tag;
name = hr01;
}
);
layerId = "EC64484B-0978-4CB1-9EE9-C40A2D8C4059";
paths = (
{
closed = 1;
nodes = (
"622 -220 LINE SMOOTH",
"637 -220 OFFCURVE",
"652 -208 OFFCURVE",
"655 -193 CURVE SMOOTH",
"670 -125 LINE SMOOTH",
"673 -110 OFFCURVE",
"663 -98 OFFCURVE",
"648 -98 CURVE SMOOTH",
"638 -98 LINE SMOOTH",
"599 -98 OFFCURVE",
"594 -70 OFFCURVE",
"599 -49 CURVE SMOOTH",
"603 -29 OFFCURVE",
"619 -2 OFFCURVE",
"653 0 CURVE",
"684 0 LINE SMOOTH",
"696 0 OFFCURVE",
"708 10 OFFCURVE",
"711 22 CURVE SMOOTH",
"711 24 OFFCURVE",
"712 26 OFFCURVE",
"711 29 CURVE SMOOTH",
"624 667 LINE",
"623 682 OFFCURVE",
"613 700 OFFCURVE",
"586 700 CURVE SMOOTH",
"369 700 LINE SMOOTH",
"342 700 OFFCURVE",
"324 682 OFFCURVE",
"317 667 CURVE",
"-42 29 LINE SMOOTH",
"-43 26 OFFCURVE",
"-44 24 OFFCURVE",
"-44 22 CURVE SMOOTH",
"-47 10 OFFCURVE",
"-39 0 OFFCURVE",
"-27 0 CURVE SMOOTH",
"158 0 LINE SMOOTH",
"184 0 OFFCURVE",
"196 14 OFFCURVE",
"203 25 CURVE SMOOTH",
"241 91 LINE",
"456 91 LINE",
"466 25 LINE SMOOTH",
"466 15 OFFCURVE",
"471 3 OFFCURVE",
"488 0 CURVE",
"482 -15 OFFCURVE",
"477 -31 OFFCURVE",
"473 -49 CURVE SMOOTH",
"453 -144 OFFCURVE",
"487 -220 OFFCURVE",
"608 -220 CURVE SMOOTH"
);
},
{
closed = 1;
nodes = (
"429 472 LINE",
"446 286 LINE",
"333 286 LINE"
);
}
);
width = 755;
}
);
leftKerningGroup = A;
rightKerningGroup = A;
unicode = 0104;
},
{
glyphname = AE;
lastChange = "2016-01-20 15:26:12 +0000";
layers = (
{
guideLines = (
{
position = "{-150, 505}";
},
{
angle = 90;
position = "{281, 0}";
}
);
hints = (
{
horizontal = 1;
place = "{-130, 0}";
type = Tag;
name = hr00;
}
);
layerId = "581BC726-83A6-4935-8633-5A6508251040";
paths = (
{
closed = 1;
nodes = (
"-1 0 LINE SMOOTH",
"8 0 OFFCURVE",
"17 6 OFFCURVE",
"24 15 CURVE",
"24 15 OFFCURVE",
"26 17 OFFCURVE",
"148 175 CURVE",
"410 175 LINE",
"378 22 LINE SMOOTH",
"375 9 OFFCURVE",
"382 0 OFFCURVE",
"395 0 CURVE SMOOTH",
"793 0 LINE SMOOTH",
"807 0 OFFCURVE",
"818 9 OFFCURVE",
"821 22 CURVE SMOOTH",
"824 37 LINE SMOOTH",
"827 51 OFFCURVE",
"820 60 OFFCURVE",
"806 60 CURVE SMOOTH",
"449 60 LINE",
"505 325 LINE",
"832 325 LINE SMOOTH",
"846 325 OFFCURVE",
"857 334 OFFCURVE",
"860 347 CURVE SMOOTH",
"863 362 LINE SMOOTH",
"866 376 OFFCURVE",
"859 385 OFFCURVE",
"845 385 CURVE SMOOTH",
"518 385 LINE",
"572 640 LINE",
"921 640 LINE SMOOTH",
"935 640 OFFCURVE",
"946 649 OFFCURVE",
"949 662 CURVE SMOOTH",
"952 677 LINE SMOOTH",
"955 691 OFFCURVE",
"948 700 OFFCURVE",
"934 700 CURVE SMOOTH",
"501 700 LINE SMOOTH",
"492 700 OFFCURVE",
"482 696 OFFCURVE",
"471 681 CURVE SMOOTH",
"-21 49 OFFCURVE",
"-33 34 OFFCURVE",
"-33 34 CURVE",
"-35 30 OFFCURVE",
"-38 25 OFFCURVE",
"-40 20 CURVE SMOOTH",
"-42 9 OFFCURVE",
"-35 0 OFFCURVE",
"-24 0 CURVE SMOOTH"
);
},
{
closed = 1;
nodes = (
"507 633 LINE",
"508 633 LINE",
"423 235 LINE",
"195 235 LINE"
);
}
);
width = 920;
},
{
guideLines = (
{
position = "{350, 505}";
}
);
hints = (
{
horizontal = 1;
place = "{-2147483648, 0}";
type = Tag;
name = hr01;
},
{
horizontal = 1;
place = "{-2147483648, 0}";
type = Tag;
name = hr02;
},
{
horizontal = 1;
place = "{-2147483648, 0}";
type = Tag;
name = hr03;
}
);
layerId = "EC64484B-0978-4CB1-9EE9-C40A2D8C4059";
paths = (
{
closed = 1;
nodes = (
"162 0 LINE SMOOTH",
"188 0 OFFCURVE",
"200 14 OFFCURVE",
"207 25 CURVE SMOOTH",
"219 47 OFFCURVE",
"232 69 OFFCURVE",
"245 91 CURVE",
"394 91 LINE",
"380 27 LINE SMOOTH",
"377 12 OFFCURVE",
"386 0 OFFCURVE",
"401 0 CURVE SMOOTH",
"892 0 LINE SMOOTH",
"907 0 OFFCURVE",
"922 12 OFFCURVE",
"925 27 CURVE SMOOTH",
"955 168 LINE SMOOTH",
"958 183 OFFCURVE",
"949 195 OFFCURVE",
"934 195 CURVE SMOOTH",
"656 195 LINE",
"669 258 LINE",
"917 258 LINE SMOOTH",
"932 258 OFFCURVE",
"947 270 OFFCURVE",
"950 285 CURVE SMOOTH",
"977 415 LINE SMOOTH",
"981 430 OFFCURVE",
"971 442 OFFCURVE",
"956 442 CURVE SMOOTH",
"708 442 LINE",
"722 505 LINE",
"992 505 LINE SMOOTH",
"1007 505 OFFCURVE",
"1021 517 OFFCURVE",
"1024 532 CURVE SMOOTH",
"1054 673 LINE SMOOTH",
"1057 688 OFFCURVE",
"1048 700 OFFCURVE",
"1033 700 CURVE SMOOTH",
"373 700 LINE SMOOTH",
"346 700 OFFCURVE",
"328 682 OFFCURVE",
"321 667 CURVE",
"202 454 OFFCURVE",
"82 242 OFFCURVE",
"-38 29 CURVE SMOOTH",
"-39 26 OFFCURVE",
"-40 24 OFFCURVE",
"-40 22 CURVE SMOOTH",
"-43 10 OFFCURVE",
"-35 0 OFFCURVE",
"-23 0 CURVE SMOOTH"
);
},
{
closed = 1;
nodes = (
"450 505 LINE",
"482 505 LINE",
"435 286 LINE",
"337 286 LINE"
);
}
);
width = 1005;
}
);
leftKerningGroup = AE;
rightKerningGroup = E;
unicode = 00C6;
userData = {
com.typemytype.robofont.guides = (
{
angle = 0;
isGlobal = 0;
magnetic = 5;
x = 0;
y = 505;
},
{
angle = 90;
isGlobal = 0;
magnetic = 5;
x = 431;
y = 0;
}
);
};
},
{
glyphname = B;
lastChange = "2016-01-20 15:26:13 +0000";
layers = (
{
guideLines = (
{
position = "{-150, 271}";
},
{
position = "{-150, 437}";
},
{
position = "{-150, 521}";
},
{
position = "{-150, 198}";
},
{
position = "{-150, 9}";
},
{
angle = 90;
position = "{205, 0}";
},
{
angle = 90;
position = "{433, 0}";
},
{
angle = 90;
position = "{-56, 0}";
}
);
hints = (
{
horizontal = 1;
place = "{371, 0}";
type = Tag;
name = hr01;
},
{
horizontal = 1;
place = "{48, 0}";
type = Tag;
name = hr02;
}
);
layerId = "581BC726-83A6-4935-8633-5A6508251040";
paths = (
{
closed = 1;
nodes = (
"335 0 LINE",
"471 0 OFFCURVE",
"564 97 OFFCURVE",
"585 198 CURVE SMOOTH",
"603 282 OFFCURVE",
"567 342 OFFCURVE",
"520 369 CURVE",
"564 388 OFFCURVE",
"622 435 OFFCURVE",
"640 521 CURVE SMOOTH",
"660 616 OFFCURVE",
"617 700 OFFCURVE",
"477 700 CURVE SMOOTH",
"216 700 LINE SMOOTH",
"203 700 OFFCURVE",
"192 691 OFFCURVE",
"189 677 CURVE SMOOTH",
"50 22 LINE SMOOTH",
"47 9 OFFCURVE",
"54 0 OFFCURVE",
"67 0 CURVE SMOOTH"
);
},
{
closed = 1;
nodes = (
"180 336 LINE",
"397 336 LINE",
"496 336 OFFCURVE",
"540 279 OFFCURVE",
"522 198 CURVE SMOOTH",
"505 118 OFFCURVE",
"437 60 OFFCURVE",
"338 60 CURVE SMOOTH",
"121 60 LINE"
);
},
{
closed = 1;
nodes = (
"244 640 LINE",
"451 640 LINE",
"550 640 OFFCURVE",
"594 600 OFFCURVE",
"577 521 CURVE SMOOTH",
"560 442 OFFCURVE",
"498 396 OFFCURVE",
"399 396 CURVE SMOOTH",
"192 396 LINE"
);
}
);
width = 653;
},
{
guideLines = (
{
position = "{350, 221}";
},
{
position = "{350, 482}";
},
{
angle = 90;
position = "{749, 0}";
},
{
angle = 90;
position = "{1066, 0}";
}
);
hints = (
{
horizontal = 1;
place = "{-2147483648, 0}";
type = Tag;
name = hr00;
}
);
layerId = "EC64484B-0978-4CB1-9EE9-C40A2D8C4059";
paths = (
{
closed = 1;
nodes = (
"375 0 LINE SMOOTH",
"556 0 OFFCURVE",
"672 70 OFFCURVE",
"704 220 CURVE SMOOTH",
"718 286 OFFCURVE",
"686 344 OFFCURVE",
"640 365 CURVE",
"675 381 OFFCURVE",
"733 426 OFFCURVE",
"746 490 CURVE SMOOTH",
"776 630 OFFCURVE",
"705 700 OFFCURVE",
"514 700 CURVE SMOOTH",
"182 700 LINE SMOOTH",
"167 700 OFFCURVE",
"152 688 OFFCURVE",
"149 673 CURVE SMOOTH",
"12 27 LINE SMOOTH",
"9 12 OFFCURVE",
"18 0 OFFCURVE",
"33 0 CURVE SMOOTH"
);
},
{
closed = 1;
nodes = (
"314 270 LINE",
"407 270 LINE SMOOTH",
"437 270 OFFCURVE",
"447 245 OFFCURVE",
"442 221 CURVE SMOOTH",
"438 199 OFFCURVE",
"419 172 OFFCURVE",
"386 172 CURVE SMOOTH",
"293 172 LINE"
);
},
{
closed = 1;
nodes = (
"368 528 LINE",
"452 528 LINE SMOOTH",
"481 528 OFFCURVE",
"488 503 OFFCURVE",
"484 482 CURVE SMOOTH",
"479 461 OFFCURVE",
"462 437 OFFCURVE",
"433 437 CURVE SMOOTH",
"349 437 LINE"
);
}
);
width = 734;
}
);
leftKerningGroup = I;
unicode = 0042;
userData = {
com.typemytype.robofont.guides = (
{
angle = 0;
isGlobal = 0;
magnetic = 5;
x = 0;
y = 271;
},
{
angle = 0;
isGlobal = 0;
magnetic = 5;
x = 0;
y = 437;
},
{
angle = 0;
isGlobal = 0;
magnetic = 5;
x = 0;
y = 521;
},
{
angle = 0;
isGlobal = 0;
magnetic = 5;
x = 0;
y = 198;
},
{
angle = 0;
isGlobal = 0;
magnetic = 5;
x = 0;
y = 9;
},
{
angle = 90;
isGlobal = 0;
magnetic = 5;
x = 355;
y = 0;
},
{
angle = 90;
isGlobal = 0;
magnetic = 5;
x = 583;
y = 0;
},
{
angle = 90;
isGlobal = 0;
magnetic = 5;
x = 94;
y = 0;
}
);
};
},
{
glyphname = C;
lastChange = "2016-01-20 15:26:12 +0000";
layers = (
{
guideLines = (
{
position = "{-150, 434}";
},
{
position = "{-150, 266}";
},
{
position = "{-150, 710}";
},
{
position = "{-150, -10}";
},
{
angle = 90;
position = "{449, 0}";
},
{
angle = 90;
position = "{59, 0}";
},
{
angle = 90;
position = "{-1, 0}";
},
{
angle = 90;
position = "{182, 0}";
}
);
hints = (
{
horizontal = 1;
place = "{284, 0}";
type = Tag;
name = hr00;
}
);
layerId = "581BC726-83A6-4935-8633-5A6508251040";
paths = (
{
closed = 1;
nodes = (
"470 -10 OFFCURVE",
"568 111 OFFCURVE",
"593 206 CURVE SMOOTH",
"597 218 OFFCURVE",
"588 226 OFFCURVE",
"576 226 CURVE SMOOTH",
"556 226 LINE SMOOTH",
"545 226 OFFCURVE",
"536 221 OFFCURVE",
"530 205 CURVE SMOOTH",
"478 86 OFFCURVE",
"400 50 OFFCURVE",
"293 50 CURVE SMOOTH",
"171 50 OFFCURVE",
"110 115 OFFCURVE",
"137 266 CURVE SMOOTH",
"147 323 OFFCURVE",
"159 379 OFFCURVE",
"172 434 CURVE SMOOTH",
"210 585 OFFCURVE",
"298 650 OFFCURVE",
"420 650 CURVE SMOOTH",
"527 650 OFFCURVE",
"591 614 OFFCURVE",
"591 495 CURVE SMOOTH",
"591 479 OFFCURVE",
"598 474 OFFCURVE",
"609 474 CURVE SMOOTH",
"629 474 LINE SMOOTH",
"641 474 OFFCURVE",
"653 482 OFFCURVE",
"654 494 CURVE SMOOTH",
"669 589 OFFCURVE",
"623 710 OFFCURVE",
"433 710 CURVE SMOOTH",
"251 710 OFFCURVE",
"150 595 OFFCURVE",
"111 439 CURVE SMOOTH",
"96 382 OFFCURVE",
"82 315 OFFCURVE",
"73 261 CURVE SMOOTH",
"46 105 OFFCURVE",
"98 -10 OFFCURVE",
"280 -10 CURVE SMOOTH"
);
}
);
width = 651;
},
{
guideLines = (
{
position = "{350, 434}";
},
{
position = "{350, 266}";
},
{
position = "{350, 710}";
},
{
position = "{350, -10}";
},
{
angle = 90;
position = "{733, 0}";
}
);
hints = (
{
horizontal = 1;
place = "{-2147483648, 0}";
type = Tag;
name = hr00;
}
);
layerId = "EC64484B-0978-4CB1-9EE9-C40A2D8C4059";
paths = (
{
closed = 1;
nodes = (
"491 -10 OFFCURVE",
"671 64 OFFCURVE",
"712 246 CURVE SMOOTH",
"715 258 OFFCURVE",
"707 268 OFFCURVE",
"695 268 CURVE",
"491 268 LINE",
"469 268 OFFCURVE",
"460 262 OFFCURVE",
"448 239 CURVE SMOOTH",
"427 199 OFFCURVE",
"396 185 OFFCURVE",
"362 185 CURVE SMOOTH",
"318 185 OFFCURVE",
"294 205 OFFCURVE",
"305 266 CURVE SMOOTH",
"315 323 OFFCURVE",
"327 379 OFFCURVE",
"340 434 CURVE",
"355 495 OFFCURVE",
"388 515 OFFCURVE",
"432 515 CURVE SMOOTH",
"466 515 OFFCURVE",
"489 504 OFFCURVE",
"495 461 CURVE SMOOTH",
"499 439 OFFCURVE",
"504 432 OFFCURVE",
"526 432 CURVE",
"730 432 LINE",
"742 432 OFFCURVE",
"754 442 OFFCURVE",
"757 454 CURVE SMOOTH",
"792 636 OFFCURVE",
"644 710 OFFCURVE",
"474 710 CURVE SMOOTH",
"287 710 OFFCURVE",
"129 625 OFFCURVE",
"82 439 CURVE",
"67 382 OFFCURVE",
"53 315 OFFCURVE",
"44 261 CURVE",
"11 70 OFFCURVE",
"129 -10 OFFCURVE",
"321 -10 CURVE SMOOTH"
);
}
);
width = 733;
}
);
leftKerningGroup = O;
rightKerningGroup = C;
unicode = 0043;
userData = {
com.typemytype.robofont.guides = (
{
angle = 0;
isGlobal = 0;
magnetic = 5;
x = 0;
y = 434;
},
{
angle = 0;
isGlobal = 0;
magnetic = 5;
x = 0;
y = 266;
},
{
angle = 0;
isGlobal = 0;
magnetic = 5;
x = 0;
y = 710;
},
{
angle = 0;
isGlobal = 0;
magnetic = 5;
x = 0;
y = "-10";
},
{
angle = 90;
isGlobal = 0;
magnetic = 5;
x = 599;
y = 0;
},
{
angle = 90;
isGlobal = 0;
magnetic = 5;
x = 209;
y = 0;
},
{
angle = 90;
isGlobal = 0;
magnetic = 5;
x = 149;
y = 0;
},
{
angle = 90;
isGlobal = 0;
magnetic = 5;
x = 332;
y = 0;
}
);
};
},
{
glyphname = Ccedilla;
lastChange = "2016-01-20 15:26:13 +0000";
layers = (
{
guideLines = (
{
position = "{-150, -174}";
},
{
position = "{-150, -220}";
},
{
position = "{-150, -96}";
},
{
position = "{-150, -50}";
},
{
position = "{-150, -135}";
},
{
angle = 90;
position = "{181, 0}";
},
{
angle = 90;
position = "{192, 0}";
}
);
hints = (
{
horizontal = 1;
place = "{284, 0}";
type = Tag;
name = hr00;
}
);
layerId = "581BC726-83A6-4935-8633-5A6508251040";
paths = (
{
closed = 1;
nodes = (
"295 -221 OFFCURVE",
"335 -180 OFFCURVE",
"345 -132 CURVE SMOOTH",
"355 -84 OFFCURVE",
"331 -50 OFFCURVE",
"287 -50 CURVE SMOOTH",
"272 -50 OFFCURVE",
"256 -53 OFFCURVE",
"247 -58 CURVE",
"280 -10 LINE",
"470 -10 OFFCURVE",
"568 111 OFFCURVE",
"593 206 CURVE SMOOTH",
"597 218 OFFCURVE",
"588 226 OFFCURVE",
"576 226 CURVE",
"556 226 LINE",
"545 226 OFFCURVE",
"536 221 OFFCURVE",
"530 205 CURVE SMOOTH",
"478 86 OFFCURVE",
"400 50 OFFCURVE",
"293 50 CURVE SMOOTH",
"171 50 OFFCURVE",
"110 115 OFFCURVE",
"137 266 CURVE SMOOTH",
"147 323 OFFCURVE",
"159 379 OFFCURVE",
"172 434 CURVE SMOOTH",
"210 585 OFFCURVE",
"298 650 OFFCURVE",
"420 650 CURVE SMOOTH",
"527 650 OFFCURVE",
"591 614 OFFCURVE",
"591 495 CURVE SMOOTH",
"591 479 OFFCURVE",
"598 474 OFFCURVE",
"609 474 CURVE",
"629 474 LINE",
"641 474 OFFCURVE",
"653 482 OFFCURVE",
"654 494 CURVE SMOOTH",
"669 589 OFFCURVE",
"623 710 OFFCURVE",
"433 710 CURVE SMOOTH",
"251 710 OFFCURVE",
"150 595 OFFCURVE",
"111 439 CURVE SMOOTH",
"96 382 OFFCURVE",
"82 315 OFFCURVE",
"73 261 CURVE SMOOTH",
"48 121 OFFCURVE",
"87 15 OFFCURVE",
"227 -6 CURVE",
"197 -53 LINE",
"191 -63 OFFCURVE",
"180 -75 OFFCURVE",
"186 -83 CURVE",
"198 -100 LINE",
"210 -116 OFFCURVE",
"227 -96 OFFCURVE",
"259 -96 CURVE SMOOTH",
"282 -96 OFFCURVE",
"299 -110 OFFCURVE",
"294 -134 CURVE SMOOTH",
"288 -159 OFFCURVE",
"265 -174 OFFCURVE",
"242 -174 CURVE SMOOTH",
"198 -174 OFFCURVE",
"198 -140 OFFCURVE",
"178 -156 CURVE",
"161 -169 LINE",
"142 -184 OFFCURVE",
"176 -219 OFFCURVE",
"232 -220 CURVE SMOOTH"
);
}
);
width = 651;
},
{
guideLines = (
{
position = "{350, -220}";
},
{
angle = 90;
position = "{1069, 0}";
}
);
hints = (
{
horizontal = 1;
place = "{-2147483648, 0}";
type = Tag;
name = hr00;
}
);
layerId = "EC64484B-0978-4CB1-9EE9-C40A2D8C4059";
paths = (
{
closed = 1;
nodes = (
"330 -220 OFFCURVE",
"377 -183 OFFCURVE",
"389 -130 CURVE SMOOTH",
"400 -77 OFFCURVE",
"378 -40 OFFCURVE",
"327 -40 CURVE SMOOTH",
"323 -40 OFFCURVE",
"304 -42 OFFCURVE",
"296 -45 CURVE",
"321 -10 LINE",
"491 -10 OFFCURVE",
"671 64 OFFCURVE",
"712 246 CURVE SMOOTH",
"715 258 OFFCURVE",
"707 268 OFFCURVE",
"695 268 CURVE",
"491 268 LINE",
"469 268 OFFCURVE",
"460 262 OFFCURVE",
"448 239 CURVE SMOOTH",
"427 199 OFFCURVE",
"396 185 OFFCURVE",
"362 185 CURVE SMOOTH",
"318 185 OFFCURVE",
"294 205 OFFCURVE",
"305 266 CURVE SMOOTH",
"315 323 OFFCURVE",
"327 379 OFFCURVE",
"340 434 CURVE SMOOTH",
"355 495 OFFCURVE",
"388 515 OFFCURVE",
"432 515 CURVE SMOOTH",
"466 515 OFFCURVE",
"489 504 OFFCURVE",
"495 461 CURVE SMOOTH",
"499 439 OFFCURVE",
"504 432 OFFCURVE",
"526 432 CURVE",
"730 432 LINE",
"742 432 OFFCURVE",
"754 442 OFFCURVE",
"757 454 CURVE SMOOTH",
"792 636 OFFCURVE",
"644 710 OFFCURVE",
"474 710 CURVE SMOOTH",
"287 710 OFFCURVE",
"129 625 OFFCURVE",
"82 439 CURVE SMOOTH",
"67 382 OFFCURVE",
"53 315 OFFCURVE",
"44 261 CURVE SMOOTH",
"15 91 OFFCURVE",
"104 10 OFFCURVE",
"259 -6 CURVE",
"229 -52 LINE",
"216 -71 OFFCURVE",
"217 -76 OFFCURVE",
"224 -85 CURVE",
"241 -106 LINE",
"251 -119 OFFCURVE",
"277 -106 OFFCURVE",
"295 -106 CURVE SMOOTH",
"315 -106 OFFCURVE",
"320 -118 OFFCURVE",
"318 -130 CURVE SMOOTH",
"315 -142 OFFCURVE",
"303 -154 OFFCURVE",
"284 -154 CURVE SMOOTH",
"250 -154 OFFCURVE",
"249 -136 OFFCURVE",
"229 -151 CURVE",
"204 -169 LINE",
"177 -189 OFFCURVE",
"217 -220 OFFCURVE",
"270 -220 CURVE SMOOTH"
);
}
);
width = 733;
}
);
leftKerningGroup = O;
rightKerningGroup = C;
unicode = 00C7;
userData = {
com.typemytype.robofont.guides = (
{
angle = 0;
isGlobal = 0;
magnetic = 5;
x = 0;
y = "-174";
},
{
angle = 0;
isGlobal = 0;
magnetic = 5;
x = 0;
y = "-220";
},
{
angle = 0;
isGlobal = 0;
magnetic = 5;
x = 0;
y = "-96";
},
{
angle = 0;
isGlobal = 0;
magnetic = 5;
x = 0;
y = "-50";
},
{
angle = 0;
isGlobal = 0;
magnetic = 5;
x = 0;
y = "-135";
},
{
angle = 90;
isGlobal = 0;
magnetic = 5;
x = 331;
y = 0;
},
{
angle = 90;
isGlobal = 0;
magnetic = 5;
x = 342;
y = 0;
}
);
};
},
{
glyphname = D;
lastChange = "2016-01-20 15:26:12 +0000";
layers = (
{
guideLines = (
{
position = "{-150, 425}";
},
{
position = "{-150, 276}";
},
{
position = "{-150, 9}";
},
{
angle = 90;
position = "{170, 0}";
},
{
angle = 90;
position = "{453, 0}";
},
{
angle = 90;
position = "{-56, 0}";
}
);
hints = (
{
horizontal = 1;
place = "{450, 0}";
type = Tag;
name = hr00;
}
);
layerId = "581BC726-83A6-4935-8633-5A6508251040";
paths = (
{
closed = 1;
nodes = (
"285 0 LINE SMOOTH",
"491 0 OFFCURVE",
"573 87 OFFCURVE",
"616 271 CURVE SMOOTH",
"630 331 OFFCURVE",
"638 370 OFFCURVE",
"650 430 CURVE SMOOTH",
"684 604 OFFCURVE",
"641 700 OFFCURVE",
"429 700 CURVE",
"216 700 LINE SMOOTH",
"203 700 OFFCURVE",
"192 691 OFFCURVE",
"189 677 CURVE SMOOTH",
"50 22 LINE SMOOTH",
"47 9 OFFCURVE",
"54 0 OFFCURVE",
"67 0 CURVE SMOOTH"
);
},
{
closed = 1;
nodes = (
"244 640 LINE",
"411 640 LINE SMOOTH",
"571 640 OFFCURVE",
"614 571 OFFCURVE",
"586 425 CURVE SMOOTH",
"574 365 OFFCURVE",
"568 336 OFFCURVE",
"554 276 CURVE SMOOTH",
"518 120 OFFCURVE",
"452 60 OFFCURVE",
"293 60 CURVE SMOOTH",
"121 60 LINE"
);
}
);
width = 677;
},
{
guideLines = (
{
angle = 90;
position = "{730, 0}";
}
);
hints = (
{
horizontal = 1;
place = "{-2147483648, 0}";
type = Tag;
name = hr00;
}
);
layerId = "EC64484B-0978-4CB1-9EE9-C40A2D8C4059";
paths = (
{
closed = 1;
nodes = (
"326 0 LINE SMOOTH",
"517 0 OFFCURVE",
"666 87 OFFCURVE",
"714 276 CURVE SMOOTH",
"727 330 OFFCURVE",
"735 368 OFFCURVE",
"746 425 CURVE SMOOTH",
"777 604 OFFCURVE",
"657 700 OFFCURVE",
"470 700 CURVE",
"182 700 LINE SMOOTH",
"167 700 OFFCURVE",
"152 688 OFFCURVE",
"149 673 CURVE SMOOTH",
"12 27 LINE SMOOTH",
"9 12 OFFCURVE",
"18 0 OFFCURVE",
"33 0 CURVE SMOOTH"
);
},
{
closed = 1;
nodes = (
"364 505 LINE",
"424 505 LINE SMOOTH",
"469 505 OFFCURVE",
"500 481 OFFCURVE",
"492 425 CURVE SMOOTH",
"483 370 OFFCURVE",
"475 333 OFFCURVE",
"460 276 CURVE SMOOTH",
"445 220 OFFCURVE",
"407 195 OFFCURVE",
"363 195 CURVE SMOOTH",
"298 195 LINE"
);
}
);
width = 740;
}
);
leftKerningGroup = I;
rightKerningGroup = D;
unicode = 0044;
userData = {
com.typemytype.robofont.guides = (
{
angle = 0;
isGlobal = 0;
magnetic = 5;
x = 0;
y = 425;
},
{
angle = 0;
isGlobal = 0;
magnetic = 5;
x = 0;
y = 276;
},
{
angle = 0;
isGlobal = 0;
magnetic = 5;
x = 0;
y = 9;
},
{
angle = 90;
isGlobal = 0;
magnetic = 5;
x = 320;
y = 0;
},
{
angle = 90;
isGlobal = 0;
magnetic = 5;
x = 603;
y = 0;
},
{
angle = 90;
isGlobal = 0;
magnetic = 5;
x = 94;
y = 0;
}
);
};
},
{
glyphname = Eth;
lastChange = "2016-01-20 15:26:13 +0000";
layers = (
{
guideLines = (
{
position = "{-150, 350}";
}
);
hints = (
{
horizontal = 1;
place = "{450, 0}";
type = Tag;
name = hr00;
}
);
layerId = "581BC726-83A6-4935-8633-5A6508251040";
paths = (
{
closed = 1;
nodes = (
"291 0 LINE SMOOTH",
"497 0 OFFCURVE",
"579 87 OFFCURVE",
"622 271 CURVE SMOOTH",
"636 331 OFFCURVE",
"644 370 OFFCURVE",
"656 430 CURVE SMOOTH",
"690 604 OFFCURVE",
"647 700 OFFCURVE",
"435 700 CURVE",
"222 700 LINE SMOOTH",
"209 700 OFFCURVE",
"198 691 OFFCURVE",
"195 677 CURVE SMOOTH",
"132 382 LINE",
"69 382 LINE SMOOTH",
"56 382 OFFCURVE",
"45 373 OFFCURVE",
"43 360 CURVE SMOOTH",
"39 344 LINE SMOOTH",
"37 331 OFFCURVE",
"44 322 OFFCURVE",
"57 322 CURVE SMOOTH",
"120 322 LINE",
"56 22 LINE SMOOTH",
"53 9 OFFCURVE",
"60 0 OFFCURVE",
"73 0 CURVE SMOOTH"
);
},
{
closed = 1;
nodes = (
"183 322 LINE",
"333 322 LINE SMOOTH",
"346 322 OFFCURVE",
"357 331 OFFCURVE",
"359 344 CURVE SMOOTH",
"363 360 LINE SMOOTH",
"365 373 OFFCURVE",
"358 382 OFFCURVE",
"345 382 CURVE SMOOTH",
"195 382 LINE",
"250 640 LINE",
"417 640 LINE SMOOTH",
"577 640 OFFCURVE",
"620 571 OFFCURVE",
"592 425 CURVE SMOOTH",
"580 365 OFFCURVE",
"574 336 OFFCURVE",
"560 276 CURVE SMOOTH",
"524 120 OFFCURVE",
"458 60 OFFCURVE",
"299 60 CURVE SMOOTH",
"127 60 LINE"
);
}
);
width = 683;
},
{
guideLines = (
{
position = "{350, 350}";
}
);
hints = (
{
horizontal = 1;
place = "{-2147483648, 0}";
type = Tag;
name = hr00;
}
);
layerId = "EC64484B-0978-4CB1-9EE9-C40A2D8C4059";
paths = (
{
closed = 1;
nodes = (
"346 0 LINE SMOOTH",
"537 0 OFFCURVE",
"699 87 OFFCURVE",
"739 276 CURVE SMOOTH",
"750 326 OFFCURVE",
"760 375 OFFCURVE",
"771 425 CURVE SMOOTH",
"809 604 OFFCURVE",
"681 700 OFFCURVE",
"494 700 CURVE SMOOTH",
"206 700 LINE SMOOTH",
"191 700 OFFCURVE",
"176 688 OFFCURVE",
"173 673 CURVE SMOOTH",
"121 429 LINE",
"83 429 LINE",
"68 429 OFFCURVE",
"54 417 OFFCURVE",
"51 402 CURVE SMOOTH",
"29 301 LINE SMOOTH",
"26 286 OFFCURVE",
"35 274 OFFCURVE",
"50 274 CURVE SMOOTH",
"88 274 LINE",
"36 27 LINE SMOOTH",
"33 12 OFFCURVE",
"42 0 OFFCURVE",
"57 0 CURVE SMOOTH"
);
},
{
closed = 1;
nodes = (
"338 274 LINE",
"394 274 LINE SMOOTH",
"409 274 OFFCURVE",
"424 286 OFFCURVE",
"427 301 CURVE SMOOTH",
"449 402 LINE SMOOTH",
"452 417 OFFCURVE",
"442 429 OFFCURVE",
"427 429 CURVE SMOOTH",
"371 429 LINE",
"388 505 LINE",
"453 505 LINE SMOOTH",
"498 505 OFFCURVE",
"522 481 OFFCURVE",
"511 425 CURVE SMOOTH",
"500 375 OFFCURVE",
"490 326 OFFCURVE",
"479 276 CURVE SMOOTH",
"467 220 OFFCURVE",
"431 195 OFFCURVE",
"387 195 CURVE SMOOTH",
"322 195 LINE"
);
}
);
width = 766;
}
);
leftKerningGroup = I;
rightKerningGroup = D;
unicode = 00D0;
userData = {
com.typemytype.robofont.guides = (
{
angle = 0;
isGlobal = 0;
magnetic = 5;
x = 0;
y = 350;
}
);
};
},
{
glyphname = Dcroat;
lastChange = "2016-01-20 15:26:12 +0000";
layers = (
{
guideLines = (
{
position = "{-150, 352}";
},
{
angle = 90;
position = "{190, 0}";
},
{
angle = 90;
position = "{-45, 0}";
}
);
hints = (
{
horizontal = 1;
place = "{450, 0}";
type = Tag;
name = hr00;
}
);
layerId = "581BC726-83A6-4935-8633-5A6508251040";
paths = (
{
closed = 1;
nodes = (
"291 0 LINE SMOOTH",
"497 0 OFFCURVE",
"579 87 OFFCURVE",
"622 271 CURVE SMOOTH",
"636 331 OFFCURVE",
"644 370 OFFCURVE",
"656 430 CURVE SMOOTH",
"690 604 OFFCURVE",
"647 700 OFFCURVE",
"435 700 CURVE",
"222 700 LINE SMOOTH",
"209 700 OFFCURVE",
"198 691 OFFCURVE",
"195 677 CURVE SMOOTH",
"132 382 LINE",
"69 382 LINE SMOOTH",
"56 382 OFFCURVE",
"45 373 OFFCURVE",
"43 360 CURVE SMOOTH",
"39 344 LINE SMOOTH",
"37 331 OFFCURVE",
"44 322 OFFCURVE",
"57 322 CURVE SMOOTH",
"120 322 LINE",
"56 22 LINE SMOOTH",
"53 9 OFFCURVE",
"60 0 OFFCURVE",
"73 0 CURVE SMOOTH"
);
},
{
closed = 1;
nodes = (
"183 322 LINE",
"333 322 LINE SMOOTH",
"346 322 OFFCURVE",
"357 331 OFFCURVE",
"359 344 CURVE SMOOTH",
"363 360 LINE SMOOTH",
"365 373 OFFCURVE",
"358 382 OFFCURVE",
"345 382 CURVE SMOOTH",
"195 382 LINE",
"250 640 LINE",
"417 640 LINE SMOOTH",
"577 640 OFFCURVE",
"620 571 OFFCURVE",
"592 425 CURVE SMOOTH",
"580 365 OFFCURVE",
"574 336 OFFCURVE",
"560 276 CURVE SMOOTH",
"524 120 OFFCURVE",
"458 60 OFFCURVE",
"299 60 CURVE SMOOTH",
"127 60 LINE"
);
}
);
width = 683;
},
{
guideLines = (
{
position = "{350, 352}";
}
);
hints = (
{
horizontal = 1;
place = "{-2147483648, 0}";
type = Tag;
name = hr00;
}
);
layerId = "EC64484B-0978-4CB1-9EE9-C40A2D8C4059";
paths = (
{
closed = 1;
nodes = (
"346 0 LINE SMOOTH",
"537 0 OFFCURVE",
"690 87 OFFCURVE",
"738 276 CURVE SMOOTH",
"751 330 OFFCURVE",
"759 368 OFFCURVE",
"770 425 CURVE SMOOTH",
"801 604 OFFCURVE",
"681 700 OFFCURVE",
"494 700 CURVE",
"206 700 LINE SMOOTH",
"191 700 OFFCURVE",
"176 688 OFFCURVE",
"173 673 CURVE SMOOTH",
"122 430 LINE",
"84 430 LINE SMOOTH",
"69 430 OFFCURVE",
"54 418 OFFCURVE",
"51 403 CURVE SMOOTH",
"29 302 LINE SMOOTH",
"26 287 OFFCURVE",
"36 275 OFFCURVE",
"51 275 CURVE SMOOTH",
"89 275 LINE",
"36 27 LINE SMOOTH",
"33 12 OFFCURVE",
"42 0 OFFCURVE",
"57 0 CURVE SMOOTH"
);
},
{
closed = 1;
nodes = (
"339 275 LINE",
"395 275 LINE SMOOTH",
"410 275 OFFCURVE",
"424 287 OFFCURVE",
"427 302 CURVE SMOOTH",
"449 403 LINE SMOOTH",
"452 418 OFFCURVE",
"443 430 OFFCURVE",
"428 430 CURVE SMOOTH",
"372 430 LINE",
"388 505 LINE",
"453 505 LINE SMOOTH",
"498 505 OFFCURVE",
"524 481 OFFCURVE",
"516 425 CURVE SMOOTH",
"507 370 OFFCURVE",
"499 333 OFFCURVE",
"484 276 CURVE SMOOTH",
"469 220 OFFCURVE",
"431 195 OFFCURVE",
"387 195 CURVE SMOOTH",
"322 195 LINE"
);
}
);
width = 764;
}
);
leftKerningGroup = I;
rightKerningGroup = D;
unicode = 0110;
userData = {
com.typemytype.robofont.guides = (
{
angle = 0;
isGlobal = 0;
magnetic = 5;
x = 0;
y = 352;
},
{
angle = 90;
isGlobal = 0;
magnetic = 5;
x = 340;
y = 0;
},
{
angle = 90;
isGlobal = 0;
magnetic = 5;
x = 105;
y = 0;
}
);
};
},
{
glyphname = E;
lastChange = "2016-01-20 15:26:12 +0000";
layers = (
{
guideLines = (
{
position = "{-150, 334}";
},
{
position = "{-150, 9}";
},
{
position = "{-150, 376}";
},
{
position = "{-150, 691}";
},
{
position = "{-150, 649}";
},
{
angle = 90;
position = "{514, 0}";
},
{
angle = 90;
position = "{-56, 0}";
},
{
angle = 90;
position = "{361, 0}";
}
);
hints = (
{
horizontal = 1;
place = "{-90, 0}";
type = Tag;
name = hr00;
}
);
layerId = "581BC726-83A6-4935-8633-5A6508251040";
paths = (
{
closed = 1;
nodes = (
"465 0 LINE SMOOTH",
"479 0 OFFCURVE",
"490 9 OFFCURVE",
"493 22 CURVE SMOOTH",
"496 37 LINE SMOOTH",
"499 51 OFFCURVE",
"492 60 OFFCURVE",
"478 60 CURVE",
"121 60 LINE",
"177 325 LINE",
"504 325 LINE SMOOTH",
"518 325 OFFCURVE",
"529 334 OFFCURVE",
"532 347 CURVE SMOOTH",
"535 362 LINE SMOOTH",
"538 376 OFFCURVE",
"531 385 OFFCURVE",
"517 385 CURVE SMOOTH",
"190 385 LINE",
"244 640 LINE",
"593 640 LINE SMOOTH",
"607 640 OFFCURVE",
"618 649 OFFCURVE",
"621 662 CURVE SMOOTH",
"624 677 LINE SMOOTH",
"627 691 OFFCURVE",
"620 700 OFFCURVE",
"606 700 CURVE SMOOTH",
"216 700 LINE SMOOTH",
"203 700 OFFCURVE",
"192 691 OFFCURVE",
"189 677 CURVE SMOOTH",
"50 22 LINE SMOOTH",
"47 9 OFFCURVE",
"54 0 OFFCURVE",
"67 0 CURVE SMOOTH"
);
}
);
width = 592;
},
{
guideLines = (
{
position = "{350, 350}";
}
);
hints = (
{
horizontal = 1;
place = "{-2147483648, 0}";
type = Tag;
name = hr00;
}
);
layerId = "EC64484B-0978-4CB1-9EE9-C40A2D8C4059";
paths = (
{
closed = 1;
nodes = (
"554 0 LINE SMOOTH",
"569 0 OFFCURVE",
"584 12 OFFCURVE",
"587 27 CURVE SMOOTH",
"617 168 LINE SMOOTH",
"620 183 OFFCURVE",
"611 195 OFFCURVE",
"596 195 CURVE SMOOTH",
"288 195 LINE",
"301 258 LINE",
"579 258 LINE SMOOTH",
"594 258 OFFCURVE",
"609 270 OFFCURVE",
"612 285 CURVE SMOOTH",
"639 415 LINE SMOOTH",
"643 430 OFFCURVE",
"633 442 OFFCURVE",
"618 442 CURVE SMOOTH",
"340 442 LINE",
"354 505 LINE",
"654 505 LINE SMOOTH",
"669 505 OFFCURVE",
"683 517 OFFCURVE",
"686 532 CURVE SMOOTH",
"716 673 LINE SMOOTH",
"719 688 OFFCURVE",
"710 700 OFFCURVE",
"695 700 CURVE SMOOTH",
"182 700 LINE SMOOTH",
"167 700 OFFCURVE",
"152 688 OFFCURVE",
"149 673 CURVE SMOOTH",
"12 27 LINE SMOOTH",
"9 12 OFFCURVE",
"18 0 OFFCURVE",
"33 0 CURVE SMOOTH"
);
}
);
width = 667;
}
);
leftKerningGroup = I;
rightKerningGroup = E;
unicode = 0045;
userData = {
com.typemytype.robofont.guides = (
{
angle = 0;
isGlobal = 0;
magnetic = 5;
x = 0;
y = 334;
},
{
angle = 0;
isGlobal = 0;
magnetic = 5;
x = 0;
y = 9;
},
{
angle = 0;
isGlobal = 0;
magnetic = 5;
x = 0;
y = 376;
},
{
angle = 0;
isGlobal = 0;
magnetic = 5;
x = 0;
y = 691;
},
{
angle = 0;
isGlobal = 0;
magnetic = 5;
x = 0;
y = 649;
},
{
angle = 90;
isGlobal = 0;
magnetic = 5;
x = 664;
y = 0;
},
{
angle = 90;
isGlobal = 0;
magnetic = 5;
x = 94;
y = 0;
},
{
angle = 90;
isGlobal = 0;
magnetic = 5;
x = 511;
y = 0;
}
);
};
},
{
glyphname = Eogonek;
lastChange = "2016-01-20 15:26:13 +0000";
layers = (
{
guideLines = (
{
angle = 90;
position = "{205, 0}";
}
);
hints = (
{
horizontal = 1;
place = "{-232, 0}";
type = Tag;
name = hr01;
}
);
layerId = "581BC726-83A6-4935-8633-5A6508251040";
paths = (
{
closed = 1;
nodes = (
"419 -220 LINE SMOOTH",
"432 -220 OFFCURVE",
"443 -211 OFFCURVE",
"446 -198 CURVE SMOOTH",
"449 -185 LINE SMOOTH",
"452 -172 OFFCURVE",
"445 -163 OFFCURVE",
"432 -163 CURVE SMOOTH",
"417 -163 LINE SMOOTH",
"373 -163 OFFCURVE",
"347 -133 OFFCURVE",
"358 -82 CURVE SMOOTH",
"368 -33 OFFCURVE",
"404 -3 OFFCURVE",
"444 0 CURVE",
"465 0 LINE SMOOTH",
"479 0 OFFCURVE",
"490 9 OFFCURVE",
"493 22 CURVE SMOOTH",
"496 37 LINE SMOOTH",
"499 51 OFFCURVE",
"492 60 OFFCURVE",
"478 60 CURVE SMOOTH",
"121 60 LINE",
"177 325 LINE",
"504 325 LINE SMOOTH",
"518 325 OFFCURVE",
"529 334 OFFCURVE",
"532 347 CURVE SMOOTH",
"535 362 LINE SMOOTH",
"538 376 OFFCURVE",
"531 385 OFFCURVE",
"517 385 CURVE SMOOTH",
"190 385 LINE",
"244 640 LINE",
"593 640 LINE SMOOTH",
"607 640 OFFCURVE",
"618 649 OFFCURVE",
"621 662 CURVE SMOOTH",
"624 677 LINE SMOOTH",
"627 691 OFFCURVE",
"620 700 OFFCURVE",
"606 700 CURVE SMOOTH",
"216 700 LINE SMOOTH",
"203 700 OFFCURVE",
"192 691 OFFCURVE",
"189 677 CURVE SMOOTH",
"50 22 LINE SMOOTH",
"47 9 OFFCURVE",
"54 0 OFFCURVE",
"67 0 CURVE SMOOTH",
"336 0 LINE",
"318 -22 OFFCURVE",
"305 -50 OFFCURVE",
"298 -82 CURVE SMOOTH",
"280 -167 OFFCURVE",
"319 -220 OFFCURVE",
"400 -220 CURVE SMOOTH"
);
}
);
width = 592;
},
{
guideLines = (
{
position = "{350, -220}";
}
);
hints = (
{
horizontal = 1;
place = "{-2147483648, 0}";
type = Tag;
name = hr01;
}
);
layerId = "EC64484B-0978-4CB1-9EE9-C40A2D8C4059";
paths = (
{
closed = 1;
nodes = (
"507 -220 LINE SMOOTH",
"522 -220 OFFCURVE",
"537 -208 OFFCURVE",
"540 -193 CURVE SMOOTH",
"555 -125 LINE SMOOTH",
"558 -110 OFFCURVE",
"548 -98 OFFCURVE",
"533 -98 CURVE SMOOTH",
"523 -98 LINE SMOOTH",
"484 -98 OFFCURVE",
"479 -70 OFFCURVE",
"484 -49 CURVE SMOOTH",
"488 -28 OFFCURVE",
"505 0 OFFCURVE",
"544 0 CURVE SMOOTH",
"554 0 LINE SMOOTH",
"569 0 OFFCURVE",
"584 12 OFFCURVE",
"587 27 CURVE SMOOTH",
"617 168 LINE SMOOTH",
"620 183 OFFCURVE",
"611 195 OFFCURVE",
"596 195 CURVE SMOOTH",
"288 195 LINE",
"301 258 LINE",
"579 258 LINE SMOOTH",
"594 258 OFFCURVE",
"609 270 OFFCURVE",
"612 285 CURVE SMOOTH",
"639 415 LINE SMOOTH",
"643 430 OFFCURVE",
"633 442 OFFCURVE",
"618 442 CURVE SMOOTH",
"340 442 LINE",
"354 505 LINE",
"654 505 LINE SMOOTH",
"669 505 OFFCURVE",
"683 517 OFFCURVE",
"686 532 CURVE SMOOTH",
"716 673 LINE SMOOTH",
"719 688 OFFCURVE",
"710 700 OFFCURVE",
"695 700 CURVE SMOOTH",
"182 700 LINE SMOOTH",
"167 700 OFFCURVE",
"152 688 OFFCURVE",
"149 673 CURVE SMOOTH",
"12 27 LINE SMOOTH",
"9 12 OFFCURVE",
"18 0 OFFCURVE",
"33 0 CURVE SMOOTH",
"373 0 LINE",
"367 -16 OFFCURVE",
"362 -31 OFFCURVE",
"358 -49 CURVE SMOOTH",
"338 -144 OFFCURVE",
"372 -220 OFFCURVE",
"493 -220 CURVE SMOOTH"
);
}
);
width = 667;
}
);
leftKerningGroup = I;
rightKerningGroup = E;
unicode = 0118;
userData = {
com.typemytype.robofont.guides = (
{
angle = 90;
isGlobal = 0;
magnetic = 5;
x = 355;
y = 0;
}
);
};
},
{
glyphname = F;
lastChange = "2016-01-20 15:26:13 +0000";
layers = (
{
guideLines = (
{
position = "{-150, 320}";
},
{
position = "{-150, 691}";
},
{
position = "{-150, 649}";
},
{
position = "{-150, 362}";
},
{
position = "{-150, 9}";
},
{
angle = 90;
position = "{611, 0}";
},
{
angle = 90;
position = "{-56, 0}";
},
{
angle = 90;
position = "{337, 0}";
},
{
angle = 90;
position = "{-11, 0}";
}
);
hints = (
{
horizontal = 1;
place = "{450, 0}";
type = Tag;
name = hr00;
}
);
layerId = "581BC726-83A6-4935-8633-5A6508251040";
paths = (
{
closed = 1;
nodes = (
"85 0 LINE SMOOTH",
"99 0 OFFCURVE",
"110 9 OFFCURVE",
"113 22 CURVE SMOOTH",
"174 311 LINE",
"499 311 LINE SMOOTH",
"513 311 OFFCURVE",
"524 320 OFFCURVE",
"527 333 CURVE SMOOTH",
"530 348 LINE SMOOTH",
"533 362 OFFCURVE",
"526 371 OFFCURVE",
"512 371 CURVE SMOOTH",
"187 371 LINE",
"244 640 LINE",
"589 640 LINE SMOOTH",
"603 640 OFFCURVE",
"614 649 OFFCURVE",
"617 662 CURVE SMOOTH",
"620 677 LINE SMOOTH",
"623 691 OFFCURVE",
"616 700 OFFCURVE",
"602 700 CURVE SMOOTH",
"216 700 LINE",
"203 700 OFFCURVE",
"192 691 OFFCURVE",
"189 677 CURVE SMOOTH",
"50 22 LINE SMOOTH",
"47 9 OFFCURVE",
"54 0 OFFCURVE",
"67 0 CURVE SMOOTH"
);
}
);
width = 570;
},
{
guideLines = (
{
position = "{350, 350}";
},
{
angle = 90;
position = "{995, 0}";
}
);
hints = (
{
horizontal = 1;
place = "{-2147483648, 0}";
type = Tag;
name = hr00;
}
);
layerId = "EC64484B-0978-4CB1-9EE9-C40A2D8C4059";
paths = (
{
closed = 1;
nodes = (
"224 0 LINE SMOOTH",
"239 0 OFFCURVE",
"254 12 OFFCURVE",
"257 27 CURVE SMOOTH",
"297 215 LINE",
"563 215 LINE SMOOTH",
"578 215 OFFCURVE",
"592 227 OFFCURVE",
"596 242 CURVE SMOOTH",
"628 393 LINE SMOOTH",
"631 408 OFFCURVE",
"621 420 OFFCURVE",
"606 420 CURVE SMOOTH",
"340 420 LINE",
"356 494 LINE",
"642 494 LINE SMOOTH",
"657 494 OFFCURVE",
"672 506 OFFCURVE",
"675 521 CURVE SMOOTH",
"707 673 LINE SMOOTH",
"710 688 OFFCURVE",
"701 700 OFFCURVE",
"686 700 CURVE SMOOTH",
"182 700 LINE SMOOTH",
"167 700 OFFCURVE",
"152 688 OFFCURVE",
"149 673 CURVE SMOOTH",
"12 27 LINE SMOOTH",
"9 12 OFFCURVE",
"18 0 OFFCURVE",
"33 0 CURVE SMOOTH"
);
}
);
width = 646;
}
);
leftKerningGroup = I;
unicode = 0046;
userData = {
com.typemytype.robofont.guides = (
{
angle = 0;
isGlobal = 0;
magnetic = 5;
x = 0;
y = 320;
},
{
angle = 0;
isGlobal = 0;
magnetic = 5;
x = 0;
y = 691;
},
{
angle = 0;
isGlobal = 0;
magnetic = 5;
x = 0;
y = 649;
},
{
angle = 0;
isGlobal = 0;
magnetic = 5;
x = 0;
y = 362;
},
{
angle = 0;
isGlobal = 0;
magnetic = 5;
x = 0;
y = 9;
},
{
angle = 90;
isGlobal = 0;
magnetic = 5;
x = 761;
y = 0;
},
{
angle = 90;
isGlobal = 0;
magnetic = 5;
x = 94;
y = 0;
},
{
angle = 90;
isGlobal = 0;
magnetic = 5;
x = 487;
y = 0;
},
{
angle = 90;
isGlobal = 0;
magnetic = 5;
x = 139;
y = 0;
}
);
};
},
{
glyphname = G;
lastChange = "2016-01-20 15:26:12 +0000";
layers = (
{
guideLines = (
{
position = "{-150, -10}";
},
{
position = "{-150, 260}";
},
{
position = "{-150, 440}";
},
{
angle = 90;
position = "{184, 0}";
},
{
angle = 90;
position = "{-17, 0}";
},
{
angle = 90;
position = "{454, 0}";
},
{
angle = 90;
position = "{-83, 0}";
}
);
hints = (
{
horizontal = 1;
place = "{500, 0}";
type = Tag;
name = hr00;
}
);
layerId = "581BC726-83A6-4935-8633-5A6508251040";
paths = (
{
closed = 1;
nodes = (
"455 -10 OFFCURVE",
"576 100 OFFCURVE",
"610 260 CURVE SMOOTH",
"629 348 LINE SMOOTH",
"632 362 OFFCURVE",
"625 371 OFFCURVE",
"611 371 CURVE SMOOTH",
"397 371 LINE SMOOTH",
"384 371 OFFCURVE",
"373 362 OFFCURVE",
"370 348 CURVE SMOOTH",
"367 334 LINE SMOOTH",
"364 320 OFFCURVE",
"371 311 OFFCURVE",
"384 311 CURVE SMOOTH",
"558 311 LINE",
"547 260 LINE SMOOTH",
"517 115 OFFCURVE",
"414 50 OFFCURVE",
"296 50 CURVE SMOOTH",
"177 50 OFFCURVE",
"110 110 OFFCURVE",
"136 260 CURVE SMOOTH",
"147 320 OFFCURVE",
"160 380 OFFCURVE",
"175 440 CURVE SMOOTH",
"212 590 OFFCURVE",
"304 650 OFFCURVE",
"423 650 CURVE SMOOTH",
"542 650 OFFCURVE",
"586 587 OFFCURVE",
"593 525 CURVE SMOOTH",
"595 510 OFFCURVE",
"598 505 OFFCURVE",
"610 505 CURVE SMOOTH",
"632 505 LINE SMOOTH",
"645 505 OFFCURVE",
"655 513 OFFCURVE",
"657 525 CURVE SMOOTH",
"666 582 OFFCURVE",
"621 710 OFFCURVE",
"436 710 CURVE SMOOTH",
"265 710 OFFCURVE",
"151 602 OFFCURVE",
"113 445 CURVE SMOOTH",
"98 385 OFFCURVE",
"83 315 OFFCURVE",
"72 255 CURVE SMOOTH",
"44 99 OFFCURVE",
"111 -10 OFFCURVE",
"283 -10 CURVE SMOOTH"
);
}
);
width = 664;
},
{
guideLines = (
{
position = "{350, 710}";
},
{
position = "{350, -10}";
},
{
position = "{350, 440}";
},
{
position = "{350, 270}";
},
{
angle = 90;
position = "{734, 0}";
},
{
angle = 90;
position = "{1078, 0}";
}
);
hints = (
{
horizontal = 1;
place = "{-2147483648, 0}";
type = Tag;
name = hr01;
}
);
layerId = "EC64484B-0978-4CB1-9EE9-C40A2D8C4059";
paths = (
{
closed = 1;
nodes = (
"525 -10 OFFCURVE",
"687 85 OFFCURVE",
"726 265 CURVE SMOOTH",
"753 395 LINE SMOOTH",
"756 410 OFFCURVE",
"747 422 OFFCURVE",
"732 422 CURVE SMOOTH",
"457 422 LINE SMOOTH",
"442 422 OFFCURVE",
"427 410 OFFCURVE",
"424 395 CURVE SMOOTH",
"401 284 LINE SMOOTH",
"397 269 OFFCURVE",
"407 257 OFFCURVE",
"422 257 CURVE SMOOTH",
"469 257 LINE",
"469 256 LINE",
"458 205 OFFCURVE",
"419 185 OFFCURVE",
"369 185 CURVE SMOOTH",
"320 185 OFFCURVE",
"295 210 OFFCURVE",
"306 270 CURVE",
"316 327 OFFCURVE",
"328 385 OFFCURVE",
"342 440 CURVE",
"354 490 OFFCURVE",
"386 515 OFFCURVE",
"435 515 CURVE SMOOTH",
"484 515 OFFCURVE",
"493 486 OFFCURVE",
"498 476 CURVE SMOOTH",
"503 469 OFFCURVE",
"510 465 OFFCURVE",
"525 465 CURVE SMOOTH",
"746 465 LINE SMOOTH",
"758 465 OFFCURVE",
"770 475 OFFCURVE",
"773 487 CURVE SMOOTH",
"795 608 OFFCURVE",
"687 710 OFFCURVE",
"476 710 CURVE SMOOTH",
"279 710 OFFCURVE",
"127 622 OFFCURVE",
"83 445 CURVE",
"69 388 OFFCURVE",
"54 319 OFFCURVE",
"45 265 CURVE SMOOTH",
"13 79 OFFCURVE",
"121 -10 OFFCURVE",
"323 -10 CURVE SMOOTH"
);
}
);
width = 753;
}
);
leftKerningGroup = O;
rightKerningGroup = G;
unicode = 0047;
userData = {
com.typemytype.robofont.guides = (
{
angle = 0;
isGlobal = 0;
magnetic = 5;
x = 0;
y = "-10";
},
{
angle = 0;
isGlobal = 0;
magnetic = 5;
x = 0;
y = 260;
},
{
angle = 0;
isGlobal = 0;
magnetic = 5;
x = 0;
y = 440;
},
{
angle = 90;
isGlobal = 0;
magnetic = 5;
x = 334;
y = 0;
},
{
angle = 90;
isGlobal = 0;
magnetic = 5;
x = 133;
y = 0;
},
{
angle = 90;
isGlobal = 0;
magnetic = 5;
x = 604;
y = 0;
},
{
angle = 90;
isGlobal = 0;
magnetic = 5;
x = 67;
y = 0;
}
);
};
},
{
glyphname = H;
lastChange = "2016-01-20 15:26:12 +0000";
layers = (
{
guideLines = (
{
position = "{-150, 350}";
},
{
position = "{-150, 9}";
},
{
position = "{-150, 691}";
},
{
angle = 90;
position = "{-56, 0}";
},
{
angle = 90;
position = "{-11, 0}";
},
{
angle = 90;
position = "{393, 0}";
},
{
angle = 90;
position = "{438, 0}";
}
);
hints = (
{
horizontal = 1;
place = "{450, 0}";
type = Tag;
name = hr00;
}
);
layerId = "581BC726-83A6-4935-8633-5A6508251040";
paths = (
{
closed = 1;
nodes = (
"85 0 LINE SMOOTH",
"99 0 OFFCURVE",
"110 9 OFFCURVE",
"113 22 CURVE SMOOTH",
"177 325 LINE",
"563 325 LINE",
"499 22 LINE SMOOTH",
"496 9 OFFCURVE",
"503 0 OFFCURVE",
"516 0 CURVE SMOOTH",
"534 0 LINE SMOOTH",
"548 0 OFFCURVE",
"559 9 OFFCURVE",
"562 22 CURVE SMOOTH",
"701 677 LINE SMOOTH",
"704 691 OFFCURVE",
"697 700 OFFCURVE",
"683 700 CURVE SMOOTH",
"665 700 LINE",
"652 700 OFFCURVE",
"641 691 OFFCURVE",
"638 677 CURVE SMOOTH",
"576 385 LINE",
"190 385 LINE",
"252 677 LINE SMOOTH",
"255 691 OFFCURVE",
"248 700 OFFCURVE",
"234 700 CURVE SMOOTH",
"216 700 LINE SMOOTH",
"203 700 OFFCURVE",
"192 691 OFFCURVE",
"189 677 CURVE SMOOTH",
"50 22 LINE SMOOTH",
"47 9 OFFCURVE",
"54 0 OFFCURVE",
"67 0 CURVE SMOOTH"
);
}
);
width = 700;
},
{
hints = (
{
horizontal = 1;
place = "{-2147483648, 0}";
type = Tag;
name = hr00;
}
);
layerId = "EC64484B-0978-4CB1-9EE9-C40A2D8C4059";
paths = (
{
closed = 1;
nodes = (
"229 0 LINE SMOOTH",
"244 0 OFFCURVE",
"259 12 OFFCURVE",
"262 27 CURVE SMOOTH",
"308 243 LINE",
"470 243 LINE",
"424 27 LINE SMOOTH",
"421 12 OFFCURVE",
"430 0 OFFCURVE",
"445 0 CURVE SMOOTH",
"641 0 LINE SMOOTH",
"656 0 OFFCURVE",
"671 12 OFFCURVE",
"674 27 CURVE SMOOTH",
"811 673 LINE SMOOTH",
"814 688 OFFCURVE",
"805 700 OFFCURVE",
"790 700 CURVE SMOOTH",
"594 700 LINE SMOOTH",
"579 700 OFFCURVE",
"564 688 OFFCURVE",
"561 673 CURVE SMOOTH",
"517 463 LINE",
"355 463 LINE",
"399 673 LINE SMOOTH",
"402 688 OFFCURVE",
"393 700 OFFCURVE",
"378 700 CURVE SMOOTH",
"182 700 LINE SMOOTH",
"167 700 OFFCURVE",
"152 688 OFFCURVE",
"149 673 CURVE SMOOTH",
"12 27 LINE SMOOTH",
"9 11 OFFCURVE",
"18 0 OFFCURVE",
"33 0 CURVE SMOOTH"
);
}
);
width = 772;
}
);
leftKerningGroup = I;
rightKerningGroup = I;
unicode = 0048;
userData = {
com.typemytype.robofont.guides = (
{
angle = 0;
isGlobal = 0;
magnetic = 5;
x = 0;
y = 350;
},
{
angle = 0;
isGlobal = 0;
magnetic = 5;
x = 0;
y = 9;
},
{
angle = 0;
isGlobal = 0;
magnetic = 5;
x = 0;
y = 691;
},
{
angle = 90;
isGlobal = 0;
magnetic = 5;
x = 94;
y = 0;
},
{
angle = 90;
isGlobal = 0;
magnetic = 5;
x = 139;
y = 0;
},
{
angle = 90;
isGlobal = 0;
magnetic = 5;
x = 543;
y = 0;
},
{
angle = 90;
isGlobal = 0;
magnetic = 5;
x = 588;
y = 0;
}
);
};
},
{
glyphname = Hbar;
lastChange = "2016-01-20 15:26:12 +0000";
layers = (
{
components = (
{
name = H;
transform = "{1, 0, 0, 1, -149, 0}";
}
);
hints = (
{
horizontal = 1;
place = "{421, 0}";
type = Tag;
name = hr00;
}
);
layerId = "581BC726-83A6-4935-8633-5A6508251040";
paths = (
{
closed = 1;
nodes = (
"727 513 LINE SMOOTH",
"740 513 OFFCURVE",
"751 522 OFFCURVE",
"754 535 CURVE SMOOTH",
"757 549 LINE SMOOTH",
"760 562 OFFCURVE",
"753 571 OFFCURVE",
"740 571 CURVE SMOOTH",
"116 571 LINE SMOOTH",
"103 571 OFFCURVE",
"92 562 OFFCURVE",
"89 549 CURVE SMOOTH",
"86 535 LINE SMOOTH",
"83 522 OFFCURVE",
"90 513 OFFCURVE",
"103 513 CURVE SMOOTH"
);
}
);
width = 700;
},
{
components = (
{
name = H;
transform = "{1, 0, 0, 1, -149, 0}";
}
);
guideLines = (
{
position = "{350, 581}";
}
);
hints = (
{
horizontal = 1;
place = "{-2147483648, 0}";
type = Tag;
name = hr00;
}
);
layerId = "EC64484B-0978-4CB1-9EE9-C40A2D8C4059";
paths = (
{
closed = 1;
nodes = (
"744 521 LINE SMOOTH",
"759 521 OFFCURVE",
"774 533 OFFCURVE",
"777 548 CURVE SMOOTH",
"791 616 LINE SMOOTH",
"794 631 OFFCURVE",
"785 643 OFFCURVE",
"770 643 CURVE SMOOTH",
"176 643 LINE SMOOTH",
"161 643 OFFCURVE",
"146 631 OFFCURVE",
"143 616 CURVE SMOOTH",
"129 548 LINE SMOOTH",
"126 533 OFFCURVE",
"135 521 OFFCURVE",
"150 521 CURVE SMOOTH"
);
}
);
width = 772;
},
{
associatedMasterId = "581BC726-83A6-4935-8633-5A6508251040";
hints = (
{
horizontal = 1;
place = "{571, 0}";
type = Tag;
name = hr00;
}
);
layerId = "9F89FD77-DC2E-4404-8D47-3D5086EDA98C";
name = "Light Jan 19 16, 17:03";
paths = (
{
closed = 1;
nodes = (
"139 0 LINE SMOOTH",
"153 0 OFFCURVE",
"162 9 OFFCURVE",
"162 22 CURVE SMOOTH",
"162 325 LINE",
"548 325 LINE",
"548 22 LINE SMOOTH",
"548 9 OFFCURVE",
"557 0 OFFCURVE",
"570 0 CURVE SMOOTH",
"588 0 LINE SMOOTH",
"602 0 OFFCURVE",
"611 9 OFFCURVE",
"611 22 CURVE SMOOTH",
"611 511 LINE",
"668 511 LINE SMOOTH",
"682 511 OFFCURVE",
"691 520 OFFCURVE",
"691 533 CURVE SMOOTH",
"691 548 LINE SMOOTH",
"691 562 OFFCURVE",
"682 571 OFFCURVE",
"668 571 CURVE SMOOTH",
"611 571 LINE",
"611 677 LINE SMOOTH",
"611 691 OFFCURVE",
"602 700 OFFCURVE",
"588 700 CURVE SMOOTH",
"570 700 LINE SMOOTH",
"557 700 OFFCURVE",
"548 691 OFFCURVE",
"548 677 CURVE SMOOTH",
"548 571 LINE",
"162 571 LINE",
"162 677 LINE SMOOTH",
"162 691 OFFCURVE",
"153 700 OFFCURVE",
"139 700 CURVE SMOOTH",
"121 700 LINE SMOOTH",
"108 700 OFFCURVE",
"99 691 OFFCURVE",
"99 677 CURVE SMOOTH",
"99 571 LINE",
"41 571 LINE SMOOTH",
"28 571 OFFCURVE",
"19 562 OFFCURVE",
"19 548 CURVE SMOOTH",
"19 533 LINE SMOOTH",
"19 520 OFFCURVE",
"28 511 OFFCURVE",
"41 511 CURVE SMOOTH",
"99 511 LINE",
"99 22 LINE SMOOTH",
"99 9 OFFCURVE",
"108 0 OFFCURVE",
"121 0 CURVE SMOOTH"
);
},
{
closed = 1;
nodes = (
"162 511 LINE",
"548 511 LINE",
"548 385 LINE",
"162 385 LINE"
);
}
);
width = 700;
},
{
associatedMasterId = "EC64484B-0978-4CB1-9EE9-C40A2D8C4059";
guideLines = (
{
position = "{0, 581}";
}
);
hints = (
{
horizontal = 1;
place = "{-2147483648, 0}";
type = Tag;
name = hr00;
}
);
layerId = "FF0B9B16-2378-4A37-8098-43DBF73F83A5";
name = "Bold Jan 19 16, 17:03";
paths = (
{
closed = 1;
nodes = (
"278 0 LINE SMOOTH",
"293 0 OFFCURVE",
"305 12 OFFCURVE",
"305 27 CURVE SMOOTH",
"305 243 LINE",
"467 243 LINE",
"467 27 LINE SMOOTH",
"467 12 OFFCURVE",
"479 0 OFFCURVE",
"494 0 CURVE SMOOTH",
"690 0 LINE SMOOTH",
"705 0 OFFCURVE",
"717 12 OFFCURVE",
"717 27 CURVE SMOOTH",
"717 673 LINE SMOOTH",
"717 688 OFFCURVE",
"705 700 OFFCURVE",
"690 700 CURVE SMOOTH",
"494 700 LINE",
"479 700 OFFCURVE",
"467 688 OFFCURVE",
"467 673 CURVE SMOOTH",
"467 644 LINE",
"305 644 LINE",
"305 673 LINE SMOOTH",
"305 688 OFFCURVE",
"293 700 OFFCURVE",
"278 700 CURVE SMOOTH",
"82 700 LINE SMOOTH",
"67 700 OFFCURVE",
"55 688 OFFCURVE",
"55 673 CURVE SMOOTH",
"55 27 LINE SMOOTH",
"55 11 OFFCURVE",
"67 0 OFFCURVE",
"82 0 CURVE SMOOTH"
);
},
{
closed = 1;
nodes = (
"305 519 LINE",
"467 519 LINE",
"467 463 LINE",
"305 463 LINE"
);
}
);
width = 772;
}
);
leftKerningGroup = I;
rightKerningGroup = I;
unicode = 0126;
},
{
glyphname = I;
lastChange = "2016-01-20 15:26:13 +0000";
layers = (
{
guideLines = (
{
angle = 90;
position = "{-65, 0}";
},
{
angle = 90;
position = "{-2, 0}";
}
);
hints = (
{
horizontal = 1;
place = "{528, 0}";
type = Tag;
name = hr00;
}
);
layerId = "581BC726-83A6-4935-8633-5A6508251040";
paths = (
{
closed = 1;
nodes = (
"86 0 LINE SMOOTH",
"99 0 OFFCURVE",
"110 9 OFFCURVE",
"113 22 CURVE SMOOTH",
"252 678 LINE SMOOTH",
"255 691 OFFCURVE",
"248 700 OFFCURVE",
"235 700 CURVE SMOOTH",
"216 700 LINE SMOOTH",
"203 700 OFFCURVE",
"192 691 OFFCURVE",
"189 678 CURVE SMOOTH",
"50 22 LINE SMOOTH",
"47 9 OFFCURVE",
"54 0 OFFCURVE",
"67 0 CURVE SMOOTH"
);
}
);
width = 251;
},
{
guideLines = (
{
angle = 90;
position = "{668, 0}";
},
{
angle = 90;
position = "{420, 0}";
}
);
hints = (
{
horizontal = 1;
place = "{-2147483648, 0}";
type = Tag;
name = hr00;
}
);
layerId = "EC64484B-0978-4CB1-9EE9-C40A2D8C4059";
paths = (
{
closed = 1;
nodes = (
"237 0 LINE SMOOTH",
"252 0 OFFCURVE",
"267 12 OFFCURVE",
"270 27 CURVE SMOOTH",
"407 673 LINE SMOOTH",
"410 688 OFFCURVE",
"401 700 OFFCURVE",
"386 700 CURVE SMOOTH",
"182 700 LINE SMOOTH",
"167 700 OFFCURVE",
"152 688 OFFCURVE",
"149 673 CURVE SMOOTH",
"12 27 LINE SMOOTH",
"9 12 OFFCURVE",
"18 0 OFFCURVE",
"33 0 CURVE SMOOTH"
);
}
);
width = 368;
}
);
leftKerningGroup = I;
rightKerningGroup = I;
unicode = 0049;
userData = {
com.typemytype.robofont.guides = (
{
angle = 90;
isGlobal = 0;
magnetic = 5;
x = 85;
y = 0;
},
{
angle = 90;
isGlobal = 0;
magnetic = 5;
x = 148;
y = 0;
}
);
};
},
{
color = (255,153,153,1);
glyphname = IJ;
lastChange = "2016-01-20 15:26:12 +0000";
layers = (
{
guideLines = (
{
angle = 90;
position = "{492, 0}";
}
);
hints = (
{
horizontal = 1;
place = "{-150, 0}";
type = Tag;
name = hr01;
}
);
layerId = "581BC726-83A6-4935-8633-5A6508251040";
paths = (
{
closed = 1;
nodes = (
"365 -10 OFFCURVE",
"473 99 OFFCURVE",
"506 255 CURVE",
"596 677 LINE",
"599 691 OFFCURVE",
"592 700 OFFCURVE",
"578 700 CURVE",
"560 700 LINE",
"547 700 OFFCURVE",
"536 691 OFFCURVE",
"533 678 CURVE",
"444 256 LINE",
"418 135 OFFCURVE",
"338 50 OFFCURVE",
"221 50 CURVE SMOOTH",
"208 50 OFFCURVE",
"197 41 OFFCURVE",
"194 27 CURVE",
"191 12 LINE",
"188 -1 OFFCURVE",
"195 -10 OFFCURVE",
"208 -10 CURVE SMOOTH"
);
},
{
closed = 1;
nodes = (
"86 0 LINE",
"99 0 OFFCURVE",
"110 9 OFFCURVE",
"113 22 CURVE",
"252 678 LINE",
"255 691 OFFCURVE",
"248 700 OFFCURVE",
"235 700 CURVE",
"216 700 LINE",
"203 700 OFFCURVE",
"192 691 OFFCURVE",
"189 678 CURVE",
"50 22 LINE",
"47 9 OFFCURVE",
"54 0 OFFCURVE",
"67 0 CURVE"
);
}
);
width = 589;
},
{
hints = (
{
horizontal = 1;
place = "{-2147483648, 0}";
type = Tag;
name = hr01;
}
);
layerId = "EC64484B-0978-4CB1-9EE9-C40A2D8C4059";
paths = (
{
closed = 1;
nodes = (
"577 -10 OFFCURVE",
"719 45 OFFCURVE",
"764 258 CURVE SMOOTH",
"852 673 LINE SMOOTH",
"855 688 OFFCURVE",
"846 700 OFFCURVE",
"831 700 CURVE SMOOTH",
"626 700 LINE SMOOTH",
"611 700 OFFCURVE",
"596 688 OFFCURVE",
"593 673 CURVE",
"514 298 LINE SMOOTH",
"498 227 OFFCURVE",
"471 205 OFFCURVE",
"415 205 CURVE SMOOTH",
"400 205 OFFCURVE",
"385 193 OFFCURVE",
"382 178 CURVE SMOOTH",
"348 17 LINE SMOOTH",
"345 2 OFFCURVE",
"354 -10 OFFCURVE",
"369 -10 CURVE SMOOTH"
);
},
{
closed = 1;
nodes = (
"237 0 LINE SMOOTH",
"252 0 OFFCURVE",
"267 12 OFFCURVE",
"270 27 CURVE SMOOTH",
"407 673 LINE SMOOTH",
"410 688 OFFCURVE",
"401 700 OFFCURVE",
"386 700 CURVE SMOOTH",
"182 700 LINE SMOOTH",
"167 700 OFFCURVE",
"152 688 OFFCURVE",
"149 673 CURVE SMOOTH",
"12 27 LINE SMOOTH",
"9 12 OFFCURVE",
"18 0 OFFCURVE",
"33 0 CURVE SMOOTH"
);
}
);
width = 807;
}
);
leftKerningGroup = I;
unicode = 0132;
userData = {
com.typemytype.robofont.guides = (
{
angle = 90;
isGlobal = 0;
magnetic = 5;
x = 642;
y = 0;
}
);
com.typemytype.robofont.mark = (
1,
0.6000,
0.6000,
1
);
};
},
{
glyphname = Iogonek;
lastChange = "2016-01-20 15:26:13 +0000";
layers = (
{
guideLines = (
{
angle = 90;
position = "{-40, 0}";
}
);
hints = (
{
horizontal = 1;
place = "{-150, 0}";
type = Tag;
name = hr01;
}
);
layerId = "581BC726-83A6-4935-8633-5A6508251040";
paths = (
{
closed = 1;
nodes = (
"57 -220 LINE SMOOTH",
"70 -220 OFFCURVE",
"81 -211 OFFCURVE",
"84 -198 CURVE SMOOTH",
"87 -185 LINE SMOOTH",
"90 -172 OFFCURVE",
"83 -163 OFFCURVE",
"70 -163 CURVE SMOOTH",
"55 -163 LINE SMOOTH",
"11 -163 OFFCURVE",
"-15 -133 OFFCURVE",
"-4 -82 CURVE SMOOTH",
"7 -31 OFFCURVE",
"45 0 OFFCURVE",
"89 0 CURVE SMOOTH",
"104 0 LINE SMOOTH",
"117 0 OFFCURVE",
"128 9 OFFCURVE",
"131 22 CURVE SMOOTH",
"270 678 LINE SMOOTH",
"273 691 OFFCURVE",
"266 700 OFFCURVE",
"253 700 CURVE SMOOTH",
"234 700 LINE SMOOTH",
"221 700 OFFCURVE",
"210 691 OFFCURVE",
"207 678 CURVE SMOOTH",
"79 74 LINE",
"78 71 OFFCURVE",
"77 67 OFFCURVE",
"77 64 CURVE",
"75 55 LINE",
"5 46 OFFCURVE",
"-48 -5 OFFCURVE",
"-64 -82 CURVE SMOOTH",
"-82 -167 OFFCURVE",
"-43 -220 OFFCURVE",
"38 -220 CURVE SMOOTH"
);
}
);
width = 269;
},
{
hints = (
{
horizontal = 1;
place = "{-2147483648, 0}";
type = Tag;
name = hr01;
}
);
layerId = "EC64484B-0978-4CB1-9EE9-C40A2D8C4059";
paths = (
{
closed = 1;
nodes = (
"190 -222 LINE SMOOTH",
"205 -222 OFFCURVE",
"220 -210 OFFCURVE",
"223 -195 CURVE SMOOTH",
"237 -127 LINE SMOOTH",
"240 -112 OFFCURVE",
"231 -100 OFFCURVE",
"216 -100 CURVE SMOOTH",
"206 -100 LINE",
"167 -100 OFFCURVE",
"162 -71 OFFCURVE",
"167 -50 CURVE SMOOTH",
"171 -29 OFFCURVE",
"188 0 OFFCURVE",
"227 0 CURVE SMOOTH",
"237 0 LINE SMOOTH",
"252 0 OFFCURVE",
"267 12 OFFCURVE",
"270 27 CURVE SMOOTH",
"407 673 LINE SMOOTH",
"410 688 OFFCURVE",
"401 700 OFFCURVE",
"386 700 CURVE SMOOTH",
"182 700 LINE SMOOTH",
"167 700 OFFCURVE",
"152 688 OFFCURVE",
"149 673 CURVE SMOOTH",
"12 27 LINE SMOOTH",
"9 12 OFFCURVE",
"18 0 OFFCURVE",
"33 0 CURVE SMOOTH",
"56 0 LINE",
"50 -16 OFFCURVE",
"44 -32 OFFCURVE",
"41 -50 CURVE SMOOTH",
"20 -145 OFFCURVE",
"55 -222 OFFCURVE",
"176 -222 CURVE SMOOTH"
);
}
);
width = 368;
}
);
leftKerningGroup = I;
rightKerningGroup = I;
unicode = 012E;
userData = {
com.typemytype.robofont.guides = (
{
angle = 90;
isGlobal = 0;
magnetic = 5;
x = 110;
y = 0;
}
);
};
},
{
glyphname = J;
lastChange = "2016-01-20 15:26:12 +0000";
layers = (
{
guideLines = (
{
position = "{-150, -10}";
},
{
position = "{-150, 133}";
},
{
position = "{-150, 677}";
},
{
angle = 90;
position = "{153, 0}";
},
{
angle = 90;
position = "{-90, 0}";
},
{
angle = 90;
position = "{-59, 0}";
}
);
hints = (
{
horizontal = 1;
place = "{105, 0}";
type = Tag;
name = hr00;
}
);
layerId = "581BC726-83A6-4935-8633-5A6508251040";
paths = (
{
closed = 1;
nodes = (
"394 -10 OFFCURVE",
"502 99 OFFCURVE",
"535 255 CURVE",
"625 677 LINE SMOOTH",
"628 691 OFFCURVE",
"621 700 OFFCURVE",
"607 700 CURVE SMOOTH",
"198 700 LINE SMOOTH",
"185 700 OFFCURVE",
"174 691 OFFCURVE",
"171 678 CURVE SMOOTH",
"168 662 LINE SMOOTH",
"165 649 OFFCURVE",
"172 640 OFFCURVE",
"185 640 CURVE SMOOTH",
"554 640 LINE",
"473 256 LINE SMOOTH",
"447 135 OFFCURVE",
"367 50 OFFCURVE",
"250 50 CURVE SMOOTH",
"158 50 OFFCURVE",
"87 91 OFFCURVE",
"101 195 CURVE SMOOTH",
"102 207 OFFCURVE",
"96 216 OFFCURVE",
"83 216 CURVE SMOOTH",
"63 216 LINE SMOOTH",
"49 216 OFFCURVE",
"40 206 OFFCURVE",
"37 194 CURVE SMOOTH",
"12 52 OFFCURVE",
"107 -10 OFFCURVE",
"237 -10 CURVE SMOOTH"
);
}
);
width = 618;
},
{
guideLines = (
{
position = "{350, -10}";
},
{
angle = 90;
position = "{774, 0}";
},
{
angle = 90;
position = "{657, 0}";
},
{
angle = 90;
position = "{520, 0}";
}
);
hints = (
{
horizontal = 1;
place = "{-2147483648, 0}";
type = Tag;
name = hr00;
}
);
layerId = "EC64484B-0978-4CB1-9EE9-C40A2D8C4059";
paths = (
{
closed = 1;
nodes = (
"458 -10 OFFCURVE",
"620 73 OFFCURVE",
"659 258 CURVE SMOOTH",
"747 673 LINE SMOOTH",
"750 688 OFFCURVE",
"741 700 OFFCURVE",
"726 700 CURVE SMOOTH",
"197 700 LINE SMOOTH",
"182 700 OFFCURVE",
"167 688 OFFCURVE",
"164 673 CURVE SMOOTH",
"133 524 LINE SMOOTH",
"129 509 OFFCURVE",
"139 497 OFFCURVE",
"154 497 CURVE SMOOTH",
"451 497 LINE",
"402 266 LINE SMOOTH",
"389 205 OFFCURVE",
"362 185 OFFCURVE",
"326 185 CURVE SMOOTH",
"293 185 OFFCURVE",
"283 198 OFFCURVE",
"276 225 CURVE SMOOTH",
"271 247 OFFCURVE",
"264 257 OFFCURVE",
"242 257 CURVE SMOOTH",
"38 257 LINE SMOOTH",
"26 257 OFFCURVE",
"14 247 OFFCURVE",
"11 235 CURVE SMOOTH",
"-19 78 OFFCURVE",
"111 -10 OFFCURVE",
"276 -10 CURVE SMOOTH"
);
}
);
width = 702;
}
);
leftKerningGroup = J;
rightKerningGroup = U;
unicode = 004A;
userData = {
com.typemytype.robofont.guides = (
{
angle = 0;
isGlobal = 0;
magnetic = 5;
x = 0;
y = "-10";
},
{
angle = 0;
isGlobal = 0;
magnetic = 5;
x = 0;
y = 133;
},
{
angle = 0;
isGlobal = 0;
magnetic = 5;
x = 0;
y = 677;
},
{
angle = 90;
isGlobal = 0;
magnetic = 5;
x = 303;
y = 0;
},
{
angle = 90;
isGlobal = 0;
magnetic = 5;
x = 60;
y = 0;
},
{
angle = 90;
isGlobal = 0;
magnetic = 5;
x = 91;
y = 0;
}
);
};
},
{
glyphname = K;
lastChange = "2016-01-20 15:26:13 +0000";
layers = (
{
guideLines = (
{
position = "{-150, 365}";
},
{
angle = 90;
position = "{397, 0}";
},
{
angle = 90;
position = "{-56, 0}";
},
{
angle = 90;
position = "{-11, 0}";
}
);
hints = (
{
horizontal = 1;
place = "{527, 0}";
type = Tag;
name = hr00;
}
);
layerId = "581BC726-83A6-4935-8633-5A6508251040";
paths = (
{
closed = 1;
nodes = (
"85 0 LINE SMOOTH",
"99 0 OFFCURVE",
"110 9 OFFCURVE",
"113 22 CURVE SMOOTH",
"174 311 LINE",
"435 15 LINE SMOOTH",
"440 11 OFFCURVE",
"449 0 OFFCURVE",
"470 0 CURVE SMOOTH",
"487 0 LINE SMOOTH",
"498 0 OFFCURVE",
"509 9 OFFCURVE",
"511 20 CURVE SMOOTH",
"512 24 OFFCURVE",
"512 29 OFFCURVE",
"508 34 CURVE SMOOTH",
"219 365 LINE",
"622 667 LINE SMOOTH",
"627 671 OFFCURVE",
"629 676 OFFCURVE",
"630 680 CURVE SMOOTH",
"632 691 OFFCURVE",
"625 700 OFFCURVE",
"614 700 CURVE SMOOTH",
"598 700 LINE SMOOTH",
"577 700 OFFCURVE",
"563 689 OFFCURVE",
"557 685 CURVE SMOOTH",
"197 417 LINE",
"252 677 LINE SMOOTH",
"255 691 OFFCURVE",
"248 700 OFFCURVE",
"234 700 CURVE SMOOTH",
"216 700 LINE SMOOTH",
"203 700 OFFCURVE",
"192 691 OFFCURVE",
"189 677 CURVE SMOOTH",
"50 22 LINE SMOOTH",
"47 9 OFFCURVE",
"54 0 OFFCURVE",
"67 0 CURVE SMOOTH"
);
}
);
width = 575;
},
{
hints = (
{
horizontal = 1;
place = "{-2147483648, 0}";
type = Tag;
name = hr00;
}
);
layerId = "EC64484B-0978-4CB1-9EE9-C40A2D8C4059";
paths = (
{
closed = 1;
nodes = (
"224 0 LINE SMOOTH",
"239 0 OFFCURVE",
"254 12 OFFCURVE",
"257 27 CURVE SMOOTH",
"302 241 LINE",
"378 23 LINE SMOOTH",
"380 17 OFFCURVE",
"387 0 OFFCURVE",
"414 0 CURVE SMOOTH",
"642 0 LINE SMOOTH",
"654 0 OFFCURVE",
"666 10 OFFCURVE",
"669 22 CURVE SMOOTH",
"670 25 OFFCURVE",
"670 30 OFFCURVE",
"668 33 CURVE SMOOTH",
"542 365 LINE",
"786 667 LINE SMOOTH",
"789 670 OFFCURVE",
"790 674 OFFCURVE",
"791 678 CURVE SMOOTH",
"794 690 OFFCURVE",
"786 700 OFFCURVE",
"774 700 CURVE SMOOTH",
"553 700 LINE SMOOTH",
"531 700 OFFCURVE",
"517 689 OFFCURVE",
"508 678 CURVE SMOOTH",
"352 475 LINE",
"394 673 LINE SMOOTH",
"397 688 OFFCURVE",
"388 700 OFFCURVE",
"373 700 CURVE SMOOTH",
"182 700 LINE SMOOTH",
"167 700 OFFCURVE",
"152 688 OFFCURVE",
"149 673 CURVE SMOOTH",
"12 27 LINE SMOOTH",
"9 12 OFFCURVE",
"18 0 OFFCURVE",
"33 0 CURVE SMOOTH"
);
}
);
width = 715;
}
);
leftKerningGroup = I;
rightKerningGroup = K;
unicode = 004B;
userData = {
com.typemytype.robofont.guides = (
{
angle = 0;
isGlobal = 0;
magnetic = 5;
x = 0;
y = 365;
},
{
angle = 90;
isGlobal = 0;
magnetic = 5;
x = 547;
y = 0;
},
{
angle = 90;
isGlobal = 0;
magnetic = 5;
x = 94;
y = 0;
},
{
angle = 90;
isGlobal = 0;
magnetic = 5;
x = 139;
y = 0;
}
);
};
},
{
glyphname = L;
lastChange = "2016-01-20 15:26:12 +0000";
layers = (
{
hints = (
{
horizontal = 1;
place = "{528, 0}";
type = Tag;
name = hr00;
}
);
layerId = "581BC726-83A6-4935-8633-5A6508251040";
paths = (
{
closed = 1;
nodes = (
"453 0 LINE",
"467 0 OFFCURVE",
"478 9 OFFCURVE",
"481 22 CURVE",
"484 37 LINE",
"487 51 OFFCURVE",
"480 60 OFFCURVE",
"466 60 CURVE",
"121 60 LINE",
"252 678 LINE",
"255 691 OFFCURVE",
"248 700 OFFCURVE",
"235 700 CURVE",
"216 700 LINE",
"203 700 OFFCURVE",
"192 691 OFFCURVE",
"189 678 CURVE",
"50 22 LINE",
"47 9 OFFCURVE",
"54 0 OFFCURVE",
"67 0 CURVE"
);
}
);
width = 548;
},
{
hints = (
{
horizontal = 1;
place = "{-2147483648, 0}";
type = Tag;
name = hr00;
}
);
layerId = "EC64484B-0978-4CB1-9EE9-C40A2D8C4059";
paths = (
{
closed = 1;
nodes = (
"537 0 LINE SMOOTH",
"552 0 OFFCURVE",
"567 12 OFFCURVE",
"570 27 CURVE SMOOTH",
"602 178 LINE SMOOTH",
"605 193 OFFCURVE",
"596 205 OFFCURVE",
"581 205 CURVE SMOOTH",
"304 205 LINE",
"403 673 LINE SMOOTH",
"406 688 OFFCURVE",
"397 700 OFFCURVE",
"382 700 CURVE SMOOTH",
"182 700 LINE SMOOTH",
"167 700 OFFCURVE",
"152 688 OFFCURVE",
"149 673 CURVE SMOOTH",
"12 27 LINE SMOOTH",
"9 12 OFFCURVE",
"18 0 OFFCURVE",
"33 0 CURVE SMOOTH"
);
}
);
width = 626;
}
);
leftKerningGroup = I;
rightKerningGroup = L;
unicode = 004C;
},
{
glyphname = Lslash;
lastChange = "2016-01-20 15:26:13 +0000";
layers = (
{
guideLines = (
{
position = "{-150, 215}";
},
{
position = "{-150, 548}";
},
{
position = "{-150, 438}";
},
{
position = "{-150, 267}";
},
{
position = "{-150, 353}";
},
{
angle = 90;
position = "{-21, 0}";
},
{
angle = 90;
position = "{175, 0}";
},
{
angle = 90;
position = "{-155, 0}";
}
);
hints = (
{
horizontal = 1;
place = "{-150, 0}";
type = Tag;
name = hr00;
}
);
layerId = "581BC726-83A6-4935-8633-5A6508251040";
paths = (
{
closed = 1;
nodes = (
"462 0 LINE SMOOTH",
"475 0 OFFCURVE",
"486 9 OFFCURVE",
"489 22 CURVE SMOOTH",
"492 38 LINE SMOOTH",
"495 51 OFFCURVE",
"488 60 OFFCURVE",
"475 60 CURVE SMOOTH",
"129 60 LINE",
"184 317 LINE",
"351 377 LINE SMOOTH",
"369 383 OFFCURVE",
"375 387 OFFCURVE",
"379 402 CURVE SMOOTH",
"383 421 LINE SMOOTH",
"385 433 OFFCURVE",
"379 439 OFFCURVE",
"368 439 CURVE SMOOTH",
"364 439 OFFCURVE",
"359 438 OFFCURVE",
"354 436 CURVE SMOOTH",
"197 380 LINE",
"260 678 LINE SMOOTH",
"263 691 OFFCURVE",
"256 700 OFFCURVE",
"243 700 CURVE SMOOTH",
"224 700 LINE SMOOTH",
"211 700 OFFCURVE",
"200 691 OFFCURVE",
"197 678 CURVE SMOOTH",
"129 355 LINE",
"55 329 LINE SMOOTH",
"38 323 OFFCURVE",
"31 319 OFFCURVE",
"28 304 CURVE SMOOTH",
"24 285 LINE SMOOTH",
"21 273 OFFCURVE",
"28 267 OFFCURVE",
"39 267 CURVE SMOOTH",
"43 267 OFFCURVE",
"47 268 OFFCURVE",
"53 270 CURVE SMOOTH",
"115 292 LINE",
"58 22 LINE SMOOTH",
"55 9 OFFCURVE",
"62 0 OFFCURVE",
"75 0 CURVE SMOOTH"
);
}
);
width = 556;
},
{
guideLines = (
{
position = "{350, 215}";
},
{
position = "{350, 380}";
},
{
angle = 90;
position = "{415, 0}";
},
{
angle = 90;
position = "{365, 0}";
}
);
hints = (
{
horizontal = 1;
place = "{-2147483648, 0}";
type = Tag;
name = hr00;
}
);
layerId = "EC64484B-0978-4CB1-9EE9-C40A2D8C4059";
paths = (
{
closed = 1;
nodes = (
"545 0 LINE SMOOTH",
"560 0 OFFCURVE",
"575 12 OFFCURVE",
"578 27 CURVE SMOOTH",
"610 178 LINE SMOOTH",
"613 193 OFFCURVE",
"604 205 OFFCURVE",
"589 205 CURVE SMOOTH",
"312 205 LINE",
"337 325 LINE",
"505 386 LINE SMOOTH",
"523 392 OFFCURVE",
"530 401 OFFCURVE",
"534 419 CURVE SMOOTH",
"557 527 LINE SMOOTH",
"560 539 OFFCURVE",
"553 548 OFFCURVE",
"541 548 CURVE SMOOTH",
"539 548 OFFCURVE",
"534 547 OFFCURVE",
"529 545 CURVE SMOOTH",
"372 488 LINE",
"411 673 LINE SMOOTH",
"414 688 OFFCURVE",
"405 700 OFFCURVE",
"390 700 CURVE SMOOTH",
"190 700 LINE SMOOTH",
"175 700 OFFCURVE",
"160 688 OFFCURVE",
"157 673 CURVE SMOOTH",
"97 388 LINE",
"66 377 LINE SMOOTH",
"49 371 OFFCURVE",
"41 362 OFFCURVE",
"37 344 CURVE SMOOTH",
"14 236 LINE SMOOTH",
"12 224 OFFCURVE",
"19 215 OFFCURVE",
"31 215 CURVE SMOOTH",
"33 215 OFFCURVE",
"37 216 OFFCURVE",
"43 218 CURVE SMOOTH",
"62 225 LINE",
"20 27 LINE SMOOTH",
"17 12 OFFCURVE",
"26 0 OFFCURVE",
"41 0 CURVE SMOOTH"
);
}
);
width = 634;
}
);
leftKerningGroup = I;
rightKerningGroup = L;
unicode = 0141;
userData = {
com.typemytype.robofont.guides = (
{
angle = 0;
isGlobal = 0;
magnetic = 5;
x = 0;
y = 215;
},
{
angle = 0;
isGlobal = 0;
magnetic = 5;
x = 0;
y = 548;
},
{
angle = 0;
isGlobal = 0;
magnetic = 5;
x = 0;
y = 438;
},
{
angle = 0;
isGlobal = 0;
magnetic = 5;
x = 0;
y = 267;
},
{
angle = 0;
isGlobal = 0;
magnetic = 5;
x = 0;
y = 353;
},
{
angle = 90;
isGlobal = 0;
magnetic = 5;
x = 129;
y = 0;
},
{
angle = 90;
isGlobal = 0;
magnetic = 5;
x = 325;
y = 0;
},
{
angle = 90;
isGlobal = 0;
magnetic = 5;
x = "-5";
y = 0;
}
);
};
},
{
glyphname = M;
lastChange = "2016-01-20 15:26:12 +0000";
layers = (
{
guideLines = (
{
position = "{-150, 168}";
},
{
position = "{-150, 9}";
},
{
position = "{-150, 691}";
},
{
angle = 90;
position = "{-24, 0}";
},
{
angle = 90;
position = "{486, 0}";
}
);
hints = (
{
horizontal = 1;
place = "{18, 0}";
type = Tag;
name = hr00;
}
);
layerId = "581BC726-83A6-4935-8633-5A6508251040";
paths = (
{
closed = 1;
nodes = (
"86 0 LINE SMOOTH",
"99 0 OFFCURVE",
"110 9 OFFCURVE",
"113 22 CURVE SMOOTH",
"228 564 LINE",
"339 188 LINE SMOOTH",
"342 175 OFFCURVE",
"350 168 OFFCURVE",
"366 168 CURVE SMOOTH",
"388 168 LINE SMOOTH",
"404 168 OFFCURVE",
"414 175 OFFCURVE",
"423 188 CURVE SMOOTH",
"694 564 LINE",
"579 22 LINE SMOOTH",
"576 9 OFFCURVE",
"583 0 OFFCURVE",
"596 0 CURVE SMOOTH",
"614 0 LINE SMOOTH",
"628 0 OFFCURVE",
"639 9 OFFCURVE",
"642 22 CURVE SMOOTH",
"781 677 LINE SMOOTH",
"784 691 OFFCURVE",
"777 700 OFFCURVE",
"763 700 CURVE SMOOTH",
"739 700 LINE SMOOTH",
"726 700 OFFCURVE",
"718 691 OFFCURVE",
"715 687 CURVE SMOOTH",
"393 245 LINE",
"260 687 LINE SMOOTH",
"259 691 OFFCURVE",
"255 700 OFFCURVE",
"242 700 CURVE SMOOTH",
"217 700 LINE SMOOTH",
"203 700 OFFCURVE",
"192 691 OFFCURVE",
"189 677 CURVE SMOOTH",
"50 22 LINE SMOOTH",
"47 9 OFFCURVE",
"54 0 OFFCURVE",
"68 0 CURVE SMOOTH"
);
}
);
width = 780;
},
{
guideLines = (
{
position = "{350, 193}";
},
{
angle = 90;
position = "{788, 0}";
},
{
angle = 90;
position = "{823, 0}";
},
{
angle = 90;
position = "{753, 0}";
},
{
angle = 90;
position = "{650, 0}";
},
{
angle = 90;
position = "{926, 0}";
},
{
angle = 90;
position = "{600, 0}";
}
);
hints = (
{
horizontal = 1;
place = "{-2147483648, 0}";
type = Tag;
name = hr00;
}
);
layerId = "EC64484B-0978-4CB1-9EE9-C40A2D8C4059";
paths = (
{
closed = 1;
nodes = (
"214 0 LINE SMOOTH",
"229 0 OFFCURVE",
"244 12 OFFCURVE",
"247 27 CURVE SMOOTH",
"305 301 LINE",
"348 193 LINE SMOOTH",
"353 182 OFFCURVE",
"360 168 OFFCURVE",
"380 168 CURVE SMOOTH",
"450 168 LINE SMOOTH",
"470 168 OFFCURVE",
"483 182 OFFCURVE",
"492 193 CURVE SMOOTH",
"581 301 LINE",
"523 27 LINE SMOOTH",
"520 12 OFFCURVE",
"529 0 OFFCURVE",
"544 0 CURVE SMOOTH",
"725 0 LINE SMOOTH",
"740 0 OFFCURVE",
"755 12 OFFCURVE",
"758 27 CURVE SMOOTH",
"895 673 LINE SMOOTH",
"898 688 OFFCURVE",
"889 700 OFFCURVE",
"874 700 CURVE SMOOTH",
"716 700 LINE SMOOTH",
"689 700 OFFCURVE",
"673 680 OFFCURVE",
"667 673 CURVE SMOOTH",
"471 433 LINE",
"377 673 LINE SMOOTH",
"375 680 OFFCURVE",
"367 700 OFFCURVE",
"340 700 CURVE SMOOTH",
"182 700 LINE SMOOTH",
"167 700 OFFCURVE",
"152 688 OFFCURVE",
"149 673 CURVE SMOOTH",
"12 27 LINE SMOOTH",
"9 12 OFFCURVE",
"18 0 OFFCURVE",
"33 0 CURVE SMOOTH"
);
}
);
width = 856;
}
);
leftKerningGroup = I;
rightKerningGroup = I;
unicode = 004D;
userData = {
com.typemytype.robofont.guides = (
{
angle = 0;
isGlobal = 0;
magnetic = 5;
x = 0;
y = 168;
},
{
angle = 0;
isGlobal = 0;
magnetic = 5;
x = 0;
y = 9;
},
{
angle = 0;
isGlobal = 0;
magnetic = 5;
x = 0;
y = 691;
},
{
angle = 90;
isGlobal = 0;
magnetic = 5;
x = 126;
y = 0;
},
{
angle = 90;
isGlobal = 0;
magnetic = 5;
x = 636;
y = 0;
}
);
};
},
{
glyphname = N;
lastChange = "2016-01-20 15:26:13 +0000";
layers = (
{
guideLines = (
{
position = "{-150, 9}";
},
{
position = "{-150, 691}";
},
{
angle = 90;
position = "{390, 0}";
},
{
angle = 90;
position = "{-25, 0}";
}
);
hints = (
{
horizontal = 1;
place = "{-138, 0}";
type = Tag;
name = hr00;
}
);
layerId = "581BC726-83A6-4935-8633-5A6508251040";
paths = (
{
closed = 1;
nodes = (
"85 0 LINE SMOOTH",
"99 0 OFFCURVE",
"110 9 OFFCURVE",
"113 22 CURVE SMOOTH",
"230 574 LINE",
"479 12 LINE",
"480 9 OFFCURVE",
"484 0 OFFCURVE",
"497 0 CURVE SMOOTH",
"519 0 LINE SMOOTH",
"532 0 OFFCURVE",
"543 9 OFFCURVE",
"546 23 CURVE SMOOTH",
"685 677 LINE SMOOTH",
"688 691 OFFCURVE",
"681 700 OFFCURVE",
"667 700 CURVE SMOOTH",
"649 700 LINE SMOOTH",
"636 700 OFFCURVE",
"625 691 OFFCURVE",
"622 677 CURVE SMOOTH",
"505 124 LINE",
"255 688 LINE SMOOTH",
"254 691 OFFCURVE",
"250 700 OFFCURVE",
"237 700 CURVE SMOOTH",
"216 700 LINE SMOOTH",
"203 700 OFFCURVE",
"192 691 OFFCURVE",
"189 677 CURVE SMOOTH",
"50 22 LINE SMOOTH",
"47 9 OFFCURVE",
"54 0 OFFCURVE",
"67 0 CURVE SMOOTH"
);
}
);
width = 684;
},
{
guideLines = (
{
angle = 90;
position = "{810, 0}";
},
{
angle = 90;
position = "{650, 0}";
}
);
hints = (
{
horizontal = 1;
place = "{-2147483648, 0}";
type = Tag;
name = hr00;
}
);
layerId = "EC64484B-0978-4CB1-9EE9-C40A2D8C4059";
paths = (
{
closed = 1;
nodes = (
"214 0 LINE SMOOTH",
"229 0 OFFCURVE",
"244 12 OFFCURVE",
"247 27 CURVE SMOOTH",
"300 278 LINE",
"415 23 LINE SMOOTH",
"418 17 OFFCURVE",
"424 0 OFFCURVE",
"451 0 CURVE SMOOTH",
"609 0 LINE SMOOTH",
"624 0 OFFCURVE",
"639 12 OFFCURVE",
"642 27 CURVE SMOOTH",
"779 673 LINE SMOOTH",
"782 688 OFFCURVE",
"773 700 OFFCURVE",
"758 700 CURVE SMOOTH",
"577 700 LINE SMOOTH",
"562 700 OFFCURVE",
"547 688 OFFCURVE",
"544 673 CURVE SMOOTH",
"486 400 LINE",
"376 677 LINE SMOOTH",
"374 684 OFFCURVE",
"367 700 OFFCURVE",
"340 700 CURVE SMOOTH",
"182 700 LINE SMOOTH",
"167 700 OFFCURVE",
"152 688 OFFCURVE",
"149 673 CURVE SMOOTH",
"12 27 LINE SMOOTH",
"9 12 OFFCURVE",
"18 0 OFFCURVE",
"33 0 CURVE SMOOTH"
);
}
);
width = 740;
}
);
leftKerningGroup = I;
rightKerningGroup = I;
unicode = 004E;
userData = {
com.typemytype.robofont.guides = (
{
angle = 0;
isGlobal = 0;
magnetic = 5;
x = 0;
y = 9;
},
{
angle = 0;
isGlobal = 0;
magnetic = 5;
x = 0;
y = 691;
},
{
angle = 90;
isGlobal = 0;
magnetic = 5;
x = 540;
y = 0;
},
{
angle = 90;
isGlobal = 0;
magnetic = 5;
x = 125;
y = 0;
}
);
};
},
{
glyphname = Eng;
lastChange = "2016-01-20 15:26:13 +0000";
layers = (
{
hints = (
{
horizontal = 1;
place = "{-207, 0}";
type = Tag;
name = hr00;
}
);
layerId = "581BC726-83A6-4935-8633-5A6508251040";
paths = (
{
closed = 1;
nodes = (
"342 -225 LINE",
"467 -225 OFFCURVE",
"509 -151 OFFCURVE",
"529 -57 CURVE",
"685 677 LINE",
"688 691 OFFCURVE",
"681 700 OFFCURVE",
"667 700 CURVE",
"649 700 LINE",
"636 700 OFFCURVE",
"625 691 OFFCURVE",
"622 677 CURVE",
"505 124 LINE",
"255 688 LINE",
"254 691 OFFCURVE",
"250 700 OFFCURVE",
"237 700 CURVE",
"216 700 LINE",
"203 700 OFFCURVE",
"192 691 OFFCURVE",
"189 677 CURVE",
"50 22 LINE",
"47 9 OFFCURVE",
"54 0 OFFCURVE",
"67 0 CURVE",
"85 0 LINE",
"99 0 OFFCURVE",
"110 9 OFFCURVE",
"113 22 CURVE",
"230 574 LINE",
"480 8 LINE",
"466 -57 LINE",
"453 -118 OFFCURVE",
"431 -165 OFFCURVE",
"355 -165 CURVE",
"351 -165 LINE",
"338 -165 OFFCURVE",
"327 -174 OFFCURVE",
"324 -187 CURVE",
"321 -203 LINE",
"318 -216 OFFCURVE",
"325 -225 OFFCURVE",
"338 -225 CURVE"
);
}
);
width = 684;
},
{
guideLines = (
{
position = "{350, 26}";
}
);
hints = (
{
horizontal = 1;
place = "{-2147483648, 0}";
type = Tag;
name = hr00;
}
);
layerId = "EC64484B-0978-4CB1-9EE9-C40A2D8C4059";
paths = (
{
closed = 1;
nodes = (
"262 -225 LINE SMOOTH",
"444 -225 OFFCURVE",
"605 -145 OFFCURVE",
"642 26 CURVE SMOOTH",
"779 673 LINE SMOOTH",
"782 688 OFFCURVE",
"773 700 OFFCURVE",
"758 700 CURVE SMOOTH",
"577 700 LINE SMOOTH",
"562 700 OFFCURVE",
"547 688 OFFCURVE",
"544 673 CURVE SMOOTH",
"486 400 LINE",
"376 677 LINE SMOOTH",
"374 684 OFFCURVE",
"367 700 OFFCURVE",
"340 700 CURVE SMOOTH",
"182 700 LINE SMOOTH",
"167 700 OFFCURVE",
"152 688 OFFCURVE",
"149 673 CURVE SMOOTH",
"12 27 LINE SMOOTH",
"9 12 OFFCURVE",
"18 0 OFFCURVE",
"33 0 CURVE SMOOTH",
"214 0 LINE SMOOTH",
"229 0 OFFCURVE",
"244 12 OFFCURVE",
"247 27 CURVE SMOOTH",
"300 278 LINE",
"409 38 LINE",
"409 36 LINE",
"402 2 OFFCURVE",
"373 -22 OFFCURVE",
"330 -22 CURVE SMOOTH",
"290 -22 LINE SMOOTH",
"275 -22 OFFCURVE",
"260 -34 OFFCURVE",
"257 -49 CURVE",
"225 -198 LINE SMOOTH",
"222 -213 OFFCURVE",
"231 -225 OFFCURVE",
"246 -225 CURVE SMOOTH"
);
}
);
width = 740;
}
);
leftKerningGroup = I;
rightKerningGroup = I;
unicode = 014A;
},
{
glyphname = O;
lastChange = "2016-01-20 15:26:12 +0000";
layers = (
{
guideLines = (
{
position = "{-150, -10}";
},
{
position = "{-150, 710}";
},
{
position = "{-150, 335}";
},
{
position = "{-150, 434}";
},
{
position = "{-150, 266}";
},
{
angle = 90;
position = "{346, 0}";
}
);
hints = (
{
horizontal = 1;
place = "{560, 0}";
type = Tag;
name = hr00;
}
);
layerId = "581BC726-83A6-4935-8633-5A6508251040";
paths = (
{
closed = 1;
nodes = (
"446 -10 OFFCURVE",
"558 77 OFFCURVE",
"603 266 CURVE SMOOTH",
"618 326 OFFCURVE",
"628 374 OFFCURVE",
"638 434 CURVE SMOOTH",
"673 620 OFFCURVE",
"589 710 OFFCURVE",
"433 710 CURVE SMOOTH",
"277 710 OFFCURVE",
"155 620 OFFCURVE",
"110 434 CURVE SMOOTH",
"96 374 OFFCURVE",
"86 326 OFFCURVE",
"75 266 CURVE SMOOTH",
"40 77 OFFCURVE",
"114 -10 OFFCURVE",
"280 -10 CURVE SMOOTH"
);
},
{
closed = 1;
nodes = (
"179 50 OFFCURVE",
"111 115 OFFCURVE",
"139 271 CURVE SMOOTH",
"150 331 OFFCURVE",
"158 369 OFFCURVE",
"172 429 CURVE SMOOTH",
"211 585 OFFCURVE",
"307 650 OFFCURVE",
"420 650 CURVE SMOOTH",
"533 650 OFFCURVE",
"603 585 OFFCURVE",
"574 429 CURVE SMOOTH",
"564 369 OFFCURVE",
"556 331 OFFCURVE",
"541 271 CURVE SMOOTH",
"503 115 OFFCURVE",
"407 50 OFFCURVE",
"293 50 CURVE SMOOTH"
);
}
);
width = 662;
},
{
guideLines = (
{
position = "{350, -10}";
},
{
position = "{350, 710}";
},
{
position = "{350, 515}";
},
{
position = "{350, 434}";
}
);
hints = (
{
horizontal = 1;
place = "{-2147483648, 0}";
type = Tag;
name = hr00;
}
);
layerId = "EC64484B-0978-4CB1-9EE9-C40A2D8C4059";
paths = (
{
closed = 1;
nodes = (
"516 -10 OFFCURVE",
"665 81 OFFCURVE",
"711 260 CURVE SMOOTH",
"725 314 OFFCURVE",
"739 379 OFFCURVE",
"749 436 CURVE SMOOTH",
"779 611 OFFCURVE",
"669 710 OFFCURVE",
"473 710 CURVE SMOOTH",
"277 710 OFFCURVE",
"125 611 OFFCURVE",
"81 436 CURVE SMOOTH",
"67 379 OFFCURVE",
"53 314 OFFCURVE",
"43 260 CURVE SMOOTH",
"13 81 OFFCURVE",
"124 -10 OFFCURVE",
"320 -10 CURVE SMOOTH"
);
},
{
closed = 1;
nodes = (
"318 185 OFFCURVE",
"295 210 OFFCURVE",
"305 266 CURVE SMOOTH",
"315 323 OFFCURVE",
"327 379 OFFCURVE",
"340 434 CURVE SMOOTH",
"354 490 OFFCURVE",
"389 515 OFFCURVE",
"432 515 CURVE SMOOTH",
"475 515 OFFCURVE",
"498 490 OFFCURVE",
"488 434 CURVE SMOOTH",
"479 379 OFFCURVE",
"467 323 OFFCURVE",
"453 266 CURVE SMOOTH",
"439 210 OFFCURVE",
"406 185 OFFCURVE",
"362 185 CURVE SMOOTH"
);
}
);
width = 742;
}
);
leftKerningGroup = O;
rightKerningGroup = O;
unicode = 004F;
userData = {
com.typemytype.robofont.guides = (
{
angle = 0;
isGlobal = 0;
magnetic = 5;
x = 0;
y = "-10";
},
{
angle = 0;
isGlobal = 0;
magnetic = 5;
x = 0;
y = 710;
},
{
angle = 0;
isGlobal = 0;
magnetic = 5;
x = 0;
y = 335;
},
{
angle = 0;
isGlobal = 0;
magnetic = 5;
x = 0;
y = 434;
},
{
angle = 0;
isGlobal = 0;
magnetic = 5;
x = 0;
y = 266;
},
{
angle = 90;
isGlobal = 0;
magnetic = 5;
x = 496;
y = 0;
}
);
};
},
{
glyphname = Oslash;
lastChange = "2016-01-20 15:26:12 +0000";
layers = (
{
guideLines = (
{
position = "{-150, 145}";
},
{
angle = 90;
position = "{201, 0}";
},
{
angle = 90;
position = "{529, 0}";
},
{
angle = 90;
position = "{-65, 0}";
},
{
angle = 90;
position = "{-130, 0}";
}
);
hints = (
{
horizontal = 1;
place = "{560, 0}";
type = Tag;
name = hr00;
}
);
layerId = "581BC726-83A6-4935-8633-5A6508251040";
paths = (
{
closed = 1;
nodes = (
"457 -10 OFFCURVE",
"569 77 OFFCURVE",
"614 266 CURVE SMOOTH",
"628 323 OFFCURVE",
"638 370 OFFCURVE",
"648 427 CURVE",
"693 443 LINE SMOOTH",
"711 449 OFFCURVE",
"717 453 OFFCURVE",
"721 468 CURVE SMOOTH",
"725 487 LINE SMOOTH",
"727 499 OFFCURVE",
"721 505 OFFCURVE",
"710 505 CURVE SMOOTH",
"706 505 OFFCURVE",
"701 504 OFFCURVE",
"696 502 CURVE SMOOTH",
"656 488 LINE",
"666 637 OFFCURVE",
"584 710 OFFCURVE",
"444 710 CURVE SMOOTH",
"288 710 OFFCURVE",
"166 620 OFFCURVE",
"121 434 CURVE SMOOTH",
"108 380 OFFCURVE",
"98 336 OFFCURVE",
"89 284 CURVE",
"41 267 LINE SMOOTH",
"24 261 OFFCURVE",
"17 257 OFFCURVE",
"14 242 CURVE SMOOTH",
"10 223 LINE SMOOTH",
"7 211 OFFCURVE",
"14 205 OFFCURVE",
"25 205 CURVE SMOOTH",
"29 205 OFFCURVE",
"33 206 OFFCURVE",
"38 208 CURVE SMOOTH",
"79 222 LINE",
"63 63 OFFCURVE",
"138 -10 OFFCURVE",
"291 -10 CURVE SMOOTH"
);
},
{
closed = 1;
nodes = (
"196 50 OFFCURVE",
"129 108 OFFCURVE",
"145 246 CURVE",
"581 403 LINE",
"572 357 OFFCURVE",
"564 322 OFFCURVE",
"552 271 CURVE SMOOTH",
"514 115 OFFCURVE",
"418 50 OFFCURVE",
"304 50 CURVE SMOOTH"
);
},
{
closed = 1;
nodes = (
"163 349 OFFCURVE",
"172 383 OFFCURVE",
"183 429 CURVE SMOOTH",
"222 585 OFFCURVE",
"318 650 OFFCURVE",
"431 650 CURVE SMOOTH",
"535 650 OFFCURVE",
"602 595 OFFCURVE",
"590 464 CURVE",
"156 309 LINE"
);
}
);
width = 682;
},
{
hints = (
{
horizontal = 1;
place = "{-2147483648, 0}";
type = Tag;
name = hr00;
}
);
layerId = "EC64484B-0978-4CB1-9EE9-C40A2D8C4059";
paths = (
{
closed = 1;
nodes = (
"538 -10 OFFCURVE",
"687 81 OFFCURVE",
"733 260 CURVE",
"744 305 OFFCURVE",
"757 359 OFFCURVE",
"766 409 CURVE",
"788 417 LINE",
"805 423 OFFCURVE",
"813 432 OFFCURVE",
"817 450 CURVE",
"840 558 LINE",
"842 570 OFFCURVE",
"835 579 OFFCURVE",
"823 579 CURVE SMOOTH",
"821 579 OFFCURVE",
"817 578 OFFCURVE",
"812 576 CURVE",
"766 559 LINE",
"736 656 OFFCURVE",
"638 710 OFFCURVE",
"495 710 CURVE SMOOTH",
"299 710 OFFCURVE",
"147 611 OFFCURVE",
"103 436 CURVE SMOOTH",
"92 395 OFFCURVE",
"83 351 OFFCURVE",
"74 309 CURVE",
"49 300 LINE",
"32 294 OFFCURVE",
"24 285 OFFCURVE",
"20 267 CURVE",
"-3 159 LINE",
"-6 147 OFFCURVE",
"2 138 OFFCURVE",
"14 138 CURVE SMOOTH",
"16 138 OFFCURVE",
"20 139 OFFCURVE",
"25 141 CURVE",
"65 155 LINE",
"87 45 OFFCURVE",
"188 -10 OFFCURVE",
"342 -10 CURVE SMOOTH"
);
},
{
closed = 1;
nodes = (
"344 185 OFFCURVE",
"322 205 OFFCURVE",
"324 249 CURVE",
"484 307 LINE",
"481 293 OFFCURVE",
"478 280 OFFCURVE",
"475 266 CURVE SMOOTH",
"461 210 OFFCURVE",
"428 185 OFFCURVE",
"384 185 CURVE SMOOTH"
);
},
{
closed = 1;
nodes = (
"358 418 OFFCURVE",
"360 426 OFFCURVE",
"362 434 CURVE",
"376 490 OFFCURVE",
"411 515 OFFCURVE",
"454 515 CURVE SMOOTH",
"487 515 OFFCURVE",
"508 500 OFFCURVE",
"511 467 CURVE",
"357 411 LINE"
);
}
);
width = 780;
}
);
leftKerningGroup = O;
rightKerningGroup = O;
unicode = 00D8;
userData = {
com.typemytype.robofont.guides = (
{
angle = 0;
isGlobal = 0;
magnetic = 5;
x = 0;
y = 145;
},
{
angle = 90;
isGlobal = 0;
magnetic = 5;
x = 351;
y = 0;
},
{
angle = 90;
isGlobal = 0;
magnetic = 5;
x = 679;
y = 0;
},
{
angle = 90;
isGlobal = 0;
magnetic = 5;
x = 85;
y = 0;
},
{
angle = 90;
isGlobal = 0;
magnetic = 5;
x = 20;
y = 0;
}
);
};
},
{
glyphname = OE;
lastChange = "2016-01-20 15:26:13 +0000";
layers = (
{
guideLines = (
{
angle = 90;
position = "{692, 0}";
},
{
angle = 90;
position = "{-84, 0}";
},
{
angle = 90;
position = "{289, 0}";
},
{
angle = 90;
position = "{352, 0}";
}
);
hints = (
{
horizontal = 1;
place = "{-150, 0}";
type = Tag;
name = hr00;
}
);
layerId = "581BC726-83A6-4935-8633-5A6508251040";
paths = (
{
closed = 1;
nodes = (
"774 0 LINE",
"788 0 OFFCURVE",
"799 9 OFFCURVE",
"802 22 CURVE",
"805 37 LINE",
"808 51 OFFCURVE",
"801 60 OFFCURVE",
"787 60 CURVE",
"470 60 LINE",
"526 325 LINE",
"813 325 LINE",
"827 325 OFFCURVE",
"838 334 OFFCURVE",
"841 347 CURVE",
"844 362 LINE",
"847 376 OFFCURVE",
"840 385 OFFCURVE",
"826 385 CURVE",
"539 385 LINE",
"593 640 LINE",
"902 640 LINE",
"916 640 OFFCURVE",
"927 649 OFFCURVE",
"930 662 CURVE",
"933 677 LINE",
"936 691 OFFCURVE",
"929 700 OFFCURVE",
"915 700 CURVE",
"448 700 LINE",
"236 700 OFFCURVE",
"153 604 OFFCURVE",
"113 430 CURVE SMOOTH",
"99 370 OFFCURVE",
"91 331 OFFCURVE",
"79 271 CURVE SMOOTH",
"44 87 OFFCURVE",
"88 0 OFFCURVE",
"294 0 CURVE"
);
},
{
closed = 1;
nodes = (
"153 60 OFFCURVE",
"113 120 OFFCURVE",
"143 276 CURVE SMOOTH",
"155 336 OFFCURVE",
"161 365 OFFCURVE",
"175 425 CURVE SMOOTH",
"209 571 OFFCURVE",
"280 640 OFFCURVE",
"440 640 CURVE",
"530 640 LINE",
"407 60 LINE",
"312 60 LINE"
);
}
);
width = 900;
},
{
guideLines = (
{
angle = 90;
position = "{772, 0}";
},
{
angle = 90;
position = "{398, 0}";
}
);
hints = (
{
horizontal = 1;
place = "{-2147483648, 0}";
type = Tag;
name = hr00;
}
);
layerId = "EC64484B-0978-4CB1-9EE9-C40A2D8C4059";
paths = (
{
closed = 1;
nodes = (
"888 0 LINE",
"903 0 OFFCURVE",
"918 12 OFFCURVE",
"921 27 CURVE",
"951 168 LINE",
"954 183 OFFCURVE",
"945 195 OFFCURVE",
"930 195 CURVE",
"642 195 LINE",
"655 258 LINE",
"913 258 LINE",
"928 258 OFFCURVE",
"943 270 OFFCURVE",
"946 285 CURVE",
"973 415 LINE",
"977 430 OFFCURVE",
"967 442 OFFCURVE",
"952 442 CURVE",
"694 442 LINE",
"708 505 LINE",
"988 505 LINE",
"1003 505 OFFCURVE",
"1017 517 OFFCURVE",
"1020 532 CURVE",
"1050 673 LINE",
"1053 688 OFFCURVE",
"1044 700 OFFCURVE",
"1029 700 CURVE",
"469 700 LINE",
"282 700 OFFCURVE",
"122 604 OFFCURVE",
"77 425 CURVE SMOOTH",
"62 368 OFFCURVE",
"54 330 OFFCURVE",
"45 276 CURVE SMOOTH",
"13 87 OFFCURVE",
"124 0 OFFCURVE",
"315 0 CURVE"
);
},
{
closed = 1;
nodes = (
"318 195 OFFCURVE",
"290 220 OFFCURVE",
"299 276 CURVE SMOOTH",
"308 333 OFFCURVE",
"316 370 OFFCURVE",
"331 425 CURVE SMOOTH",
"345 481 OFFCURVE",
"388 505 OFFCURVE",
"433 505 CURVE",
"469 505 LINE",
"403 195 LINE",
"362 195 LINE"
);
}
);
width = 1002;
}
);
leftKerningGroup = O;
rightKerningGroup = E;
unicode = 0152;
userData = {
com.typemytype.robofont.guides = (
{
angle = 90;
isGlobal = 0;
magnetic = 5;
x = 842;
y = 0;
},
{
angle = 90;
isGlobal = 0;
magnetic = 5;
x = 66;
y = 0;
},
{
angle = 90;
isGlobal = 0;
magnetic = 5;
x = 439;
y = 0;
},
{
angle = 90;
isGlobal = 0;
magnetic = 5;
x = 502;
y = 0;
}
);
};
},
{
glyphname = P;
lastChange = "2016-08-29 13:39:12 +0000";
layers = (
{
guideLines = (
{
position = "{-150, 493}";
},
{
position = "{-150, 403}";
},
{
position = "{-150, 218}";
},
{
position = "{-150, 310}";
},
{
position = "{-150, 9}";
},
{
position = "{-150, 691}";
},
{
angle = 90;
position = "{195, 0}";
},
{
angle = 90;
position = "{-56, 0}";
},
{
angle = 90;
position = "{-11, 0}";
}
);
hints = (
{
horizontal = 1;
place = "{450, 0}";
type = Tag;
name = hr00;
}
);
layerId = "581BC726-83A6-4935-8633-5A6508251040";
paths = (
{
closed = 1;
nodes = (
"85 0 LINE SMOOTH",
"99 0 OFFCURVE",
"110 9 OFFCURVE",
"113 22 CURVE SMOOTH",
"169 286 LINE",
"371 286 LINE SMOOTH",
"511 286 OFFCURVE",
"616 357 OFFCURVE",
"645 493 CURVE SMOOTH",
"674 629 OFFCURVE",
"599 700 OFFCURVE",
"459 700 CURVE SMOOTH",
"216 700 LINE SMOOTH",
"203 700 OFFCURVE",
"192 691 OFFCURVE",
"189 677 CURVE SMOOTH",
"50 22 LINE SMOOTH",
"47 9 OFFCURVE",
"54 0 OFFCURVE",
"67 0 CURVE SMOOTH"
);
},
{
closed = 1;
nodes = (
"244 640 LINE",
"441 640 LINE SMOOTH",
"557 640 OFFCURVE",
"602 588 OFFCURVE",
"582 493 CURVE SMOOTH",
"562 398 OFFCURVE",
"495 346 OFFCURVE",
"379 346 CURVE SMOOTH",
"182 346 LINE"
);
}
);
width = 628;
},
{
background = {
paths = (
{
closed = 1;
nodes = (
"239 0 LINE SMOOTH",
"254 0 OFFCURVE",
"269 12 OFFCURVE",
"272 27 CURVE SMOOTH",
"312 218 LINE",
"382 218 LINE SMOOTH",
"563 218 OFFCURVE",
"698 289 OFFCURVE",
"734 455 CURVE SMOOTH",
"770 621 OFFCURVE",
"666 700 OFFCURVE",
"485 700 CURVE SMOOTH",
"182 700 LINE SMOOTH",
"167 700 OFFCURVE",
"152 688 OFFCURVE",
"149 673 CURVE SMOOTH",
"12 27 LINE SMOOTH",
"9 12 OFFCURVE",
"18 0 OFFCURVE",
"33 0 CURVE SMOOTH"
);
},
{
closed = 1;
nodes = (
"370 514 LINE",
"440 514 LINE SMOOTH",
"476 514 OFFCURVE",
"479 482 OFFCURVE",
"474 457 CURVE SMOOTH",
"466 418 OFFCURVE",
"438 403 OFFCURVE",
"417 403 CURVE SMOOTH",
"347 403 LINE"
);
}
);
};
guideLines = (
{
position = "{350, 459}";
},
{
angle = 90;
position = "{740, 0}";
}
);
layerId = "EC64484B-0978-4CB1-9EE9-C40A2D8C4059";
paths = (
{
closed = 1;
nodes = (
"239 0 LINE SMOOTH",
"254 0 OFFCURVE",
"269 12 OFFCURVE",
"272 27 CURVE SMOOTH",
"313 218 LINE",
"383 218 LINE SMOOTH",
"564 218 OFFCURVE",
"699 289 OFFCURVE",
"734 455 CURVE SMOOTH",
"769 621 OFFCURVE",
"666 700 OFFCURVE",
"485 700 CURVE SMOOTH",
"182 700 LINE SMOOTH",
"167 700 OFFCURVE",
"152 688 OFFCURVE",
"149 673 CURVE SMOOTH",
"12 27 LINE SMOOTH",
"9 12 OFFCURVE",
"18 0 OFFCURVE",
"33 0 CURVE SMOOTH"
);
},
{
closed = 1;
nodes = (
"370 514 LINE",
"440 514 LINE SMOOTH",
"476 514 OFFCURVE",
"480 482 OFFCURVE",
"474 457 CURVE SMOOTH",
"466 418 OFFCURVE",
"438 403 OFFCURVE",
"417 403 CURVE SMOOTH",
"347 403 LINE"
);
}
);
width = 705;
}
);
leftKerningGroup = I;
unicode = 0050;
userData = {
com.typemytype.robofont.guides = (
{
angle = 0;
isGlobal = 0;
magnetic = 5;
x = 0;
y = 493;
},
{
angle = 0;
isGlobal = 0;
magnetic = 5;
x = 0;
y = 403;
},
{
angle = 0;
isGlobal = 0;
magnetic = 5;
x = 0;
y = 218;
},
{
angle = 0;
isGlobal = 0;
magnetic = 5;
x = 0;
y = 310;
},
{
angle = 0;
isGlobal = 0;
magnetic = 5;
x = 0;
y = 9;
},
{
angle = 0;
isGlobal = 0;
magnetic = 5;
x = 0;
y = 691;
},
{
angle = 90;
isGlobal = 0;
magnetic = 5;
x = 345;
y = 0;
},
{
angle = 90;
isGlobal = 0;
magnetic = 5;
x = 94;
y = 0;
},
{
angle = 90;
isGlobal = 0;
magnetic = 5;
x = 139;
y = 0;
}
);
};
},
{
glyphname = Thorn;
lastChange = "2016-01-20 15:26:12 +0000";
layers = (
{
guideLines = (
{
position = "{-150, 119}";
},
{
position = "{-150, 601}";
},
{
position = "{-150, 570}";
},
{
position = "{-150, 350}";
}
);
hints = (
{
horizontal = 1;
place = "{528, 0}";
type = Tag;
name = hr00;
}
);
layerId = "581BC726-83A6-4935-8633-5A6508251040";
paths = (
{
closed = 1;
nodes = (
"85 0 LINE",
"99 0 OFFCURVE",
"110 9 OFFCURVE",
"113 22 CURVE",
"139 143 LINE",
"341 143 LINE",
"481 143 OFFCURVE",
"586 214 OFFCURVE",
"615 350 CURVE SMOOTH",
"644 486 OFFCURVE",
"569 557 OFFCURVE",
"429 557 CURVE",
"227 557 LINE",
"252 678 LINE",
"255 691 OFFCURVE",
"248 700 OFFCURVE",
"235 700 CURVE",
"216 700 LINE",
"203 700 OFFCURVE",
"192 691 OFFCURVE",
"189 678 CURVE",
"50 22 LINE",
"47 9 OFFCURVE",
"54 0 OFFCURVE",
"67 0 CURVE"
);
},
{
closed = 1;
nodes = (
"214 497 LINE",
"411 497 LINE",
"527 497 OFFCURVE",
"572 445 OFFCURVE",
"552 350 CURVE SMOOTH",
"531 255 OFFCURVE",
"464 203 OFFCURVE",
"348 203 CURVE",
"151 203 LINE"
);
}
);
width = 633;
},
{
guideLines = (
{
position = "{350, 119}";
},
{
position = "{350, 601}";
}
);
hints = (
{
horizontal = 1;
place = "{-2147483648, 0}";
type = Tag;
name = hr00;
}
);
layerId = "EC64484B-0978-4CB1-9EE9-C40A2D8C4059";
paths = (
{
closed = 1;
nodes = (
"239 0 LINE SMOOTH",
"254 0 OFFCURVE",
"269 12 OFFCURVE",
"272 27 CURVE SMOOTH",
"292 119 LINE",
"357 119 LINE SMOOTH",
"543 119 OFFCURVE",
"678 190 OFFCURVE",
"713 356 CURVE SMOOTH",
"748 522 OFFCURVE",
"645 601 OFFCURVE",
"459 601 CURVE",
"394 601 LINE",
"409 673 LINE SMOOTH",
"412 688 OFFCURVE",
"403 700 OFFCURVE",
"388 700 CURVE SMOOTH",
"182 700 LINE",
"167 700 OFFCURVE",
"152 688 OFFCURVE",
"149 673 CURVE SMOOTH",
"12 27 LINE SMOOTH",
"9 12 OFFCURVE",
"18 0 OFFCURVE",
"33 0 CURVE SMOOTH"
);
},
{
closed = 1;
nodes = (
"349 415 LINE",
"419 415 LINE SMOOTH",
"455 415 OFFCURVE",
"459 383 OFFCURVE",
"453 358 CURVE SMOOTH",
"445 319 OFFCURVE",
"417 304 OFFCURVE",
"396 304 CURVE SMOOTH",
"326 304 LINE"
);
}
);
width = 705;
}
);
leftKerningGroup = I;
unicode = 00DE;
userData = {
com.typemytype.robofont.guides = (
{
angle = 0;
isGlobal = 0;
magnetic = 5;
x = 0;
y = 119;
},
{
angle = 0;
isGlobal = 0;
magnetic = 5;
x = 0;
y = 601;
},
{
angle = 0;
isGlobal = 0;
magnetic = 5;
x = 0;
y = 570;
},
{
angle = 0;
isGlobal = 0;
magnetic = 5;
x = 0;
y = 350;
}
);
};
},
{
glyphname = Q;
lastChange = "2016-01-20 15:26:13 +0000";
layers = (
{
guideLines = (
{
position = "{-150, 710}";
},
{
position = "{-150, -10}";
},
{
position = "{-150, -56}";
},
{
angle = 90;
position = "{-68, 0}";
},
{
angle = 90;
position = "{600, 0}";
},
{
angle = 90;
position = "{430, 0}";
}
);
hints = (
{
horizontal = 1;
place = "{560, 0}";
type = Tag;
name = hr00;
}
);
layerId = "581BC726-83A6-4935-8633-5A6508251040";
paths = (
{
closed = 1;
nodes = (
"506 -65 LINE",
"517 -65 OFFCURVE",
"528 -56 OFFCURVE",
"531 -45 CURVE SMOOTH",
"532 -39 OFFCURVE",
"531 -36 OFFCURVE",
"530 -34 CURVE",
"485 56 LINE",
"541 101 OFFCURVE",
"580 171 OFFCURVE",
"603 266 CURVE SMOOTH",
"618 326 OFFCURVE",
"628 374 OFFCURVE",
"638 434 CURVE SMOOTH",
"673 620 OFFCURVE",
"589 710 OFFCURVE",
"433 710 CURVE SMOOTH",
"277 710 OFFCURVE",
"155 620 OFFCURVE",
"110 434 CURVE SMOOTH",
"96 374 OFFCURVE",
"86 326 OFFCURVE",
"75 266 CURVE SMOOTH",
"40 77 OFFCURVE",
"114 -10 OFFCURVE",
"280 -10 CURVE SMOOTH",
"335 -10 OFFCURVE",
"383 0 OFFCURVE",
"426 19 CURVE",
"457 -42 LINE",
"462 -50 OFFCURVE",
"469 -65 OFFCURVE",
"484 -65 CURVE"
);
},
{
closed = 1;
nodes = (
"179 50 OFFCURVE",
"111 115 OFFCURVE",
"139 271 CURVE SMOOTH",
"150 331 OFFCURVE",
"158 369 OFFCURVE",
"172 429 CURVE SMOOTH",
"211 585 OFFCURVE",
"307 650 OFFCURVE",
"420 650 CURVE SMOOTH",
"533 650 OFFCURVE",
"603 585 OFFCURVE",
"574 429 CURVE SMOOTH",
"564 369 OFFCURVE",
"556 331 OFFCURVE",
"541 271 CURVE SMOOTH",
"503 115 OFFCURVE",
"407 50 OFFCURVE",
"293 50 CURVE SMOOTH"
);
}
);
width = 662;
},
{
guideLines = (
{
position = "{350, 710}";
},
{
position = "{350, -10}";
},
{
position = "{350, -42}";
},
{
angle = 90;
position = "{397, 0}";
},
{
angle = 90;
position = "{1065, 0}";
}
);
hints = (
{
horizontal = 1;
place = "{-2147483648, 0}";
type = Tag;
name = hr01;
}
);
layerId = "EC64484B-0978-4CB1-9EE9-C40A2D8C4059";
paths = (
{
closed = 1;
nodes = (
"631 -65 LINE",
"643 -65 OFFCURVE",
"656 -55 OFFCURVE",
"656 -43 CURVE SMOOTH",
"657 -40 OFFCURVE",
"656 -36 OFFCURVE",
"655 -34 CURVE",
"600 79 LINE",
"652 123 OFFCURVE",
"690 184 OFFCURVE",
"710 260 CURVE SMOOTH",
"724 314 OFFCURVE",
"738 379 OFFCURVE",
"748 436 CURVE SMOOTH",
"778 611 OFFCURVE",
"668 710 OFFCURVE",
"472 710 CURVE SMOOTH",
"276 710 OFFCURVE",
"124 611 OFFCURVE",
"80 436 CURVE SMOOTH",
"66 379 OFFCURVE",
"52 314 OFFCURVE",
"42 260 CURVE SMOOTH",
"12 81 OFFCURVE",
"123 -10 OFFCURVE",
"319 -10 CURVE SMOOTH",
"339 -10 OFFCURVE",
"359 -9 OFFCURVE",
"378 -7 CURVE",
"398 -42 LINE",
"403 -50 OFFCURVE",
"410 -65 OFFCURVE",
"435 -65 CURVE"
);
},
{
closed = 1;
nodes = (
"317 185 OFFCURVE",
"294 210 OFFCURVE",
"304 266 CURVE SMOOTH",
"314 323 OFFCURVE",
"326 379 OFFCURVE",
"339 434 CURVE SMOOTH",
"353 490 OFFCURVE",
"388 515 OFFCURVE",
"431 515 CURVE SMOOTH",
"474 515 OFFCURVE",
"497 490 OFFCURVE",
"487 434 CURVE SMOOTH",
"478 379 OFFCURVE",
"466 323 OFFCURVE",
"452 266 CURVE SMOOTH",
"438 210 OFFCURVE",
"405 185 OFFCURVE",
"361 185 CURVE SMOOTH"
);
}
);
width = 742;
}
);
leftKerningGroup = O;
rightKerningGroup = O;
unicode = 0051;
userData = {
com.typemytype.robofont.guides = (
{
angle = 0;
isGlobal = 0;
magnetic = 5;
x = 0;
y = 710;
},
{
angle = 0;
isGlobal = 0;
magnetic = 5;
x = 0;
y = "-10";
},
{
angle = 0;
isGlobal = 0;
magnetic = 5;
x = 0;
y = "-56";
},
{
angle = 90;
isGlobal = 0;
magnetic = 5;
x = 82;
y = 0;
},
{
angle = 90;
isGlobal = 0;
magnetic = 5;
x = 750;
y = 0;
},
{
angle = 90;
isGlobal = 0;
magnetic = 5;
x = 580;
y = 0;
}
);
};
},
{
glyphname = R;
lastChange = "2016-01-20 15:26:13 +0000";
layers = (
{
guideLines = (
{
position = "{-150, 691}";
},
{
position = "{-150, 9}";
},
{
angle = 90;
position = "{466, 0}";
},
{
angle = 90;
position = "{424, 0}";
},
{
angle = 90;
position = "{-56, 0}";
},
{
angle = 90;
position = "{-11, 0}";
}
);
hints = (
{
horizontal = 1;
place = "{450, 0}";
type = Tag;
name = hr00;
}
);
layerId = "581BC726-83A6-4935-8633-5A6508251040";
paths = (
{
closed = 1;
nodes = (
"85 0 LINE SMOOTH",
"99 0 OFFCURVE",
"110 9 OFFCURVE",
"113 22 CURVE SMOOTH",
"171 296 LINE",
"377 296 LINE",
"479 27 LINE SMOOTH",
"484 13 OFFCURVE",
"489 0 OFFCURVE",
"511 0 CURVE SMOOTH",
"523 0 LINE SMOOTH",
"534 0 OFFCURVE",
"545 9 OFFCURVE",
"547 20 CURVE SMOOTH",
"548 24 OFFCURVE",
"548 27 OFFCURVE",
"547 31 CURVE SMOOTH",
"444 305 LINE",
"544 327 OFFCURVE",
"613 391 OFFCURVE",
"636 498 CURVE SMOOTH",
"665 634 OFFCURVE",
"589 700 OFFCURVE",
"449 700 CURVE SMOOTH",
"216 700 LINE SMOOTH",
"203 700 OFFCURVE",
"192 691 OFFCURVE",
"189 677 CURVE SMOOTH",
"50 22 LINE SMOOTH",
"47 9 OFFCURVE",
"54 0 OFFCURVE",
"67 0 CURVE SMOOTH"
);
},
{
closed = 1;
nodes = (
"244 640 LINE",
"431 640 LINE SMOOTH",
"547 640 OFFCURVE",
"593 593 OFFCURVE",
"573 498 CURVE SMOOTH",
"553 403 OFFCURVE",
"487 356 OFFCURVE",
"371 356 CURVE SMOOTH",
"184 356 LINE"
);
}
);
width = 640;
},
{
guideLines = (
{
angle = 90;
position = "{738, 0}";
},
{
angle = 90;
position = "{1044, 0}";
}
);
hints = (
{
horizontal = 1;
place = "{-2147483648, 0}";
type = Tag;
name = hr00;
}
);
layerId = "EC64484B-0978-4CB1-9EE9-C40A2D8C4059";
paths = (
{
closed = 1;
nodes = (
"229 0 LINE SMOOTH",
"244 0 OFFCURVE",
"259 12 OFFCURVE",
"262 27 CURVE SMOOTH",
"303 218 LINE",
"344 218 LINE",
"389 27 LINE SMOOTH",
"391 18 OFFCURVE",
"399 0 OFFCURVE",
"426 0 CURVE SMOOTH",
"631 0 LINE SMOOTH",
"643 0 OFFCURVE",
"655 10 OFFCURVE",
"658 22 CURVE SMOOTH",
"659 27 OFFCURVE",
"658 29 OFFCURVE",
"657 33 CURVE SMOOTH",
"583 261 LINE",
"654 301 OFFCURVE",
"713 367 OFFCURVE",
"732 457 CURVE SMOOTH",
"764 608 OFFCURVE",
"670 700 OFFCURVE",
"478 700 CURVE SMOOTH",
"182 700 LINE SMOOTH",
"167 700 OFFCURVE",
"152 688 OFFCURVE",
"149 673 CURVE SMOOTH",
"12 27 LINE SMOOTH",
"9 12 OFFCURVE",
"18 0 OFFCURVE",
"33 0 CURVE SMOOTH"
);
},
{
closed = 1;
nodes = (
"365 514 LINE",
"438 514 LINE SMOOTH",
"471 514 OFFCURVE",
"478 485 OFFCURVE",
"473 459 CURVE SMOOTH",
"467 432 OFFCURVE",
"447 408 OFFCURVE",
"416 408 CURVE SMOOTH",
"343 408 LINE"
);
}
);
width = 722;
}
);
leftKerningGroup = I;
rightKerningGroup = R;
unicode = 0052;
userData = {
com.typemytype.robofont.guides = (
{
angle = 0;
isGlobal = 0;
magnetic = 5;
x = 0;
y = 691;
},
{
angle = 0;
isGlobal = 0;
magnetic = 5;
x = 0;
y = 9;
},
{
angle = 90;
isGlobal = 0;
magnetic = 5;
x = 616;
y = 0;
},
{
angle = 90;
isGlobal = 0;
magnetic = 5;
x = 574;
y = 0;
},
{
angle = 90;
isGlobal = 0;
magnetic = 5;
x = 94;
y = 0;
},
{
angle = 90;
isGlobal = 0;
magnetic = 5;
x = 139;
y = 0;
}
);
};
},
{
glyphname = S;
lastChange = "2016-01-20 15:26:12 +0000";
layers = (
{
guideLines = (
{
position = "{-150, 355}";
},
{
angle = 90;
position = "{156, 0}";
}
);
hints = (
{
horizontal = 1;
place = "{560, 0}";
type = Tag;
name = hr00;
}
);
layerId = "581BC726-83A6-4935-8633-5A6508251040";
paths = (
{
closed = 1;
nodes = (
"408 -10 OFFCURVE",
"519 60 OFFCURVE",
"545 181 CURVE SMOOTH",
"568 291 OFFCURVE",
"505 329 OFFCURVE",
"365 377 CURVE SMOOTH",
"232 423 OFFCURVE",
"178 450 OFFCURVE",
"195 530 CURVE SMOOTH",
"212 612 OFFCURVE",
"289 650 OFFCURVE",
"388 650 CURVE SMOOTH",
"486 650 OFFCURVE",
"543 601 OFFCURVE",
"537 535 CURVE SMOOTH",
"536 519 OFFCURVE",
"548 515 OFFCURVE",
"555 515 CURVE SMOOTH",
"575 515 LINE SMOOTH",
"589 515 OFFCURVE",
"598 525 OFFCURVE",
"600 535 CURVE SMOOTH",
"613 612 OFFCURVE",
"559 710 OFFCURVE",
"401 710 CURVE SMOOTH",
"253 710 OFFCURVE",
"153 631 OFFCURVE",
"132 530 CURVE SMOOTH",
"108 420 OFFCURVE",
"163 379 OFFCURVE",
"296 333 CURVE SMOOTH",
"435 285 OFFCURVE",
"498 260 OFFCURVE",
"482 181 CURVE SMOOTH",
"465 101 OFFCURVE",
"396 50 OFFCURVE",
"266 50 CURVE SMOOTH",
"136 50 OFFCURVE",
"94 114 OFFCURVE",
"98 170 CURVE SMOOTH",
"99 181 OFFCURVE",
"94 190 OFFCURVE",
"81 190 CURVE SMOOTH",
"61 190 LINE SMOOTH",
"49 190 OFFCURVE",
"38 181 OFFCURVE",
"35 170 CURVE SMOOTH",
"19 79 OFFCURVE",
"91 -10 OFFCURVE",
"253 -10 CURVE SMOOTH"
);
}
);
width = 605;
},
{
guideLines = (
{
position = "{350, 710}";
},
{
position = "{350, -10}";
},
{
position = "{350, 487}";
},
{
position = "{350, 226}";
},
{
angle = 90;
position = "{-894, 0}";
}
);
hints = (
{
horizontal = 1;
place = "{-2147483648, 0}";
type = Tag;
name = hr01;
},
{
horizontal = 1;
place = "{-2147483648, 0}";
type = Tag;
name = hr02;
}
);
layerId = "EC64484B-0978-4CB1-9EE9-C40A2D8C4059";
paths = (
{
closed = 1;
nodes = (
"485 -10 OFFCURVE",
"647 80 OFFCURVE",
"678 226 CURVE SMOOTH",
"706 356 OFFCURVE",
"643 419 OFFCURVE",
"449 444 CURVE SMOOTH",
"361 455 OFFCURVE",
"343 468 OFFCURVE",
"347 487 CURVE SMOOTH",
"350 504 OFFCURVE",
"367 515 OFFCURVE",
"401 515 CURVE SMOOTH",
"429 515 OFFCURVE",
"444 503 OFFCURVE",
"450 497 CURVE SMOOTH",
"460 486 OFFCURVE",
"467 481 OFFCURVE",
"486 481 CURVE SMOOTH",
"686 481 LINE SMOOTH",
"697 481 OFFCURVE",
"710 491 OFFCURVE",
"712 503 CURVE SMOOTH",
"728 590 OFFCURVE",
"642 710 OFFCURVE",
"442 710 CURVE SMOOTH",
"260 710 OFFCURVE",
"117 616 OFFCURVE",
"88 480 CURVE SMOOTH",
"60 347 OFFCURVE",
"146 281 OFFCURVE",
"299 260 CURVE SMOOTH",
"396 247 OFFCURVE",
"424 237 OFFCURVE",
"418 213 CURVE SMOOTH",
"415 195 OFFCURVE",
"383 185 OFFCURVE",
"338 185 CURVE SMOOTH",
"305 185 OFFCURVE",
"284 193 OFFCURVE",
"268 208 CURVE SMOOTH",
"257 219 OFFCURVE",
"250 225 OFFCURVE",
"229 225 CURVE SMOOTH",
"39 225 LINE SMOOTH",
"27 225 OFFCURVE",
"15 215 OFFCURVE",
"12 203 CURVE SMOOTH",
"-8 92 OFFCURVE",
"75 -10 OFFCURVE",
"296 -10 CURVE SMOOTH"
);
}
);
width = 697;
}
);
leftKerningGroup = S;
rightKerningGroup = S;
unicode = 0053;
userData = {
com.typemytype.robofont.guides = (
{
angle = 0;
isGlobal = 0;
magnetic = 5;
x = 0;
y = 355;
},
{
angle = 90;
isGlobal = 0;
magnetic = 5;
x = 306;
y = 0;
}
);
};
},
{
glyphname = Scedilla;
lastChange = "2016-01-20 15:26:12 +0000";
layers = (
{
guideLines = (
{
angle = 90;
position = "{156, 0}";
}
);
hints = (
{
horizontal = 1;
place = "{560, 0}";
type = Tag;
name = hr00;
}
);
layerId = "581BC726-83A6-4935-8633-5A6508251040";
paths = (
{
closed = 1;
nodes = (
"268 -221 OFFCURVE",
"308 -180 OFFCURVE",
"318 -132 CURVE SMOOTH",
"328 -84 OFFCURVE",
"304 -50 OFFCURVE",
"260 -50 CURVE SMOOTH",
"245 -50 OFFCURVE",
"229 -53 OFFCURVE",
"220 -58 CURVE",
"253 -10 LINE",
"408 -10 OFFCURVE",
"519 60 OFFCURVE",
"545 181 CURVE SMOOTH",
"568 291 OFFCURVE",
"505 329 OFFCURVE",
"365 377 CURVE SMOOTH",
"232 423 OFFCURVE",
"178 450 OFFCURVE",
"195 530 CURVE SMOOTH",
"212 612 OFFCURVE",
"289 650 OFFCURVE",
"388 650 CURVE SMOOTH",
"486 650 OFFCURVE",
"543 601 OFFCURVE",
"537 535 CURVE SMOOTH",
"536 519 OFFCURVE",
"548 515 OFFCURVE",
"555 515 CURVE",
"575 515 LINE",
"589 515 OFFCURVE",
"598 525 OFFCURVE",
"600 535 CURVE SMOOTH",
"613 612 OFFCURVE",
"559 710 OFFCURVE",
"401 710 CURVE SMOOTH",
"253 710 OFFCURVE",
"153 631 OFFCURVE",
"132 530 CURVE SMOOTH",
"108 420 OFFCURVE",
"163 379 OFFCURVE",
"296 333 CURVE SMOOTH",
"435 285 OFFCURVE",
"498 260 OFFCURVE",
"482 181 CURVE SMOOTH",
"465 101 OFFCURVE",
"396 50 OFFCURVE",
"266 50 CURVE SMOOTH",
"136 50 OFFCURVE",
"94 114 OFFCURVE",
"98 170 CURVE SMOOTH",
"99 181 OFFCURVE",
"94 190 OFFCURVE",
"81 190 CURVE",
"61 190 LINE",
"49 190 OFFCURVE",
"38 181 OFFCURVE",
"35 170 CURVE SMOOTH",
"20 89 OFFCURVE",
"75 10 OFFCURVE",
"200 -6 CURVE",
"170 -53 LINE",
"164 -63 OFFCURVE",
"153 -75 OFFCURVE",
"159 -83 CURVE",
"171 -100 LINE",
"183 -116 OFFCURVE",
"200 -96 OFFCURVE",
"232 -96 CURVE SMOOTH",
"255 -96 OFFCURVE",
"272 -110 OFFCURVE",
"267 -134 CURVE SMOOTH",
"261 -159 OFFCURVE",
"238 -174 OFFCURVE",
"215 -174 CURVE SMOOTH",
"171 -174 OFFCURVE",
"171 -140 OFFCURVE",
"151 -156 CURVE",
"134 -169 LINE",
"115 -184 OFFCURVE",
"149 -219 OFFCURVE",
"205 -220 CURVE SMOOTH"
);
}
);
width = 605;
},
{
hints = (
{
horizontal = 1;
place = "{-2147483648, 0}";
type = Tag;
name = hr01;
}
);
layerId = "EC64484B-0978-4CB1-9EE9-C40A2D8C4059";
paths = (
{
closed = 1;
nodes = (
"309 -220 OFFCURVE",
"356 -183 OFFCURVE",
"368 -130 CURVE SMOOTH",
"379 -77 OFFCURVE",
"357 -40 OFFCURVE",
"306 -40 CURVE SMOOTH",
"302 -40 OFFCURVE",
"283 -42 OFFCURVE",
"275 -45 CURVE",
"300 -10 LINE",
"488 -8 OFFCURVE",
"647 81 OFFCURVE",
"678 226 CURVE SMOOTH",
"706 356 OFFCURVE",
"643 419 OFFCURVE",
"449 444 CURVE SMOOTH",
"361 455 OFFCURVE",
"343 468 OFFCURVE",
"347 487 CURVE SMOOTH",
"350 504 OFFCURVE",
"367 515 OFFCURVE",
"401 515 CURVE SMOOTH",
"429 515 OFFCURVE",
"444 503 OFFCURVE",
"450 497 CURVE SMOOTH",
"460 486 OFFCURVE",
"467 481 OFFCURVE",
"486 481 CURVE",
"686 481 LINE",
"697 481 OFFCURVE",
"710 491 OFFCURVE",
"712 503 CURVE SMOOTH",
"728 590 OFFCURVE",
"642 710 OFFCURVE",
"442 710 CURVE SMOOTH",
"260 710 OFFCURVE",
"117 616 OFFCURVE",
"88 480 CURVE SMOOTH",
"60 347 OFFCURVE",
"146 281 OFFCURVE",
"299 260 CURVE SMOOTH",
"396 247 OFFCURVE",
"424 237 OFFCURVE",
"418 213 CURVE SMOOTH",
"415 195 OFFCURVE",
"383 185 OFFCURVE",
"338 185 CURVE SMOOTH",
"305 185 OFFCURVE",
"284 193 OFFCURVE",
"268 208 CURVE SMOOTH",
"257 219 OFFCURVE",
"250 225 OFFCURVE",
"229 225 CURVE",
"39 225 LINE",
"27 225 OFFCURVE",
"15 215 OFFCURVE",
"12 203 CURVE SMOOTH",
"-7 102 OFFCURVE",
"60 9 OFFCURVE",
"238 -7 CURVE",
"208 -52 LINE",
"195 -71 OFFCURVE",
"196 -76 OFFCURVE",
"203 -85 CURVE",
"220 -106 LINE",
"230 -119 OFFCURVE",
"256 -106 OFFCURVE",
"274 -106 CURVE SMOOTH",
"294 -106 OFFCURVE",
"299 -118 OFFCURVE",
"297 -130 CURVE SMOOTH",
"294 -142 OFFCURVE",
"282 -154 OFFCURVE",
"263 -154 CURVE SMOOTH",
"229 -154 OFFCURVE",
"228 -136 OFFCURVE",
"208 -151 CURVE",
"183 -169 LINE",
"156 -189 OFFCURVE",
"196 -220 OFFCURVE",
"249 -220 CURVE SMOOTH"
);
}
);
width = 697;
}
);
leftKerningGroup = S;
rightKerningGroup = S;
unicode = 015E;
userData = {
com.typemytype.robofont.guides = (
{
angle = 90;
isGlobal = 0;
magnetic = 5;
x = 306;
y = 0;
}
);
};
},
{
glyphname = T;
lastChange = "2016-01-20 15:26:13 +0000";
layers = (
{
guideLines = (
{
position = "{-150, 495}";
},
{
position = "{-150, 9}";
},
{
position = "{-150, 691}";
},
{
position = "{-150, 649}";
},
{
angle = 90;
position = "{129, 0}";
},
{
angle = 90;
position = "{174, 0}";
},
{
angle = 90;
position = "{-91, 0}";
},
{
angle = 90;
position = "{394, 0}";
}
);
hints = (
{
horizontal = 1;
place = "{450, 0}";
type = Tag;
name = hr00;
}
);
layerId = "581BC726-83A6-4935-8633-5A6508251040";
paths = (
{
closed = 1;
nodes = (
"238 0 LINE SMOOTH",
"252 0 OFFCURVE",
"263 9 OFFCURVE",
"266 22 CURVE SMOOTH",
"397 640 LINE",
"594 640 LINE SMOOTH",
"608 640 OFFCURVE",
"619 649 OFFCURVE",
"622 662 CURVE SMOOTH",
"625 677 LINE SMOOTH",
"628 691 OFFCURVE",
"621 700 OFFCURVE",
"607 700 CURVE SMOOTH",
"149 700 LINE SMOOTH",
"136 700 OFFCURVE",
"125 691 OFFCURVE",
"122 677 CURVE SMOOTH",
"119 662 LINE SMOOTH",
"116 649 OFFCURVE",
"123 640 OFFCURVE",
"136 640 CURVE SMOOTH",
"334 640 LINE",
"203 22 LINE SMOOTH",
"200 9 OFFCURVE",
"207 0 OFFCURVE",
"220 0 CURVE SMOOTH"
);
}
);
width = 557;
},
{
guideLines = (
{
position = "{350, 495}";
}
);
hints = (
{
horizontal = 1;
place = "{-2147483648, 0}";
type = Tag;
name = hr00;
}
);
layerId = "EC64484B-0978-4CB1-9EE9-C40A2D8C4059";
paths = (
{
closed = 1;
nodes = (
"388 0 LINE SMOOTH",
"403 0 OFFCURVE",
"418 12 OFFCURVE",
"421 27 CURVE SMOOTH",
"518 485 LINE",
"684 485 LINE SMOOTH",
"699 485 OFFCURVE",
"714 497 OFFCURVE",
"717 512 CURVE SMOOTH",
"751 673 LINE SMOOTH",
"754 688 OFFCURVE",
"745 700 OFFCURVE",
"730 700 CURVE SMOOTH",
"144 700 LINE SMOOTH",
"129 700 OFFCURVE",
"114 688 OFFCURVE",
"111 673 CURVE SMOOTH",
"77 512 LINE SMOOTH",
"74 497 OFFCURVE",
"83 485 OFFCURVE",
"98 485 CURVE SMOOTH",
"264 485 LINE",
"167 27 LINE SMOOTH",
"164 12 OFFCURVE",
"173 0 OFFCURVE",
"188 0 CURVE SMOOTH"
);
}
);
width = 674;
}
);
leftKerningGroup = T;
rightKerningGroup = T;
unicode = 0054;
userData = {
com.typemytype.robofont.guides = (
{
angle = 0;
isGlobal = 0;
magnetic = 5;
x = 0;
y = 495;
},
{
angle = 0;
isGlobal = 0;
magnetic = 5;
x = 0;
y = 9;
},
{
angle = 0;
isGlobal = 0;
magnetic = 5;
x = 0;
y = 691;
},
{
angle = 0;
isGlobal = 0;
magnetic = 5;
x = 0;
y = 649;
},
{
angle = 90;
isGlobal = 0;
magnetic = 5;
x = 279;
y = 0;
},
{
angle = 90;
isGlobal = 0;
magnetic = 5;
x = 324;
y = 0;
},
{
angle = 90;
isGlobal = 0;
magnetic = 5;
x = 59;
y = 0;
},
{
angle = 90;
isGlobal = 0;
magnetic = 5;
x = 544;
y = 0;
}
);
};
},
{
glyphname = Tbar;
lastChange = "2016-01-20 15:26:13 +0000";
layers = (
{
guideLines = (
{
position = "{-150, 380}";
},
{
angle = 90;
position = "{151, 0}";
},
{
angle = 90;
position = "{-100, 0}";
}
);
hints = (
{
horizontal = 1;
place = "{260, 0}";
type = Tag;
name = hr00;
}
);
layerId = "581BC726-83A6-4935-8633-5A6508251040";
paths = (
{
closed = 1;
nodes = (
"243 0 LINE SMOOTH",
"257 0 OFFCURVE",
"268 9 OFFCURVE",
"271 22 CURVE SMOOTH",
"341 350 LINE",
"458 350 LINE SMOOTH",
"472 350 OFFCURVE",
"483 359 OFFCURVE",
"485 372 CURVE SMOOTH",
"488 387 LINE SMOOTH",
"491 401 OFFCURVE",
"484 410 OFFCURVE",
"470 410 CURVE SMOOTH",
"353 410 LINE",
"402 640 LINE",
"599 640 LINE SMOOTH",
"613 640 OFFCURVE",
"624 649 OFFCURVE",
"627 662 CURVE SMOOTH",
"630 677 LINE SMOOTH",
"633 691 OFFCURVE",
"626 700 OFFCURVE",
"612 700 CURVE SMOOTH",
"154 700 LINE SMOOTH",
"141 700 OFFCURVE",
"130 691 OFFCURVE",
"127 677 CURVE SMOOTH",
"124 662 LINE SMOOTH",
"121 649 OFFCURVE",
"128 640 OFFCURVE",
"141 640 CURVE SMOOTH",
"339 640 LINE",
"290 410 LINE",
"172 410 LINE SMOOTH",
"159 410 OFFCURVE",
"148 401 OFFCURVE",
"145 387 CURVE SMOOTH",
"142 372 LINE SMOOTH",
"140 359 OFFCURVE",
"147 350 OFFCURVE",
"160 350 CURVE SMOOTH",
"278 350 LINE",
"208 22 LINE SMOOTH",
"205 9 OFFCURVE",
"212 0 OFFCURVE",
"225 0 CURVE SMOOTH"
);
}
);
width = 567;
},
{
guideLines = (
{
position = "{350, 320}";
},
{
angle = 90;
position = "{700, 0}";
}
);
hints = (
{
horizontal = 1;
place = "{-2147483648, 0}";
type = Tag;
name = hr00;
}
);
layerId = "EC64484B-0978-4CB1-9EE9-C40A2D8C4059";
paths = (
{
closed = 1;
nodes = (
"392 0 LINE SMOOTH",
"407 0 OFFCURVE",
"422 12 OFFCURVE",
"425 27 CURVE SMOOTH",
"474 258 LINE",
"564 258 LINE SMOOTH",
"579 258 OFFCURVE",
"594 270 OFFCURVE",
"597 285 CURVE SMOOTH",
"612 356 LINE SMOOTH",
"615 371 OFFCURVE",
"606 383 OFFCURVE",
"591 383 CURVE SMOOTH",
"501 383 LINE",
"522 485 LINE",
"688 485 LINE SMOOTH",
"703 485 OFFCURVE",
"718 497 OFFCURVE",
"721 512 CURVE SMOOTH",
"755 673 LINE SMOOTH",
"758 688 OFFCURVE",
"749 700 OFFCURVE",
"734 700 CURVE SMOOTH",
"148 700 LINE SMOOTH",
"133 700 OFFCURVE",
"118 688 OFFCURVE",
"115 673 CURVE SMOOTH",
"81 512 LINE SMOOTH",
"78 497 OFFCURVE",
"87 485 OFFCURVE",
"102 485 CURVE SMOOTH",
"268 485 LINE",
"247 383 LINE",
"157 383 LINE SMOOTH",
"142 383 OFFCURVE",
"127 371 OFFCURVE",
"124 356 CURVE SMOOTH",
"109 285 LINE SMOOTH",
"106 270 OFFCURVE",
"115 258 OFFCURVE",
"130 258 CURVE SMOOTH",
"220 258 LINE",
"171 27 LINE SMOOTH",
"168 12 OFFCURVE",
"177 0 OFFCURVE",
"192 0 CURVE SMOOTH"
);
}
);
width = 682;
}
);
leftKerningGroup = T;
rightKerningGroup = T;
unicode = 0166;
userData = {
com.typemytype.robofont.guides = (
{
angle = 0;
isGlobal = 0;
magnetic = 5;
x = 0;
y = 380;
},
{
angle = 90;
isGlobal = 0;
magnetic = 5;
x = 301;
y = 0;
},
{
angle = 90;
isGlobal = 0;
magnetic = 5;
x = 50;
y = 0;
}
);
};
},
{
glyphname = U;
lastChange = "2016-01-20 15:26:12 +0000";
layers = (
{
guideLines = (
{
position = "{-150, 267}";
},
{
angle = 90;
position = "{183, 0}";
},
{
angle = 90;
position = "{385, 0}";
},
{
angle = 90;
position = "{430, 0}";
},
{
angle = 90;
position = "{-66, 0}";
},
{
angle = 90;
position = "{-21, 0}";
}
);
hints = (
{
horizontal = 1;
place = "{118, 0}";
type = Tag;
name = hr00;
}
);
layerId = "581BC726-83A6-4935-8633-5A6508251040";
paths = (
{
closed = 1;
nodes = (
"458 -10 OFFCURVE",
"571 77 OFFCURVE",
"612 271 CURVE",
"698 677 LINE",
"701 691 OFFCURVE",
"694 700 OFFCURVE",
"681 700 CURVE",
"663 700 LINE",
"649 700 OFFCURVE",
"638 691 OFFCURVE",
"635 677 CURVE",
"548 268 LINE",
"516 118 OFFCURVE",
"427 50 OFFCURVE",
"308 50 CURVE",
"188 50 OFFCURVE",
"127 118 OFFCURVE",
"159 268 CURVE",
"246 677 LINE",
"249 691 OFFCURVE",
"242 700 OFFCURVE",
"228 700 CURVE",
"210 700 LINE",
"197 700 OFFCURVE",
"186 691 OFFCURVE",
"183 677 CURVE",
"97 271 LINE",
"56 77 OFFCURVE",
"133 -10 OFFCURVE",
"295 -10 CURVE"
);
}
);
width = 691;
},
{
guideLines = (
{
position = "{350, -10}";
},
{
position = "{350, 268}";
},
{
angle = 90;
position = "{730, 0}";
}
);
hints = (
{
horizontal = 1;
place = "{-2147483648, 0}";
type = Tag;
name = hr00;
}
);
layerId = "EC64484B-0978-4CB1-9EE9-C40A2D8C4059";
paths = (
{
closed = 1;
nodes = (
"513 -10 OFFCURVE",
"664 75 OFFCURVE",
"704 264 CURVE SMOOTH",
"791 673 LINE SMOOTH",
"794 688 OFFCURVE",
"785 700 OFFCURVE",
"770 700 CURVE SMOOTH",
"574 700 LINE SMOOTH",
"559 700 OFFCURVE",
"544 688 OFFCURVE",
"541 673 CURVE SMOOTH",
"455 268 LINE SMOOTH",
"445 218 OFFCURVE",
"414 191 OFFCURVE",
"365 191 CURVE SMOOTH",
"316 191 OFFCURVE",
"297 218 OFFCURVE",
"307 268 CURVE SMOOTH",
"393 673 LINE SMOOTH",
"396 688 OFFCURVE",
"387 700 OFFCURVE",
"372 700 CURVE SMOOTH",
"176 700 LINE SMOOTH",
"161 700 OFFCURVE",
"146 688 OFFCURVE",
"143 673 CURVE SMOOTH",
"56 264 LINE SMOOTH",
"16 75 OFFCURVE",
"131 -10 OFFCURVE",
"323 -10 CURVE SMOOTH"
);
}
);
width = 746;
}
);
leftKerningGroup = U;
rightKerningGroup = U;
unicode = 0055;
userData = {
com.typemytype.robofont.guides = (
{
angle = 0;
isGlobal = 0;
magnetic = 5;
x = 0;
y = 267;
},
{
angle = 90;
isGlobal = 0;
magnetic = 5;
x = 333;
y = 0;
},
{
angle = 90;
isGlobal = 0;
magnetic = 5;
x = 535;
y = 0;
},
{
angle = 90;
isGlobal = 0;
magnetic = 5;
x = 580;
y = 0;
},
{
angle = 90;
isGlobal = 0;
magnetic = 5;
x = 84;
y = 0;
},
{
angle = 90;
isGlobal = 0;
magnetic = 5;
x = 129;
y = 0;
}
);
};
},
{
glyphname = Uogonek;
lastChange = "2016-01-20 15:26:12 +0000";
layers = (
{
guideLines = (
{
position = "{-150, -187}";
},
{
angle = 90;
position = "{182, 0}";
}
);
hints = (
{
horizontal = 1;
place = "{118, 0}";
type = Tag;
name = hr00;
}
);
layerId = "581BC726-83A6-4935-8633-5A6508251040";
paths = (
{
closed = 1;
nodes = (
"332 -220 LINE",
"345 -220 OFFCURVE",
"356 -211 OFFCURVE",
"359 -198 CURVE",
"362 -185 LINE",
"365 -172 OFFCURVE",
"358 -163 OFFCURVE",
"345 -163 CURVE",
"330 -163 LINE",
"286 -163 OFFCURVE",
"260 -133 OFFCURVE",
"271 -82 CURVE SMOOTH",
"282 -31 OFFCURVE",
"317 -14 OFFCURVE",
"362 -5 CURVE",
"489 16 OFFCURVE",
"577 105 OFFCURVE",
"612 271 CURVE",
"698 677 LINE",
"701 691 OFFCURVE",
"694 700 OFFCURVE",
"681 700 CURVE",
"663 700 LINE",
"649 700 OFFCURVE",
"638 691 OFFCURVE",
"635 677 CURVE",
"548 268 LINE",
"516 118 OFFCURVE",
"427 50 OFFCURVE",
"308 50 CURVE SMOOTH",
"188 50 OFFCURVE",
"127 118 OFFCURVE",
"159 268 CURVE",
"246 677 LINE",
"249 691 OFFCURVE",
"242 700 OFFCURVE",
"228 700 CURVE",
"210 700 LINE",
"197 700 OFFCURVE",
"186 691 OFFCURVE",
"183 677 CURVE",
"97 271 LINE",
"60 99 OFFCURVE",
"117 11 OFFCURVE",
"242 -6 CURVE",
"228 -24 OFFCURVE",
"218 -47 OFFCURVE",
"211 -82 CURVE SMOOTH",
"193 -167 OFFCURVE",
"232 -220 OFFCURVE",
"313 -220 CURVE"
);
}
);
width = 691;
},
{
guideLines = (
{
position = "{350, -220}";
},
{
angle = 90;
position = "{728, 0}";
}
);
hints = (
{
horizontal = 1;
place = "{-2147483648, 0}";
type = Tag;
name = hr01;
},
{
horizontal = 1;
place = "{-2147483648, 0}";
type = Tag;
name = hr02;
}
);
layerId = "EC64484B-0978-4CB1-9EE9-C40A2D8C4059";
paths = (
{
closed = 1;
nodes = (
"375 -220 LINE",
"390 -220 OFFCURVE",
"405 -208 OFFCURVE",
"408 -193 CURVE",
"423 -125 LINE",
"426 -110 OFFCURVE",
"416 -98 OFFCURVE",
"401 -98 CURVE",
"391 -98 LINE",
"352 -98 OFFCURVE",
"347 -70 OFFCURVE",
"352 -49 CURVE SMOOTH",
"356 -30 OFFCURVE",
"365 -11 OFFCURVE",
"398 -5 CURVE SMOOTH",
"552 21 OFFCURVE",
"669 100 OFFCURVE",
"704 264 CURVE",
"791 673 LINE",
"794 688 OFFCURVE",
"785 700 OFFCURVE",
"770 700 CURVE",
"574 700 LINE",
"559 700 OFFCURVE",
"544 688 OFFCURVE",
"541 673 CURVE",
"455 268 LINE",
"445 218 OFFCURVE",
"414 191 OFFCURVE",
"365 191 CURVE SMOOTH",
"316 191 OFFCURVE",
"297 218 OFFCURVE",
"307 268 CURVE",
"393 673 LINE",
"396 688 OFFCURVE",
"387 700 OFFCURVE",
"372 700 CURVE",
"176 700 LINE",
"161 700 OFFCURVE",
"146 688 OFFCURVE",
"143 673 CURVE",
"56 264 LINE",
"22 104 OFFCURVE",
"99 19 OFFCURVE",
"240 -3 CURVE",
"233 -18 OFFCURVE",
"229 -33 OFFCURVE",
"226 -49 CURVE SMOOTH",
"206 -144 OFFCURVE",
"240 -220 OFFCURVE",
"361 -220 CURVE"
);
}
);
width = 746;
}
);
leftKerningGroup = U;
rightKerningGroup = U;
unicode = 0172;
userData = {
com.typemytype.robofont.guides = (
{
angle = 0;
isGlobal = 0;
magnetic = 5;
x = 0;
y = "-187";
},
{
angle = 90;
isGlobal = 0;
magnetic = 5;
x = 332;
y = 0;
}
);
};
},
{
glyphname = V;
lastChange = "2016-01-20 15:26:12 +0000";
layers = (
{
guideLines = (
{
position = "{-150, 24}";
}
);
hints = (
{
horizontal = 1;
place = "{-77, 0}";
type = Tag;
name = hr00;
}
);
layerId = "581BC726-83A6-4935-8633-5A6508251040";
paths = (
{
closed = 1;
nodes = (
"284 0 LINE SMOOTH",
"302 0 OFFCURVE",
"314 8 OFFCURVE",
"323 24 CURVE SMOOTH",
"692 669 LINE SMOOTH",
"694 672 OFFCURVE",
"696 678 OFFCURVE",
"697 680 CURVE SMOOTH",
"699 691 OFFCURVE",
"692 700 OFFCURVE",
"681 700 CURVE SMOOTH",
"660 700 LINE SMOOTH",
"647 700 OFFCURVE",
"638 690 OFFCURVE",
"635 685 CURVE SMOOTH",
"286 73 LINE",
"197 685 LINE SMOOTH",
"196 690 OFFCURVE",
"191 700 OFFCURVE",
"178 700 CURVE SMOOTH",
"157 700 LINE SMOOTH",
"146 700 OFFCURVE",
"135 691 OFFCURVE",
"133 680 CURVE SMOOTH",
"132 678 OFFCURVE",
"132 672 OFFCURVE",
"132 669 CURVE SMOOTH",
"227 24 LINE SMOOTH",
"230 8 OFFCURVE",
"238 0 OFFCURVE",
"256 0 CURVE SMOOTH"
);
}
);
width = 638;
},
{
hints = (
{
horizontal = 1;
place = "{-2147483648, 0}";
type = Tag;
name = hr00;
}
);
layerId = "EC64484B-0978-4CB1-9EE9-C40A2D8C4059";
paths = (
{
closed = 1;
nodes = (
"428 0 LINE SMOOTH",
"455 0 OFFCURVE",
"473 18 OFFCURVE",
"480 33 CURVE SMOOTH",
"804 671 LINE SMOOTH",
"806 675 OFFCURVE",
"806 676 OFFCURVE",
"806 678 CURVE SMOOTH",
"809 690 OFFCURVE",
"801 700 OFFCURVE",
"789 700 CURVE SMOOTH",
"603 700 LINE SMOOTH",
"576 700 OFFCURVE",
"558 682 OFFCURVE",
"551 667 CURVE SMOOTH",
"377 295 LINE",
"361 667 LINE SMOOTH",
"360 682 OFFCURVE",
"350 700 OFFCURVE",
"323 700 CURVE SMOOTH",
"137 700 LINE SMOOTH",
"125 700 OFFCURVE",
"113 690 OFFCURVE",
"110 678 CURVE SMOOTH",
"110 676 OFFCURVE",
"110 675 OFFCURVE",
"110 671 CURVE SMOOTH",
"162 33 LINE SMOOTH",
"163 18 OFFCURVE",
"173 0 OFFCURVE",
"200 0 CURVE SMOOTH"
);
}
);
width = 726;
}
);
unicode = 0056;
userData = {
com.typemytype.robofont.guides = (
{
angle = 0;
isGlobal = 0;
magnetic = 5;
x = 0;
y = 24;
}
);
};
},
{
glyphname = W;
lastChange = "2016-01-20 15:26:12 +0000";
layers = (
{
guideLines = (
{
position = "{-150, 545}";
},
{
position = "{-150, 670}";
},
{
position = "{-150, 24}";
}
);
hints = (
{
horizontal = 1;
place = "{372, 0}";
type = Tag;
name = hr00;
}
);
layerId = "581BC726-83A6-4935-8633-5A6508251040";
paths = (
{
closed = 1;
nodes = (
"181 0 LINE",
"197 0 OFFCURVE",
"209 8 OFFCURVE",
"217 24 CURVE",
"440 446 LINE",
"483 24 LINE",
"485 8 OFFCURVE",
"493 0 OFFCURVE",
"509 0 CURVE",
"524 0 LINE",
"540 0 OFFCURVE",
"550 7 OFFCURVE",
"557 24 CURVE",
"831 668 LINE",
"833 673 OFFCURVE",
"835 678 OFFCURVE",
"836 680 CURVE SMOOTH",
"838 691 OFFCURVE",
"831 700 OFFCURVE",
"820 700 CURVE",
"799 700 LINE",
"786 700 OFFCURVE",
"778 694 OFFCURVE",
"774 685 CURVE",
"536 115 LINE",
"498 522 LINE",
"497 534 OFFCURVE",
"490 545 OFFCURVE",
"472 545 CURVE",
"450 545 LINE",
"432 545 OFFCURVE",
"421 534 OFFCURVE",
"414 522 CURVE",
"204 115 LINE",
"208 685 LINE",
"208 694 OFFCURVE",
"202 700 OFFCURVE",
"189 700 CURVE",
"168 700 LINE",
"157 700 OFFCURVE",
"146 691 OFFCURVE",
"144 680 CURVE SMOOTH",
"143 678 OFFCURVE",
"143 673 OFFCURVE",
"143 668 CURVE",
"143 24 LINE",
"144 7 OFFCURVE",
"150 0 OFFCURVE",
"166 0 CURVE"
);
}
);
width = 788;
},
{
guideLines = (
{
position = "{350, 545}";
}
);
hints = (
{
horizontal = 1;
place = "{-2147483648, 0}";
type = Tag;
name = hr00;
}
);
layerId = "EC64484B-0978-4CB1-9EE9-C40A2D8C4059";
paths = (
{
closed = 1;
nodes = (
"256 0 LINE SMOOTH",
"283 0 OFFCURVE",
"298 19 OFFCURVE",
"303 27 CURVE SMOOTH",
"429 232 LINE",
"467 27 LINE SMOOTH",
"468 19 OFFCURVE",
"475 0 OFFCURVE",
"502 0 CURVE SMOOTH",
"645 0 LINE SMOOTH",
"672 0 OFFCURVE",
"693 20 OFFCURVE",
"699 38 CURVE",
"927 675 LINE",
"927 676 OFFCURVE",
"927 677 OFFCURVE",
"927 678 CURVE SMOOTH",
"930 690 OFFCURVE",
"922 700 OFFCURVE",
"910 700 CURVE SMOOTH",
"724 700 LINE SMOOTH",
"701 700 OFFCURVE",
"689 693 OFFCURVE",
"682 673 CURVE SMOOTH",
"589 392 LINE",
"574 516 LINE SMOOTH",
"573 525 OFFCURVE",
"570 545 OFFCURVE",
"546 545 CURVE SMOOTH",
"444 545 LINE SMOOTH",
"420 545 OFFCURVE",
"409 525 OFFCURVE",
"404 516 CURVE SMOOTH",
"336 391 LINE",
"362 673 LINE SMOOTH",
"365 693 OFFCURVE",
"355 700 OFFCURVE",
"332 700 CURVE SMOOTH",
"146 700 LINE SMOOTH",
"134 700 OFFCURVE",
"122 690 OFFCURVE",
"119 678 CURVE SMOOTH",
"119 677 OFFCURVE",
"119 676 OFFCURVE",
"119 675 CURVE",
"75 38 LINE",
"73 20 OFFCURVE",
"86 0 OFFCURVE",
"113 0 CURVE SMOOTH"
);
}
);
width = 856;
}
);
leftKerningGroup = W;
rightKerningGroup = W;
unicode = 0057;
userData = {
com.typemytype.robofont.guides = (
{
angle = 0;
isGlobal = 0;
magnetic = 5;
x = 0;
y = 545;
},
{
angle = 0;
isGlobal = 0;
magnetic = 5;
x = 0;
y = 670;
},
{
angle = 0;
isGlobal = 0;
magnetic = 5;
x = 0;
y = 24;
}
);
};
},
{
glyphname = X;
lastChange = "2016-01-20 15:26:13 +0000";
layers = (
{
guideLines = (
{
position = "{-150, 350}";
},
{
angle = 90;
position = "{-122, 0}";
},
{
angle = 90;
position = "{430, 0}";
}
);
hints = (
{
horizontal = 1;
place = "{517, 0}";
type = Tag;
name = hr00;
}
);
layerId = "581BC726-83A6-4935-8633-5A6508251040";
paths = (
{
closed = 1;
nodes = (
"23 0 LINE",
"32 0 OFFCURVE",
"40 5 OFFCURVE",
"49 15 CURVE",
"320 304 LINE",
"467 15 LINE",
"472 5 OFFCURVE",
"478 0 OFFCURVE",
"487 0 CURVE",
"511 0 LINE",
"522 0 OFFCURVE",
"533 9 OFFCURVE",
"535 20 CURVE SMOOTH",
"537 25 OFFCURVE",
"536 30 OFFCURVE",
"534 33 CURVE",
"370 354 LINE",
"658 667 LINE",
"661 670 OFFCURVE",
"664 675 OFFCURVE",
"665 680 CURVE SMOOTH",
"667 691 OFFCURVE",
"660 700 OFFCURVE",
"649 700 CURVE",
"627 700 LINE",
"618 700 OFFCURVE",
"610 695 OFFCURVE",
"601 685 CURVE",
"344 405 LINE",
"203 685 LINE",
"198 695 OFFCURVE",
"192 700 OFFCURVE",
"183 700 CURVE",
"159 700 LINE",
"148 700 OFFCURVE",
"137 691 OFFCURVE",
"135 680 CURVE SMOOTH",
"134 675 OFFCURVE",
"135 670 OFFCURVE",
"136 667 CURVE",
"294 356 LINE",
"-8 33 LINE",
"-10 30 OFFCURVE",
"-13 25 OFFCURVE",
"-15 20 CURVE SMOOTH",
"-17 9 OFFCURVE",
"-10 0 OFFCURVE",
"1 0 CURVE"
);
}
);
width = 609;
},
{
guideLines = (
{
position = "{350, 359}";
},
{
angle = 90;
position = "{733, 0}";
}
);
hints = (
{
horizontal = 1;
place = "{-2147483648, 0}";
type = Tag;
name = hr00;
}
);
layerId = "EC64484B-0978-4CB1-9EE9-C40A2D8C4059";
paths = (
{
closed = 1;
nodes = (
"191 0 LINE SMOOTH",
"217 0 OFFCURVE",
"233 18 OFFCURVE",
"237 23 CURVE SMOOTH",
"349 157 LINE",
"407 23 LINE SMOOTH",
"409 18 OFFCURVE",
"417 0 OFFCURVE",
"443 0 CURVE SMOOTH",
"668 0 LINE SMOOTH",
"680 0 OFFCURVE",
"692 10 OFFCURVE",
"695 22 CURVE SMOOTH",
"695 24 OFFCURVE",
"696 28 OFFCURVE",
"694 33 CURVE SMOOTH",
"551 361 LINE",
"809 667 LINE SMOOTH",
"813 672 OFFCURVE",
"813 673 OFFCURVE",
"814 678 CURVE SMOOTH",
"817 690 OFFCURVE",
"809 700 OFFCURVE",
"797 700 CURVE SMOOTH",
"590 700 LINE SMOOTH",
"564 700 OFFCURVE",
"548 682 OFFCURVE",
"543 675 CURVE SMOOTH",
"441 553 LINE",
"397 675 LINE SMOOTH",
"394 682 OFFCURVE",
"386 700 OFFCURVE",
"360 700 CURVE SMOOTH",
"143 700 LINE SMOOTH",
"131 700 OFFCURVE",
"119 690 OFFCURVE",
"116 678 CURVE SMOOTH",
"115 673 OFFCURVE",
"116 671 OFFCURVE",
"117 667 CURVE SMOOTH",
"240 358 LINE",
"-39 33 LINE SMOOTH",
"-43 28 OFFCURVE",
"-44 24 OFFCURVE",
"-44 22 CURVE SMOOTH",
"-47 10 OFFCURVE",
"-39 0 OFFCURVE",
"-27 0 CURVE SMOOTH"
);
}
);
width = 739;
}
);
unicode = 0058;
userData = {
com.typemytype.robofont.guides = (
{
angle = 0;
isGlobal = 0;
magnetic = 5;
x = 0;
y = 350;
},
{
angle = 90;
isGlobal = 0;
magnetic = 5;
x = 28;
y = 0;
},
{
angle = 90;
isGlobal = 0;
magnetic = 5;
x = 580;
y = 0;
}
);
};
},
{
glyphname = Y;
lastChange = "2016-01-20 15:26:12 +0000";
layers = (
{
guideLines = (
{
angle = 90;
position = "{160, 0}";
}
);
hints = (
{
horizontal = 1;
place = "{535, 0}";
type = Tag;
name = hr00;
}
);
layerId = "581BC726-83A6-4935-8633-5A6508251040";
paths = (
{
closed = 1;
nodes = (
"276 0 LINE SMOOTH",
"290 0 OFFCURVE",
"301 9 OFFCURVE",
"304 22 CURVE SMOOTH",
"356 267 LINE",
"685 667 LINE SMOOTH",
"688 671 OFFCURVE",
"691 675 OFFCURVE",
"692 680 CURVE SMOOTH",
"694 691 OFFCURVE",
"687 700 OFFCURVE",
"676 700 CURVE SMOOTH",
"656 700 LINE SMOOTH",
"647 700 OFFCURVE",
"638 695 OFFCURVE",
"630 685 CURVE SMOOTH",
"338 332 LINE",
"196 685 LINE SMOOTH",
"192 695 OFFCURVE",
"185 700 OFFCURVE",
"176 700 CURVE SMOOTH",
"156 700 LINE SMOOTH",
"145 700 OFFCURVE",
"134 691 OFFCURVE",
"132 680 CURVE SMOOTH",
"131 675 OFFCURVE",
"132 671 OFFCURVE",
"133 667 CURVE SMOOTH",
"292 267 LINE",
"240 22 LINE SMOOTH",
"237 9 OFFCURVE",
"244 0 OFFCURVE",
"257 0 CURVE SMOOTH"
);
}
);
width = 632;
},
{
hints = (
{
horizontal = 1;
place = "{-2147483648, 0}";
type = Tag;
name = hr00;
}
);
layerId = "EC64484B-0978-4CB1-9EE9-C40A2D8C4059";
paths = (
{
closed = 1;
nodes = (
"404 0 LINE SMOOTH",
"419 0 OFFCURVE",
"434 12 OFFCURVE",
"437 27 CURVE SMOOTH",
"479 224 LINE",
"798 669 LINE SMOOTH",
"800 671 OFFCURVE",
"802 675 OFFCURVE",
"802 678 CURVE SMOOTH",
"805 690 OFFCURVE",
"797 700 OFFCURVE",
"785 700 CURVE SMOOTH",
"597 700 LINE SMOOTH",
"570 700 OFFCURVE",
"554 681 OFFCURVE",
"550 675 CURVE SMOOTH",
"407 474 LINE",
"350 675 LINE SMOOTH",
"348 681 OFFCURVE",
"340 700 OFFCURVE",
"313 700 CURVE SMOOTH",
"125 700 LINE SMOOTH",
"113 700 OFFCURVE",
"101 690 OFFCURVE",
"98 678 CURVE SMOOTH",
"98 675 OFFCURVE",
"98 671 OFFCURVE",
"98 669 CURVE SMOOTH",
"229 224 LINE",
"187 27 LINE SMOOTH",
"184 12 OFFCURVE",
"193 0 OFFCURVE",
"208 0 CURVE SMOOTH"
);
}
);
width = 710;
}
);
leftKerningGroup = Y;
rightKerningGroup = Y;
unicode = 0059;
userData = {
com.typemytype.robofont.guides = (
{
angle = 90;
isGlobal = 0;
magnetic = 5;
x = 310;
y = 0;
}
);
};
},
{
glyphname = Z;
lastChange = "2016-01-20 15:26:12 +0000";
layers = (
{
guideLines = (
{
position = "{-150, 51}";
},
{
position = "{-150, 9}";
},
{
position = "{-150, 691}";
},
{
position = "{-150, 649}";
},
{
angle = 90;
position = "{39, 0}";
},
{
angle = 90;
position = "{665, 0}";
},
{
angle = 90;
position = "{582, 0}";
},
{
angle = 90;
position = "{-581, 0}";
},
{
angle = 90;
position = "{-76, 0}";
},
{
angle = 90;
position = "{391, 0}";
}
);
hints = (
{
horizontal = 1;
place = "{-90, 0}";
type = Tag;
name = hr00;
}
);
layerId = "581BC726-83A6-4935-8633-5A6508251040";
paths = (
{
closed = 1;
nodes = (
"465 0 LINE SMOOTH",
"479 0 OFFCURVE",
"490 9 OFFCURVE",
"493 22 CURVE SMOOTH",
"496 37 LINE SMOOTH",
"499 51 OFFCURVE",
"492 60 OFFCURVE",
"478 60 CURVE SMOOTH",
"86 60 LINE",
"597 621 LINE SMOOTH",
"605 630 OFFCURVE",
"614 640 OFFCURVE",
"618 657 CURVE SMOOTH",
"622 677 LINE SMOOTH",
"625 691 OFFCURVE",
"618 700 OFFCURVE",
"604 700 CURVE SMOOTH",
"173 700 LINE SMOOTH",
"160 700 OFFCURVE",
"149 691 OFFCURVE",
"146 677 CURVE SMOOTH",
"143 662 LINE SMOOTH",
"140 649 OFFCURVE",
"147 640 OFFCURVE",
"160 640 CURVE SMOOTH",
"538 640 LINE",
"25 81 LINE SMOOTH",
"20 75 OFFCURVE",
"7 63 OFFCURVE",
"2 43 CURVE SMOOTH",
"-2 23 LINE SMOOTH",
"-5 9 OFFCURVE",
"2 0 OFFCURVE",
"15 0 CURVE SMOOTH"
);
}
);
width = 579;
},
{
guideLines = (
{
angle = 90;
position = "{395, 0}";
},
{
angle = 90;
position = "{1020, 0}";
}
);
hints = (
{
horizontal = 1;
place = "{-2147483648, 0}";
type = Tag;
name = hr00;
}
);
layerId = "EC64484B-0978-4CB1-9EE9-C40A2D8C4059";
paths = (
{
closed = 1;
nodes = (
"584 0 LINE SMOOTH",
"599 0 OFFCURVE",
"614 12 OFFCURVE",
"617 27 CURVE SMOOTH",
"649 178 LINE SMOOTH",
"652 193 OFFCURVE",
"643 205 OFFCURVE",
"628 205 CURVE SMOOTH",
"364 205 LINE",
"691 498 LINE SMOOTH",
"701 506 OFFCURVE",
"708 517 OFFCURVE",
"711 531 CURVE SMOOTH",
"741 673 LINE SMOOTH",
"744 688 OFFCURVE",
"735 700 OFFCURVE",
"720 700 CURVE SMOOTH",
"172 700 LINE SMOOTH",
"157 700 OFFCURVE",
"142 688 OFFCURVE",
"139 673 CURVE SMOOTH",
"108 524 LINE SMOOTH",
"104 509 OFFCURVE",
"114 497 OFFCURVE",
"129 497 CURVE SMOOTH",
"387 497 LINE",
"45 206 LINE SMOOTH",
"39 201 OFFCURVE",
"27 190 OFFCURVE",
"23 171 CURVE SMOOTH",
"-8 27 LINE SMOOTH",
"-11 12 OFFCURVE",
"-2 0 OFFCURVE",
"13 0 CURVE SMOOTH"
);
}
);
width = 693;
}
);
leftKerningGroup = Z;
rightKerningGroup = Z;
unicode = 005A;
userData = {
com.typemytype.robofont.guides = (
{
angle = 0;
isGlobal = 0;
magnetic = 5;
x = 0;
y = 51;
},
{
angle = 0;
isGlobal = 0;
magnetic = 5;
x = 0;
y = 9;
},
{
angle = 0;
isGlobal = 0;
magnetic = 5;
x = 0;
y = 691;
},
{
angle = 0;
isGlobal = 0;
magnetic = 5;
x = 0;
y = 649;
},
{
angle = 90;
isGlobal = 0;
magnetic = 5;
x = 189;
y = 0;
},
{
angle = 90;
isGlobal = 0;
magnetic = 5;
x = 815;
y = 0;
},
{
angle = 90;
isGlobal = 0;
magnetic = 5;
x = 732;
y = 0;
},
{
angle = 90;
isGlobal = 0;
magnetic = 5;
x = "-431";
y = 0;
},
{
angle = 90;
isGlobal = 0;
magnetic = 5;
x = 74;
y = 0;
},
{
angle = 90;
isGlobal = 0;
magnetic = 5;
x = 541;
y = 0;
}
);
};
},
{
glyphname = a;
lastChange = "2016-01-20 15:26:13 +0000";
layers = (
{
hints = (
{
horizontal = 1;
place = "{-160, 0}";
type = Tag;
name = hr01;
},
{
horizontal = 1;
place = "{-102, 0}";
type = Tag;
name = hr03;
}
);
layerId = "581BC726-83A6-4935-8633-5A6508251040";
paths = (
{
closed = 1;
nodes = (
"273 -10 OFFCURVE",
"332 33 OFFCURVE",
"364 69 CURVE",
"354 22 LINE SMOOTH",
"351 9 OFFCURVE",
"358 0 OFFCURVE",
"371 0 CURVE",
"388 0 LINE SMOOTH",
"401 0 OFFCURVE",
"412 9 OFFCURVE",
"415 22 CURVE SMOOTH",
"486 355 LINE SMOOTH",
"503 435 OFFCURVE",
"484 530 OFFCURVE",
"326 530 CURVE SMOOTH",
"193 530 OFFCURVE",
"122 442 OFFCURVE",
"114 405 CURVE SMOOTH",
"112 393 OFFCURVE",
"120 383 OFFCURVE",
"132 383 CURVE SMOOTH",
"146 383 LINE SMOOTH",
"158 383 OFFCURVE",
"166 388 OFFCURVE",
"174 404 CURVE SMOOTH",
"192 437 OFFCURVE",
"240 472 OFFCURVE",
"314 472 CURVE SMOOTH",
"408 472 OFFCURVE",
"440 429 OFFCURVE",
"425 358 CURVE SMOOTH",
"418 323 LINE",
"255 301 LINE SMOOTH",
"135 285 OFFCURVE",
"42 229 OFFCURVE",
"23 139 CURVE SMOOTH",
"5 55 OFFCURVE",
"74 -10 OFFCURVE",
"170 -10 CURVE SMOOTH"
);
},
{
closed = 1;
nodes = (
"130 48 OFFCURVE",
"71 78 OFFCURVE",
"85 144 CURVE SMOOTH",
"96 198 OFFCURVE",
"161 235 OFFCURVE",
"273 250 CURVE SMOOTH",
"406 268 LINE",
"399 234 LINE SMOOTH",
"372 108 OFFCURVE",
"284 48 OFFCURVE",
"192 48 CURVE SMOOTH"
);
}
);
width = 536;
},
{
guideLines = (
{
position = "{350, 530}";
},
{
position = "{350, 335}";
},
{
position = "{350, 390}";
},
{
position = "{350, -10}";
},
{
position = "{350, 55}";
}
);
hints = (
{
horizontal = 1;
place = "{-2147483648, 0}";
type = Tag;
name = hr01;
},
{
horizontal = 1;
place = "{-2147483648, 0}";
type = Tag;
name = hr02;
}
);
layerId = "EC64484B-0978-4CB1-9EE9-C40A2D8C4059";
paths = (
{
closed = 1;
nodes = (
"222 -10 OFFCURVE",
"278 15 OFFCURVE",
"316 55 CURVE",
"310 27 LINE SMOOTH",
"307 12 OFFCURVE",
"316 0 OFFCURVE",
"331 0 CURVE SMOOTH",
"506 0 LINE SMOOTH",
"521 0 OFFCURVE",
"536 12 OFFCURVE",
"539 27 CURVE SMOOTH",
"600 314 LINE SMOOTH",
"629 451 OFFCURVE",
"559 530 OFFCURVE",
"378 530 CURVE SMOOTH",
"191 530 OFFCURVE",
"97 431 OFFCURVE",
"83 380 CURVE SMOOTH",
"79 367 OFFCURVE",
"87 358 OFFCURVE",
"100 358 CURVE SMOOTH",
"267 358 LINE",
"268 358 OFFCURVE",
"269 358 OFFCURVE",
"270 358 CURVE SMOOTH",
"302 358 OFFCURVE",
"312 390 OFFCURVE",
"346 390 CURVE SMOOTH",
"374 390 OFFCURVE",
"373 375 OFFCURVE",
"365 340 CURVE",
"365 339 LINE",
"256 322 LINE",
"118 299 OFFCURVE",
"20 246 OFFCURVE",
"0 149 CURVE SMOOTH",
"-19 59 OFFCURVE",
"45 -10 OFFCURVE",
"160 -10 CURVE SMOOTH"
);
},
{
closed = 1;
nodes = (
"236 138 OFFCURVE",
"225 151 OFFCURVE",
"228 166 CURVE SMOOTH",
"231 180 OFFCURVE",
"244 195 OFFCURVE",
"280 203 CURVE SMOOTH",
"342 216 LINE",
"342 215 LINE",
"331 162 OFFCURVE",
"300 138 OFFCURVE",
"261 138 CURVE SMOOTH"
);
}
);
width = 622;
}
);
leftKerningGroup = a;
rightKerningGroup = a;
unicode = 0061;
},
{
glyphname = aogonek;
lastChange = "2016-01-20 15:26:13 +0000";
layers = (
{
guideLines = (
{
position = "{-150, 22}";
},
{
position = "{-150, -220}";
},
{
angle = 90;
position = "{322, 0}";
}
);
hints = (
{
horizontal = 1;
place = "{-370, 0}";
type = Tag;
name = hr00;
}
);
layerId = "581BC726-83A6-4935-8633-5A6508251040";
paths = (
{
closed = 1;
nodes = (
"341 -220 LINE SMOOTH",
"354 -220 OFFCURVE",
"365 -211 OFFCURVE",
"368 -198 CURVE SMOOTH",
"371 -185 LINE SMOOTH",
"374 -172 OFFCURVE",
"367 -163 OFFCURVE",
"354 -163 CURVE SMOOTH",
"349 -163 LINE SMOOTH",
"315 -163 OFFCURVE",
"297 -141 OFFCURVE",
"308 -90 CURVE SMOOTH",
"318 -44 OFFCURVE",
"345 -20 OFFCURVE",
"394 0 CURVE",
"396 1 LINE",
"408 7 OFFCURVE",
"413 14 OFFCURVE",
"415 22 CURVE SMOOTH",
"486 355 LINE SMOOTH",
"503 435 OFFCURVE",
"484 530 OFFCURVE",
"326 530 CURVE SMOOTH",
"193 530 OFFCURVE",
"122 442 OFFCURVE",
"114 405 CURVE SMOOTH",
"112 393 OFFCURVE",
"120 383 OFFCURVE",
"132 383 CURVE SMOOTH",
"146 383 LINE SMOOTH",
"158 383 OFFCURVE",
"166 388 OFFCURVE",
"174 404 CURVE SMOOTH",
"192 437 OFFCURVE",
"240 472 OFFCURVE",
"314 472 CURVE SMOOTH",
"408 472 OFFCURVE",
"440 429 OFFCURVE",
"425 358 CURVE SMOOTH",
"418 323 LINE",
"255 301 LINE SMOOTH",
"135 285 OFFCURVE",
"42 229 OFFCURVE",
"23 139 CURVE SMOOTH",
"5 55 OFFCURVE",
"74 -10 OFFCURVE",
"170 -10 CURVE SMOOTH",
"273 -10 OFFCURVE",
"332 33 OFFCURVE",
"364 69 CURVE",
"357 38 LINE",
"357 37 OFFCURVE",
"357 36 OFFCURVE",
"357 35 CURVE",
"317 18 OFFCURVE",
"262 -26 OFFCURVE",
"248 -90 CURVE SMOOTH",
"230 -175 OFFCURVE",
"271 -220 OFFCURVE",
"332 -220 CURVE SMOOTH"
);
},
{
closed = 1;
nodes = (
"130 48 OFFCURVE",
"71 78 OFFCURVE",
"85 144 CURVE SMOOTH",
"96 198 OFFCURVE",
"161 235 OFFCURVE",
"273 250 CURVE SMOOTH",
"406 268 LINE",
"399 234 LINE SMOOTH",
"372 108 OFFCURVE",
"284 48 OFFCURVE",
"192 48 CURVE SMOOTH"
);
}
);
width = 536;
},
{
hints = (
{
horizontal = 1;
place = "{-2147483648, 0}";
type = Tag;
name = hr01;
},
{
horizontal = 1;
place = "{-2147483648, 0}";
type = Tag;
name = hr02;
},
{
horizontal = 1;
place = "{-2147483648, 0}";
type = Tag;
name = hr03;
},
{
horizontal = 1;
place = "{-2147483648, 0}";
type = Tag;
name = hr04;
}
);
layerId = "EC64484B-0978-4CB1-9EE9-C40A2D8C4059";
paths = (
{
closed = 1;
nodes = (
"459 -220 LINE",
"474 -220 OFFCURVE",
"489 -208 OFFCURVE",
"492 -193 CURVE",
"507 -125 LINE",
"510 -110 OFFCURVE",
"500 -98 OFFCURVE",
"485 -98 CURVE",
"475 -98 LINE",
"436 -98 OFFCURVE",
"431 -70 OFFCURVE",
"436 -49 CURVE SMOOTH",
"440 -29 OFFCURVE",
"456 -2 OFFCURVE",
"490 0 CURVE",
"506 0 LINE",
"521 0 OFFCURVE",
"536 12 OFFCURVE",
"539 27 CURVE",
"600 314 LINE",
"629 451 OFFCURVE",
"559 530 OFFCURVE",
"378 530 CURVE SMOOTH",
"191 530 OFFCURVE",
"97 431 OFFCURVE",
"83 380 CURVE SMOOTH",
"79 367 OFFCURVE",
"87 358 OFFCURVE",
"100 358 CURVE",
"267 358 LINE",
"268 358 OFFCURVE",
"269 358 OFFCURVE",
"270 358 CURVE",
"302 358 OFFCURVE",
"312 390 OFFCURVE",
"346 390 CURVE SMOOTH",
"374 390 OFFCURVE",
"373 375 OFFCURVE",
"365 340 CURVE",
"365 339 LINE",
"256 322 LINE",
"118 299 OFFCURVE",
"20 246 OFFCURVE",
"0 149 CURVE SMOOTH",
"-19 59 OFFCURVE",
"45 -10 OFFCURVE",
"160 -10 CURVE SMOOTH",
"222 -10 OFFCURVE",
"278 15 OFFCURVE",
"316 55 CURVE",
"310 27 LINE",
"307 14 OFFCURVE",
"313 3 OFFCURVE",
"324 0 CURVE",
"318 -14 OFFCURVE",
"313 -33 OFFCURVE",
"310 -49 CURVE SMOOTH",
"290 -144 OFFCURVE",
"324 -220 OFFCURVE",
"445 -220 CURVE"
);
},
{
closed = 1;
nodes = (
"236 138 OFFCURVE",
"225 151 OFFCURVE",
"228 166 CURVE SMOOTH",
"231 180 OFFCURVE",
"244 195 OFFCURVE",
"280 203 CURVE",
"342 216 LINE",
"342 215 LINE",
"331 162 OFFCURVE",
"300 138 OFFCURVE",
"261 138 CURVE SMOOTH"
);
}
);
width = 622;
}
);
leftKerningGroup = a;
rightKerningGroup = a;
unicode = 0105;
userData = {
com.typemytype.robofont.guides = (
{
angle = 0;
isGlobal = 0;
magnetic = 5;
x = 0;
y = 22;
},
{
angle = 0;
isGlobal = 0;
magnetic = 5;
x = 0;
y = "-220";
},
{
angle = 90;
isGlobal = 0;
magnetic = 5;
x = 472;
y = 0;
}
);
};
},
{
glyphname = ae;
lastChange = "2016-01-20 15:26:13 +0000";
layers = (
{
guideLines = (
{
position = "{-150, -10}";
},
{
position = "{-150, 530}";
},
{
angle = 90;
position = "{323, 0}";
},
{
angle = 90;
position = "{-529, 0}";
},
{
angle = 90;
position = "{303, 0}";
}
);
hints = (
{
horizontal = 1;
place = "{-19, 0}";
type = Tag;
name = hr01;
},
{
horizontal = 1;
place = "{-102, 0}";
type = Tag;
name = hr02;
}
);
layerId = "581BC726-83A6-4935-8633-5A6508251040";
paths = (
{
closed = 1;
nodes = (
"269 -10 OFFCURVE",
"345 26 OFFCURVE",
"399 100 CURVE",
"417 36 OFFCURVE",
"465 -10 OFFCURVE",
"563 -10 CURVE SMOOTH",
"698 -10 OFFCURVE",
"784 81 OFFCURVE",
"791 111 CURVE SMOOTH",
"793 123 OFFCURVE",
"786 131 OFFCURVE",
"774 131 CURVE",
"762 131 LINE",
"747 131 OFFCURVE",
"743 129 OFFCURVE",
"728 113 CURVE SMOOTH",
"686 67 OFFCURVE",
"627 48 OFFCURVE",
"575 48 CURVE SMOOTH",
"506 48 OFFCURVE",
"436 95 OFFCURVE",
"460 225 CURVE",
"462 235 LINE",
"808 235 LINE",
"821 235 OFFCURVE",
"833 244 OFFCURVE",
"836 257 CURVE",
"839 272 LINE",
"860 373 OFFCURVE",
"865 530 OFFCURVE",
"679 530 CURVE SMOOTH",
"595 530 OFFCURVE",
"531 494 OFFCURVE",
"486 442 CURVE",
"473 491 OFFCURVE",
"428 530 OFFCURVE",
"327 530 CURVE SMOOTH",
"194 530 OFFCURVE",
"122 442 OFFCURVE",
"114 405 CURVE SMOOTH",
"112 393 OFFCURVE",
"120 383 OFFCURVE",
"132 383 CURVE",
"146 383 LINE",
"158 383 OFFCURVE",
"166 388 OFFCURVE",
"174 404 CURVE SMOOTH",
"192 437 OFFCURVE",
"241 472 OFFCURVE",
"315 472 CURVE SMOOTH",
"409 472 OFFCURVE",
"441 429 OFFCURVE",
"426 358 CURVE",
"420 326 LINE",
"257 304 LINE",
"136 288 OFFCURVE",
"43 229 OFFCURVE",
"24 139 CURVE SMOOTH",
"6 55 OFFCURVE",
"65 -10 OFFCURVE",
"171 -10 CURVE SMOOTH"
);
},
{
closed = 1;
nodes = (
"131 48 OFFCURVE",
"72 78 OFFCURVE",
"86 144 CURVE SMOOTH",
"97 198 OFFCURVE",
"162 235 OFFCURVE",
"274 250 CURVE",
"407 268 LINE",
"400 234 LINE",
"373 108 OFFCURVE",
"285 48 OFFCURVE",
"193 48 CURVE SMOOTH"
);
},
{
closed = 1;
nodes = (
"475 295 LINE",
"505 416 OFFCURVE",
"591 472 OFFCURVE",
"667 472 CURVE SMOOTH",
"772 472 OFFCURVE",
"804 396 OFFCURVE",
"783 295 CURVE",
"782 291 LINE",
"474 291 LINE"
);
}
);
width = 881;
},
{
guideLines = (
{
position = "{350, -10}";
},
{
position = "{350, 530}";
},
{
angle = 90;
position = "{838, 0}";
},
{
angle = 90;
position = "{-19, 0}";
}
);
hints = (
{
horizontal = 1;
place = "{-2147483648, 0}";
type = Tag;
name = hr01;
},
{
horizontal = 1;
place = "{-2147483648, 0}";
type = Tag;
name = hr02;
},
{
horizontal = 1;
place = "{-2147483648, 0}";
type = Tag;
name = hr03;
}
);
layerId = "EC64484B-0978-4CB1-9EE9-C40A2D8C4059";
paths = (
{
closed = 1;
nodes = (
"239 -10 OFFCURVE",
"318 -1 OFFCURVE",
"390 51 CURVE",
"430 11 OFFCURVE",
"493 -10 OFFCURVE",
"574 -10 CURVE SMOOTH",
"759 -10 OFFCURVE",
"867 94 OFFCURVE",
"878 145 CURVE SMOOTH",
"881 158 OFFCURVE",
"874 167 OFFCURVE",
"861 167 CURVE SMOOTH",
"672 167 LINE SMOOTH",
"656 167 OFFCURVE",
"650 165 OFFCURVE",
"636 153 CURVE SMOOTH",
"622 142 OFFCURVE",
"615 135 OFFCURVE",
"603 135 CURVE SMOOTH",
"574 135 OFFCURVE",
"568 156 OFFCURVE",
"577 196 CURVE SMOOTH",
"578 201 LINE",
"876 201 LINE SMOOTH",
"891 201 OFFCURVE",
"905 213 OFFCURVE",
"909 228 CURVE SMOOTH",
"915 258 LINE SMOOTH",
"946 405 OFFCURVE",
"884 530 OFFCURVE",
"688 530 CURVE SMOOTH",
"629 530 OFFCURVE",
"575 516 OFFCURVE",
"527 493 CURVE",
"499 517 OFFCURVE",
"452 530 OFFCURVE",
"378 530 CURVE SMOOTH",
"191 530 OFFCURVE",
"94 431 OFFCURVE",
"83 380 CURVE SMOOTH",
"80 367 OFFCURVE",
"87 358 OFFCURVE",
"100 358 CURVE SMOOTH",
"267 358 LINE",
"268 358 OFFCURVE",
"269 358 OFFCURVE",
"270 358 CURVE SMOOTH",
"302 358 OFFCURVE",
"312 390 OFFCURVE",
"346 390 CURVE SMOOTH",
"373 390 OFFCURVE",
"373 376 OFFCURVE",
"366 342 CURVE",
"365 339 LINE",
"256 322 LINE",
"118 299 OFFCURVE",
"20 246 OFFCURVE",
"0 149 CURVE SMOOTH",
"-19 59 OFFCURVE",
"44 -10 OFFCURVE",
"180 -10 CURVE SMOOTH"
);
},
{
closed = 1;
nodes = (
"236 138 OFFCURVE",
"225 151 OFFCURVE",
"228 166 CURVE SMOOTH",
"231 180 OFFCURVE",
"244 195 OFFCURVE",
"280 203 CURVE SMOOTH",
"342 216 LINE",
"342 215 LINE",
"331 162 OFFCURVE",
"300 138 OFFCURVE",
"261 138 CURVE SMOOTH"
);
},
{
closed = 1;
nodes = (
"605 330 LINE SMOOTH",
"614 371 OFFCURVE",
"632 390 OFFCURVE",
"658 390 CURVE SMOOTH",
"683 390 OFFCURVE",
"694 371 OFFCURVE",
"685 330 CURVE SMOOTH",
"685 326 LINE",
"605 326 LINE"
);
}
);
width = 935;
}
);
leftKerningGroup = a;
rightKerningGroup = e;
unicode = 00E6;
userData = {
com.typemytype.robofont.guides = (
{
angle = 0;
isGlobal = 0;
magnetic = 5;
x = 0;
y = "-10";
},
{
angle = 0;
isGlobal = 0;
magnetic = 5;
x = 0;
y = 530;
},
{
angle = 90;
isGlobal = 0;
magnetic = 5;
x = 473;
y = 0;
},
{
angle = 90;
isGlobal = 0;
magnetic = 5;
x = "-379";
y = 0;
},
{
angle = 90;
isGlobal = 0;
magnetic = 5;
x = 453;
y = 0;
}
);
};
},
{
glyphname = b;
lastChange = "2016-01-20 15:26:12 +0000";
layers = (
{
guideLines = (
{
position = "{-150, 530}";
},
{
position = "{-150, -10}";
},
{
position = "{-150, 710}";
},
{
position = "{-150, 288}";
},
{
position = "{-150, 232}";
},
{
position = "{-150, 451}";
},
{
position = "{-150, 69}";
},
{
angle = 90;
position = "{-29, 0}";
},
{
angle = 90;
position = "{-71, 0}";
}
);
hints = (
{
horizontal = 1;
place = "{-160, 0}";
type = Tag;
name = hr01;
}
);
layerId = "581BC726-83A6-4935-8633-5A6508251040";
paths = (
{
closed = 1;
nodes = (
"416 -10 OFFCURVE",
"497 115 OFFCURVE",
"526 232 CURVE SMOOTH",
"531 252 OFFCURVE",
"534 268 OFFCURVE",
"537 288 CURVE SMOOTH",
"558 405 OFFCURVE",
"531 530 OFFCURVE",
"375 530 CURVE SMOOTH",
"292 530 OFFCURVE",
"232 495 OFFCURVE",
"190 451 CURVE",
"240 688 LINE SMOOTH",
"243 701 OFFCURVE",
"236 710 OFFCURVE",
"223 710 CURVE SMOOTH",
"206 710 LINE SMOOTH",
"193 710 OFFCURVE",
"182 701 OFFCURVE",
"179 688 CURVE SMOOTH",
"38 22 LINE SMOOTH",
"35 9 OFFCURVE",
"42 0 OFFCURVE",
"55 0 CURVE SMOOTH",
"72 0 LINE SMOOTH",
"85 0 OFFCURVE",
"96 9 OFFCURVE",
"99 22 CURVE SMOOTH",
"109 69 LINE",
"132 24 OFFCURVE",
"177 -10 OFFCURVE",
"260 -10 CURVE SMOOTH"
);
},
{
closed = 1;
nodes = (
"152 48 OFFCURVE",
"127 142 OFFCURVE",
"142 224 CURVE SMOOTH",
"145 244 OFFCURVE",
"153 282 OFFCURVE",
"158 302 CURVE SMOOTH",
"177 382 OFFCURVE",
"246 472 OFFCURVE",
"357 472 CURVE SMOOTH",
"474 472 OFFCURVE",
"493 384 OFFCURVE",
"476 288 CURVE SMOOTH",
"473 268 OFFCURVE",
"470 252 OFFCURVE",
"465 232 CURVE SMOOTH",
"440 136 OFFCURVE",
"383 48 OFFCURVE",
"266 48 CURVE SMOOTH"
);
}
);
width = 580;
},
{
guideLines = (
{
position = "{350, 525}";
},
{
position = "{350, -10}";
},
{
position = "{350, 740}";
},
{
position = "{350, 710}";
},
{
position = "{350, 50}";
},
{
position = "{350, 650}";
},
{
position = "{350, 470}";
},
{
angle = 90;
position = "{639, 0}";
}
);
hints = (
{
horizontal = 1;
place = "{-2147483648, 0}";
type = Tag;
name = hr01;
},
{
horizontal = 1;
place = "{-2147483648, 0}";
type = Tag;
name = hr02;
}
);
layerId = "EC64484B-0978-4CB1-9EE9-C40A2D8C4059";
paths = (
{
closed = 1;
nodes = (
"482 -10 OFFCURVE",
"585 54 OFFCURVE",
"627 221 CURVE SMOOTH",
"635 251 OFFCURVE",
"639 270 OFFCURVE",
"644 300 CURVE SMOOTH",
"671 457 OFFCURVE",
"597 530 OFFCURVE",
"481 530 CURVE SMOOTH",
"425 530 OFFCURVE",
"376 512 OFFCURVE",
"338 483 CURVE",
"380 683 LINE SMOOTH",
"384 698 OFFCURVE",
"374 710 OFFCURVE",
"359 710 CURVE SMOOTH",
"174 710 LINE SMOOTH",
"159 710 OFFCURVE",
"145 698 OFFCURVE",
"141 683 CURVE SMOOTH",
"2 27 LINE SMOOTH",
"-1 12 OFFCURVE",
"8 0 OFFCURVE",
"23 0 CURVE SMOOTH",
"193 0 LINE SMOOTH",
"208 0 OFFCURVE",
"223 12 OFFCURVE",
"226 27 CURVE SMOOTH",
"231 50 LINE",
"255 14 OFFCURVE",
"297 -10 OFFCURVE",
"366 -10 CURVE SMOOTH"
);
},
{
closed = 1;
nodes = (
"284 169 OFFCURVE",
"278 191 OFFCURVE",
"283 227 CURVE SMOOTH",
"288 257 OFFCURVE",
"291 271 OFFCURVE",
"299 301 CURVE SMOOTH",
"308 333 OFFCURVE",
"326 351 OFFCURVE",
"360 351 CURVE SMOOTH",
"397 351 OFFCURVE",
"401 329 OFFCURVE",
"397 293 CURVE SMOOTH",
"395 273 OFFCURVE",
"390 247 OFFCURVE",
"383 227 CURVE SMOOTH",
"372 191 OFFCURVE",
"358 169 OFFCURVE",
"321 169 CURVE SMOOTH"
);
}
);
width = 661;
}
);
leftKerningGroup = h;
rightKerningGroup = b;
unicode = 0062;
userData = {
com.typemytype.robofont.guides = (
{
angle = 0;
isGlobal = 0;
magnetic = 5;
x = 0;
y = 530;
},
{
angle = 0;
isGlobal = 0;
magnetic = 5;
x = 0;
y = "-10";
},
{
angle = 0;
isGlobal = 0;
magnetic = 5;
x = 0;
y = 710;
},
{
angle = 0;
isGlobal = 0;
magnetic = 5;
x = 0;
y = 288;
},
{
angle = 0;
isGlobal = 0;
magnetic = 5;
x = 0;
y = 232;
},
{
angle = 0;
isGlobal = 0;
magnetic = 5;
x = 0;
y = 451;
},
{
angle = 0;
isGlobal = 0;
magnetic = 5;
x = 0;
y = 69;
},
{
angle = 90;
isGlobal = 0;
magnetic = 5;
x = 121;
y = 0;
},
{
angle = 90;
isGlobal = 0;
magnetic = 5;
x = 79;
y = 0;
}
);
};
},
{
glyphname = c;
lastChange = "2016-01-20 15:26:12 +0000";
layers = (
{
guideLines = (
{
position = "{-150, -10}";
},
{
position = "{-150, 295}";
},
{
position = "{-150, 225}";
},
{
angle = 90;
position = "{295, 0}";
},
{
angle = 90;
position = "{334, 0}";
},
{
angle = 90;
position = "{-13, 0}";
},
{
angle = 90;
position = "{120, 0}";
}
);
hints = (
{
horizontal = 1;
place = "{145, 0}";
type = Tag;
name = hr00;
}
);
layerId = "581BC726-83A6-4935-8633-5A6508251040";
paths = (
{
closed = 1;
nodes = (
"368 -10 OFFCURVE",
"450 77 OFFCURVE",
"468 149 CURVE SMOOTH",
"472 162 OFFCURVE",
"463 171 OFFCURVE",
"451 171 CURVE SMOOTH",
"437 171 LINE SMOOTH",
"423 171 OFFCURVE",
"417 166 OFFCURVE",
"408 150 CURVE SMOOTH",
"364 74 OFFCURVE",
"309 48 OFFCURVE",
"239 48 CURVE SMOOTH",
"148 48 OFFCURVE",
"94 100 OFFCURVE",
"117 225 CURVE SMOOTH",
"120 245 OFFCURVE",
"127 275 OFFCURVE",
"132 295 CURVE SMOOTH",
"162 420 OFFCURVE",
"239 472 OFFCURVE",
"330 472 CURVE SMOOTH",
"400 472 OFFCURVE",
"443 446 OFFCURVE",
"455 370 CURVE SMOOTH",
"457 354 OFFCURVE",
"460 349 OFFCURVE",
"474 349 CURVE SMOOTH",
"488 349 LINE SMOOTH",
"500 349 OFFCURVE",
"513 358 OFFCURVE",
"515 371 CURVE SMOOTH",
"527 443 OFFCURVE",
"483 530 OFFCURVE",
"342 530 CURVE SMOOTH",
"201 530 OFFCURVE",
"106 443 OFFCURVE",
"72 300 CURVE SMOOTH",
"67 280 OFFCURVE",
"58 240 OFFCURVE",
"55 220 CURVE SMOOTH",
"29 77 OFFCURVE",
"86 -10 OFFCURVE",
"227 -10 CURVE SMOOTH"
);
}
);
width = 536;
},
{
guideLines = (
{
position = "{350, -10}";
},
{
position = "{350, 295}";
},
{
position = "{350, 224}";
},
{
angle = 90;
position = "{-300, 0}";
},
{
angle = 90;
position = "{-55, 0}";
}
);
hints = (
{
horizontal = 1;
place = "{-2147483648, 0}";
type = Tag;
name = hr01;
},
{
horizontal = 1;
place = "{-2147483648, 0}";
type = Tag;
name = hr02;
}
);
layerId = "EC64484B-0978-4CB1-9EE9-C40A2D8C4059";
paths = (
{
closed = 1;
nodes = (
"480 -10 OFFCURVE",
"581 141 OFFCURVE",
"593 184 CURVE SMOOTH",
"598 199 OFFCURVE",
"587 211 OFFCURVE",
"572 211 CURVE SMOOTH",
"377 211 LINE SMOOTH",
"362 211 OFFCURVE",
"351 203 OFFCURVE",
"344 191 CURVE SMOOTH",
"332 172 OFFCURVE",
"324 161 OFFCURVE",
"300 161 CURVE SMOOTH",
"269 161 OFFCURVE",
"267 181 OFFCURVE",
"274 224 CURVE SMOOTH",
"277 243 OFFCURVE",
"282 266 OFFCURVE",
"289 295 CURVE SMOOTH",
"298 335 OFFCURVE",
"312 359 OFFCURVE",
"343 359 CURVE SMOOTH",
"363 359 OFFCURVE",
"368 348 OFFCURVE",
"373 329 CURVE SMOOTH",
"377 317 OFFCURVE",
"383 309 OFFCURVE",
"398 309 CURVE SMOOTH",
"593 309 LINE SMOOTH",
"608 309 OFFCURVE",
"623 321 OFFCURVE",
"626 336 CURVE SMOOTH",
"634 389 OFFCURVE",
"585 530 OFFCURVE",
"374 530 CURVE SMOOTH",
"221 530 OFFCURVE",
"83 448 OFFCURVE",
"45 300 CURVE SMOOTH",
"39 277 OFFCURVE",
"31 240 OFFCURVE",
"28 219 CURVE SMOOTH",
"4 71 OFFCURVE",
"106 -10 OFFCURVE",
"259 -10 CURVE SMOOTH"
);
}
);
width = 622;
}
);
leftKerningGroup = o;
rightKerningGroup = c;
unicode = 0063;
userData = {
com.typemytype.robofont.guides = (
{
angle = 0;
isGlobal = 0;
magnetic = 5;
x = 0;
y = "-10";
},
{
angle = 0;
isGlobal = 0;
magnetic = 5;
x = 0;
y = 295;
},
{
angle = 0;
isGlobal = 0;
magnetic = 5;
x = 0;
y = 225;
},
{
angle = 90;
isGlobal = 0;
magnetic = 5;
x = 445;
y = 0;
},
{
angle = 90;
isGlobal = 0;
magnetic = 5;
x = 484;
y = 0;
},
{
angle = 90;
isGlobal = 0;
magnetic = 5;
x = 137;
y = 0;
},
{
angle = 90;
isGlobal = 0;
magnetic = 5;
x = 270;
y = 0;
}
);
};
},
{
glyphname = ccedilla;
lastChange = "2016-01-20 15:26:13 +0000";
layers = (
{
hints = (
{
horizontal = 1;
place = "{145, 0}";
type = Tag;
name = hr00;
}
);
layerId = "581BC726-83A6-4935-8633-5A6508251040";
paths = (
{
closed = 1;
nodes = (
"242 -221 OFFCURVE",
"282 -180 OFFCURVE",
"292 -132 CURVE SMOOTH",
"302 -84 OFFCURVE",
"278 -50 OFFCURVE",
"234 -50 CURVE SMOOTH",
"219 -50 OFFCURVE",
"203 -53 OFFCURVE",
"194 -58 CURVE",
"227 -10 LINE",
"368 -10 OFFCURVE",
"450 77 OFFCURVE",
"468 149 CURVE SMOOTH",
"472 162 OFFCURVE",
"463 171 OFFCURVE",
"451 171 CURVE",
"437 171 LINE",
"423 171 OFFCURVE",
"417 166 OFFCURVE",
"408 150 CURVE SMOOTH",
"364 74 OFFCURVE",
"309 48 OFFCURVE",
"239 48 CURVE SMOOTH",
"148 48 OFFCURVE",
"94 100 OFFCURVE",
"117 225 CURVE SMOOTH",
"120 245 OFFCURVE",
"127 275 OFFCURVE",
"132 295 CURVE SMOOTH",
"162 420 OFFCURVE",
"239 472 OFFCURVE",
"330 472 CURVE SMOOTH",
"400 472 OFFCURVE",
"443 446 OFFCURVE",
"455 370 CURVE SMOOTH",
"457 354 OFFCURVE",
"460 349 OFFCURVE",
"474 349 CURVE",
"488 349 LINE",
"500 349 OFFCURVE",
"513 358 OFFCURVE",
"515 371 CURVE SMOOTH",
"527 443 OFFCURVE",
"483 530 OFFCURVE",
"342 530 CURVE SMOOTH",
"201 530 OFFCURVE",
"106 443 OFFCURVE",
"72 300 CURVE SMOOTH",
"67 280 OFFCURVE",
"58 240 OFFCURVE",
"55 220 CURVE SMOOTH",
"32 96 OFFCURVE",
"72 14 OFFCURVE",
"175 -5 CURVE",
"144 -53 LINE",
"138 -63 OFFCURVE",
"127 -75 OFFCURVE",
"133 -83 CURVE",
"145 -100 LINE",
"157 -116 OFFCURVE",
"174 -96 OFFCURVE",
"206 -96 CURVE SMOOTH",
"229 -96 OFFCURVE",
"246 -110 OFFCURVE",
"241 -134 CURVE SMOOTH",
"235 -159 OFFCURVE",
"212 -174 OFFCURVE",
"189 -174 CURVE SMOOTH",
"145 -174 OFFCURVE",
"145 -140 OFFCURVE",
"125 -156 CURVE",
"108 -169 LINE",
"89 -184 OFFCURVE",
"123 -219 OFFCURVE",
"179 -220 CURVE SMOOTH"
);
}
);
width = 536;
},
{
hints = (
{
horizontal = 1;
place = "{-2147483648, 0}";
type = Tag;
name = hr01;
},
{
horizontal = 1;
place = "{-2147483648, 0}";
type = Tag;
name = hr02;
}
);
layerId = "EC64484B-0978-4CB1-9EE9-C40A2D8C4059";
paths = (
{
closed = 1;
nodes = (
"275 -220 OFFCURVE",
"322 -183 OFFCURVE",
"334 -130 CURVE SMOOTH",
"345 -77 OFFCURVE",
"323 -40 OFFCURVE",
"272 -40 CURVE SMOOTH",
"268 -40 OFFCURVE",
"249 -42 OFFCURVE",
"241 -45 CURVE",
"266 -10 LINE",
"482 -7 OFFCURVE",
"581 141 OFFCURVE",
"593 184 CURVE SMOOTH",
"598 199 OFFCURVE",
"587 211 OFFCURVE",
"572 211 CURVE",
"377 211 LINE",
"362 211 OFFCURVE",
"351 203 OFFCURVE",
"344 191 CURVE SMOOTH",
"332 172 OFFCURVE",
"324 161 OFFCURVE",
"300 161 CURVE SMOOTH",
"269 161 OFFCURVE",
"267 181 OFFCURVE",
"274 224 CURVE SMOOTH",
"277 243 OFFCURVE",
"282 266 OFFCURVE",
"289 295 CURVE SMOOTH",
"298 335 OFFCURVE",
"312 359 OFFCURVE",
"343 359 CURVE SMOOTH",
"363 359 OFFCURVE",
"368 348 OFFCURVE",
"373 329 CURVE SMOOTH",
"377 317 OFFCURVE",
"383 309 OFFCURVE",
"398 309 CURVE",
"593 309 LINE",
"608 309 OFFCURVE",
"623 321 OFFCURVE",
"626 336 CURVE SMOOTH",
"634 389 OFFCURVE",
"585 530 OFFCURVE",
"374 530 CURVE SMOOTH",
"221 530 OFFCURVE",
"83 448 OFFCURVE",
"45 300 CURVE SMOOTH",
"39 277 OFFCURVE",
"31 240 OFFCURVE",
"28 219 CURVE SMOOTH",
"7 89 OFFCURVE",
"83 11 OFFCURVE",
"204 -6 CURVE",
"174 -52 LINE",
"161 -71 OFFCURVE",
"162 -76 OFFCURVE",
"169 -85 CURVE",
"186 -106 LINE",
"196 -119 OFFCURVE",
"222 -106 OFFCURVE",
"240 -106 CURVE SMOOTH",
"260 -106 OFFCURVE",
"265 -118 OFFCURVE",
"263 -130 CURVE SMOOTH",
"260 -142 OFFCURVE",
"248 -154 OFFCURVE",
"229 -154 CURVE SMOOTH",
"195 -154 OFFCURVE",
"194 -136 OFFCURVE",
"174 -151 CURVE",
"149 -169 LINE",
"122 -189 OFFCURVE",
"162 -220 OFFCURVE",
"215 -220 CURVE SMOOTH"
);
}
);
width = 622;
}
);
leftKerningGroup = o;
rightKerningGroup = c;
unicode = 00E7;
},
{
glyphname = d;
lastChange = "2016-01-20 15:26:13 +0000";
layers = (
{
guideLines = (
{
position = "{-150, 650}";
},
{
position = "{-150, 530}";
},
{
angle = 90;
position = "{288, 0}";
},
{
angle = 90;
position = "{349, 0}";
}
);
hints = (
{
horizontal = 1;
place = "{-150, 0}";
type = Tag;
name = hr01;
},
{
horizontal = 1;
place = "{-102, 0}";
type = Tag;
name = hr02;
}
);
layerId = "581BC726-83A6-4935-8633-5A6508251040";
paths = (
{
closed = 1;
nodes = (
"301 -10 OFFCURVE",
"360 24 OFFCURVE",
"403 69 CURVE",
"393 22 LINE SMOOTH",
"390 9 OFFCURVE",
"397 0 OFFCURVE",
"410 0 CURVE SMOOTH",
"427 0 LINE SMOOTH",
"440 0 OFFCURVE",
"451 9 OFFCURVE",
"454 22 CURVE SMOOTH",
"595 688 LINE SMOOTH",
"598 701 OFFCURVE",
"591 710 OFFCURVE",
"578 710 CURVE SMOOTH",
"561 710 LINE SMOOTH",
"548 710 OFFCURVE",
"537 701 OFFCURVE",
"534 688 CURVE SMOOTH",
"484 451 LINE",
"460 495 OFFCURVE",
"416 530 OFFCURVE",
"333 530 CURVE SMOOTH",
"177 530 OFFCURVE",
"96 405 OFFCURVE",
"67 288 CURVE SMOOTH",
"62 268 OFFCURVE",
"59 252 OFFCURVE",
"56 232 CURVE SMOOTH",
"35 115 OFFCURVE",
"62 -10 OFFCURVE",
"218 -10 CURVE SMOOTH"
);
},
{
closed = 1;
nodes = (
"119 48 OFFCURVE",
"100 136 OFFCURVE",
"117 232 CURVE SMOOTH",
"120 252 OFFCURVE",
"123 268 OFFCURVE",
"128 288 CURVE SMOOTH",
"153 384 OFFCURVE",
"210 472 OFFCURVE",
"327 472 CURVE SMOOTH",
"438 472 OFFCURVE",
"467 382 OFFCURVE",
"452 302 CURVE SMOOTH",
"449 282 OFFCURVE",
"441 244 OFFCURVE",
"436 224 CURVE SMOOTH",
"415 142 OFFCURVE",
"350 48 OFFCURVE",
"236 48 CURVE SMOOTH"
);
}
);
width = 580;
},
{
guideLines = (
{
position = "{350, 675}";
},
{
position = "{350, 650}";
},
{
position = "{350, 530}";
},
{
angle = 90;
position = "{598, 0}";
}
);
hints = (
{
horizontal = 1;
place = "{-2147483648, 0}";
type = Tag;
name = hr01;
},
{
horizontal = 1;
place = "{-2147483648, 0}";
type = Tag;
name = hr02;
}
);
layerId = "EC64484B-0978-4CB1-9EE9-C40A2D8C4059";
paths = (
{
closed = 1;
nodes = (
"262 -10 OFFCURVE",
"314 14 OFFCURVE",
"354 50 CURVE",
"349 27 LINE SMOOTH",
"346 12 OFFCURVE",
"355 0 OFFCURVE",
"370 0 CURVE SMOOTH",
"540 0 LINE SMOOTH",
"555 0 OFFCURVE",
"570 12 OFFCURVE",
"573 27 CURVE SMOOTH",
"712 683 LINE SMOOTH",
"716 698 OFFCURVE",
"706 710 OFFCURVE",
"691 710 CURVE SMOOTH",
"506 710 LINE SMOOTH",
"491 710 OFFCURVE",
"477 698 OFFCURVE",
"473 683 CURVE SMOOTH",
"431 483 LINE",
"405 512 OFFCURVE",
"364 530 OFFCURVE",
"308 530 CURVE SMOOTH",
"192 530 OFFCURVE",
"86 457 OFFCURVE",
"47 300 CURVE SMOOTH",
"40 270 OFFCURVE",
"36 251 OFFCURVE",
"30 221 CURVE SMOOTH",
"2 54 OFFCURVE",
"77 -10 OFFCURVE",
"193 -10 CURVE SMOOTH"
);
},
{
closed = 1;
nodes = (
"277 169 OFFCURVE",
"273 191 OFFCURVE",
"276 227 CURVE SMOOTH",
"279 247 OFFCURVE",
"284 273 OFFCURVE",
"290 293 CURVE SMOOTH",
"302 329 OFFCURVE",
"316 351 OFFCURVE",
"353 351 CURVE SMOOTH",
"387 351 OFFCURVE",
"397 333 OFFCURVE",
"392 301 CURVE SMOOTH",
"388 271 OFFCURVE",
"385 257 OFFCURVE",
"376 227 CURVE SMOOTH",
"367 191 OFFCURVE",
"351 169 OFFCURVE",
"314 169 CURVE SMOOTH"
);
}
);
width = 661;
}
);
leftKerningGroup = d;
rightKerningGroup = d;
unicode = 0064;
userData = {
com.typemytype.robofont.guides = (
{
angle = 0;
isGlobal = 0;
magnetic = 5;
x = 0;
y = 650;
},
{
angle = 0;
isGlobal = 0;
magnetic = 5;
x = 0;
y = 530;
},
{
angle = 90;
isGlobal = 0;
magnetic = 5;
x = 438;
y = 0;
},
{
angle = 90;
isGlobal = 0;
magnetic = 5;
x = 499;
y = 0;
}
);
};
},
{
glyphname = eth;
lastChange = "2016-01-20 15:26:13 +0000";
layers = (
{
guideLines = (
{
position = "{-150, 512}";
},
{
angle = 90;
position = "{64, 0}";
},
{
angle = 90;
position = "{334, 0}";
}
);
hints = (
{
horizontal = 1;
place = "{81, 0}";
type = Tag;
name = hr00;
}
);
layerId = "581BC726-83A6-4935-8633-5A6508251040";
paths = (
{
closed = 1;
nodes = (
"365 -10 OFFCURVE",
"463 92 OFFCURVE",
"492 229 CURVE SMOOTH",
"492 230 OFFCURVE",
"492 231 OFFCURVE",
"493 232 CURVE SMOOTH",
"527 402 OFFCURVE",
"513 501 OFFCURVE",
"471 575 CURVE",
"539 599 LINE",
"556 605 OFFCURVE",
"563 609 OFFCURVE",
"566 624 CURVE",
"570 643 LINE",
"572 655 OFFCURVE",
"566 661 OFFCURVE",
"555 661 CURVE SMOOTH",
"551 661 OFFCURVE",
"546 660 OFFCURVE",
"541 658 CURVE",
"440 622 LINE",
"424 644 OFFCURVE",
"406 665 OFFCURVE",
"385 687 CURVE SMOOTH",
"377 695 OFFCURVE",
"368 700 OFFCURVE",
"352 700 CURVE",
"332 700 LINE",
"320 700 OFFCURVE",
"310 692 OFFCURVE",
"308 680 CURVE SMOOTH",
"307 675 OFFCURVE",
"308 669 OFFCURVE",
"320 658 CURVE SMOOTH",
"340 638 OFFCURVE",
"359 618 OFFCURVE",
"375 599 CURVE",
"307 575 LINE",
"290 569 OFFCURVE",
"283 565 OFFCURVE",
"280 550 CURVE",
"276 531 LINE",
"274 519 OFFCURVE",
"280 513 OFFCURVE",
"291 513 CURVE SMOOTH",
"295 513 OFFCURVE",
"299 514 OFFCURVE",
"305 516 CURVE",
"409 553 LINE",
"429 518 OFFCURVE",
"442 479 OFFCURVE",
"448 431 CURVE",
"419 456 OFFCURVE",
"377 470 OFFCURVE",
"324 470 CURVE SMOOTH",
"180 470 OFFCURVE",
"82 368 OFFCURVE",
"54 231 CURVE",
"24 94 OFFCURVE",
"78 -10 OFFCURVE",
"222 -10 CURVE SMOOTH"
);
},
{
closed = 1;
nodes = (
"131 48 OFFCURVE",
"95 127 OFFCURVE",
"114 226 CURVE SMOOTH",
"114 227 OFFCURVE",
"115 229 OFFCURVE",
"116 232 CURVE SMOOTH",
"137 332 OFFCURVE",
"207 412 OFFCURVE",
"312 412 CURVE SMOOTH",
"417 412 OFFCURVE",
"453 332 OFFCURVE",
"432 232 CURVE SMOOTH",
"431 230 OFFCURVE",
"431 229 OFFCURVE",
"431 228 CURVE SMOOTH",
"408 128 OFFCURVE",
"338 48 OFFCURVE",
"234 48 CURVE SMOOTH"
);
}
);
width = 550;
},
{
hints = (
{
horizontal = 1;
place = "{-2147483648, 0}";
type = Tag;
name = hr01;
}
);
layerId = "EC64484B-0978-4CB1-9EE9-C40A2D8C4059";
paths = (
{
closed = 1;
nodes = (
"438 -10 OFFCURVE",
"563 68 OFFCURVE",
"605 225 CURVE SMOOTH",
"610 245 OFFCURVE",
"615 268 OFFCURVE",
"618 288 CURVE SMOOTH",
"640 424 OFFCURVE",
"623 524 OFFCURVE",
"577 601 CURVE",
"621 617 LINE",
"639 623 OFFCURVE",
"647 632 OFFCURVE",
"650 650 CURVE",
"656 678 LINE",
"659 690 OFFCURVE",
"652 699 OFFCURVE",
"640 699 CURVE SMOOTH",
"638 699 OFFCURVE",
"634 698 OFFCURVE",
"628 696 CURVE",
"531 661 LINE",
"523 670 OFFCURVE",
"512 678 OFFCURVE",
"503 687 CURVE SMOOTH",
"495 694 OFFCURVE",
"480 700 OFFCURVE",
"453 700 CURVE",
"265 700 LINE",
"253 700 OFFCURVE",
"241 690 OFFCURVE",
"238 678 CURVE SMOOTH",
"237 673 OFFCURVE",
"240 665 OFFCURVE",
"247 659 CURVE SMOOTH",
"275 637 OFFCURVE",
"301 613 OFFCURVE",
"322 586 CURVE",
"242 557 LINE",
"224 551 OFFCURVE",
"216 542 OFFCURVE",
"213 524 CURVE",
"207 496 LINE",
"204 484 OFFCURVE",
"211 475 OFFCURVE",
"223 475 CURVE SMOOTH",
"225 475 OFFCURVE",
"229 476 OFFCURVE",
"235 478 CURVE",
"363 524 LINE",
"371 506 OFFCURVE",
"377 488 OFFCURVE",
"381 470 CURVE",
"376 470 OFFCURVE",
"372 470 OFFCURVE",
"367 470 CURVE",
"204 470 OFFCURVE",
"61 392 OFFCURVE",
"26 230 CURVE SMOOTH",
"-8 68 OFFCURVE",
"91 -10 OFFCURVE",
"265 -10 CURVE SMOOTH"
);
},
{
closed = 1;
nodes = (
"262 150 OFFCURVE",
"260 171 OFFCURVE",
"266 204 CURVE SMOOTH",
"269 224 OFFCURVE",
"271 236 OFFCURVE",
"277 256 CURVE SMOOTH",
"285 288 OFFCURVE",
"296 310 OFFCURVE",
"333 310 CURVE SMOOTH",
"370 310 OFFCURVE",
"371 288 OFFCURVE",
"367 256 CURVE SMOOTH",
"363 236 OFFCURVE",
"361 223 OFFCURVE",
"355 203 CURVE SMOOTH",
"348 171 OFFCURVE",
"333 150 OFFCURVE",
"299 150 CURVE SMOOTH"
);
}
);
width = 638;
}
);
unicode = 00F0;
userData = {
com.typemytype.robofont.guides = (
{
angle = 0;
isGlobal = 0;
magnetic = 5;
x = 0;
y = 512;
},
{
angle = 90;
isGlobal = 0;
magnetic = 5;
x = 214;
y = 0;
},
{
angle = 90;
isGlobal = 0;
magnetic = 5;
x = 484;
y = 0;
}
);
};
},
{
glyphname = dcroat;
lastChange = "2016-01-20 15:26:12 +0000";
layers = (
{
guideLines = (
{
position = "{-150, 600}";
}
);
hints = (
{
horizontal = 1;
place = "{-150, 0}";
type = Tag;
name = hr01;
},
{
horizontal = 1;
place = "{-102, 0}";
type = Tag;
name = hr02;
}
);
layerId = "581BC726-83A6-4935-8633-5A6508251040";
paths = (
{
closed = 1;
nodes = (
"302 -10 OFFCURVE",
"361 24 OFFCURVE",
"404 69 CURVE",
"394 22 LINE SMOOTH",
"391 9 OFFCURVE",
"398 0 OFFCURVE",
"411 0 CURVE SMOOTH",
"428 0 LINE SMOOTH",
"441 0 OFFCURVE",
"452 9 OFFCURVE",
"455 22 CURVE SMOOTH",
"572 571 LINE",
"630 571 LINE SMOOTH",
"643 571 OFFCURVE",
"653 580 OFFCURVE",
"656 593 CURVE SMOOTH",
"659 607 LINE SMOOTH",
"662 620 OFFCURVE",
"655 629 OFFCURVE",
"642 629 CURVE SMOOTH",
"584 629 LINE",
"596 688 LINE SMOOTH",
"599 701 OFFCURVE",
"592 710 OFFCURVE",
"579 710 CURVE SMOOTH",
"562 710 LINE SMOOTH",
"549 710 OFFCURVE",
"538 701 OFFCURVE",
"535 688 CURVE SMOOTH",
"523 629 LINE",
"465 629 LINE SMOOTH",
"452 629 OFFCURVE",
"441 620 OFFCURVE",
"438 607 CURVE SMOOTH",
"435 593 LINE SMOOTH",
"432 580 OFFCURVE",
"440 571 OFFCURVE",
"453 571 CURVE SMOOTH",
"511 571 LINE",
"485 451 LINE",
"461 495 OFFCURVE",
"417 530 OFFCURVE",
"334 530 CURVE SMOOTH",
"158 530 OFFCURVE",
"92 385 OFFCURVE",
"68 288 CURVE SMOOTH",
"63 268 OFFCURVE",
"60 252 OFFCURVE",
"57 232 CURVE SMOOTH",
"39 135 OFFCURVE",
"43 -10 OFFCURVE",
"219 -10 CURVE SMOOTH"
);
},
{
closed = 1;
nodes = (
"120 48 OFFCURVE",
"100 136 OFFCURVE",
"118 232 CURVE SMOOTH",
"121 252 OFFCURVE",
"124 268 OFFCURVE",
"129 288 CURVE SMOOTH",
"153 384 OFFCURVE",
"211 472 OFFCURVE",
"328 472 CURVE SMOOTH",
"439 472 OFFCURVE",
"468 382 OFFCURVE",
"453 302 CURVE SMOOTH",
"450 282 OFFCURVE",
"442 244 OFFCURVE",
"437 224 CURVE SMOOTH",
"416 142 OFFCURVE",
"351 48 OFFCURVE",
"237 48 CURVE SMOOTH"
);
}
);
width = 580;
},
{
guideLines = (
{
position = "{350, 600}";
}
);
hints = (
{
horizontal = 1;
place = "{-2147483648, 0}";
type = Tag;
name = hr01;
},
{
horizontal = 1;
place = "{-2147483648, 0}";
type = Tag;
name = hr02;
}
);
layerId = "EC64484B-0978-4CB1-9EE9-C40A2D8C4059";
paths = (
{
closed = 1;
nodes = (
"262 -10 OFFCURVE",
"317 18 OFFCURVE",
"355 57 CURVE",
"349 27 LINE SMOOTH",
"346 12 OFFCURVE",
"355 0 OFFCURVE",
"370 0 CURVE SMOOTH",
"540 0 LINE SMOOTH",
"555 0 OFFCURVE",
"570 12 OFFCURVE",
"573 27 CURVE SMOOTH",
"684 548 LINE",
"714 548 LINE SMOOTH",
"729 548 OFFCURVE",
"743 560 OFFCURVE",
"746 575 CURVE SMOOTH",
"757 626 LINE SMOOTH",
"760 641 OFFCURVE",
"751 653 OFFCURVE",
"736 653 CURVE SMOOTH",
"706 653 LINE",
"712 683 LINE SMOOTH",
"716 698 OFFCURVE",
"706 710 OFFCURVE",
"691 710 CURVE SMOOTH",
"506 710 LINE SMOOTH",
"491 710 OFFCURVE",
"477 698 OFFCURVE",
"473 683 CURVE SMOOTH",
"467 653 LINE",
"437 653 LINE SMOOTH",
"422 653 OFFCURVE",
"407 641 OFFCURVE",
"404 626 CURVE SMOOTH",
"393 575 LINE SMOOTH",
"390 560 OFFCURVE",
"400 548 OFFCURVE",
"415 548 CURVE SMOOTH",
"445 548 LINE",
"431 483 LINE",
"405 512 OFFCURVE",
"364 530 OFFCURVE",
"308 530 CURVE SMOOTH",
"192 530 OFFCURVE",
"86 457 OFFCURVE",
"47 300 CURVE SMOOTH",
"40 270 OFFCURVE",
"36 251 OFFCURVE",
"30 221 CURVE SMOOTH",
"2 54 OFFCURVE",
"77 -10 OFFCURVE",
"193 -10 CURVE SMOOTH"
);
},
{
closed = 1;
nodes = (
"277 169 OFFCURVE",
"273 191 OFFCURVE",
"276 227 CURVE SMOOTH",
"279 247 OFFCURVE",
"284 273 OFFCURVE",
"290 293 CURVE SMOOTH",
"302 329 OFFCURVE",
"316 351 OFFCURVE",
"353 351 CURVE SMOOTH",
"387 351 OFFCURVE",
"397 333 OFFCURVE",
"392 301 CURVE SMOOTH",
"388 271 OFFCURVE",
"385 257 OFFCURVE",
"376 227 CURVE SMOOTH",
"367 191 OFFCURVE",
"351 169 OFFCURVE",
"314 169 CURVE SMOOTH"
);
}
);
width = 662;
}
);
leftKerningGroup = d;
rightKerningGroup = d;
unicode = 0111;
userData = {
com.typemytype.robofont.guides = (
{
angle = 0;
isGlobal = 0;
magnetic = 5;
x = 0;
y = 600;
}
);
};
},
{
glyphname = e;
lastChange = "2016-01-20 15:26:12 +0000";
layers = (
{
guideLines = (
{
position = "{-150, -10}";
},
{
angle = 90;
position = "{125, 0}";
},
{
angle = 90;
position = "{346, 0}";
},
{
angle = 90;
position = "{-89, 0}";
},
{
angle = 90;
position = "{-28, 0}";
},
{
angle = 90;
position = "{280, 0}";
}
);
hints = (
{
horizontal = 1;
place = "{150, 0}";
type = Tag;
name = hr00;
}
);
layerId = "581BC726-83A6-4935-8633-5A6508251040";
paths = (
{
closed = 1;
nodes = (
"349 -10 OFFCURVE",
"445 73 OFFCURVE",
"455 111 CURVE SMOOTH",
"458 123 OFFCURVE",
"450 131 OFFCURVE",
"438 131 CURVE SMOOTH",
"422 131 LINE SMOOTH",
"407 131 OFFCURVE",
"404 130 OFFCURVE",
"388 113 CURVE SMOOTH",
"374 97 OFFCURVE",
"320 48 OFFCURVE",
"235 48 CURVE SMOOTH",
"138 48 OFFCURVE",
"100 134 OFFCURVE",
"115 225 CURVE SMOOTH",
"116 228 OFFCURVE",
"117 235 OFFCURVE",
"117 235 CURVE",
"473 235 LINE SMOOTH",
"486 235 OFFCURVE",
"498 244 OFFCURVE",
"501 257 CURVE SMOOTH",
"504 272 LINE SMOOTH",
"538 432 OFFCURVE",
"477 530 OFFCURVE",
"338 530 CURVE SMOOTH",
"208 530 OFFCURVE",
"109 436 OFFCURVE",
"70 300 CURVE SMOOTH",
"65 280 OFFCURVE",
"56 240 OFFCURVE",
"53 220 CURVE SMOOTH",
"34 83 OFFCURVE",
"94 -10 OFFCURVE",
"223 -10 CURVE SMOOTH"
);
},
{
closed = 1;
nodes = (
"130 295 LINE SMOOTH",
"151 395 OFFCURVE",
"226 472 OFFCURVE",
"326 472 CURVE SMOOTH",
"426 472 OFFCURVE",
"469 395 OFFCURVE",
"448 295 CURVE SMOOTH",
"447 291 LINE",
"129 291 LINE"
);
}
);
width = 546;
},
{
guideLines = (
{
position = "{350, -10}";
},
{
angle = 90;
position = "{955, 0}";
}
);
hints = (
{
horizontal = 1;
place = "{-2147483648, 0}";
type = Tag;
name = hr01;
}
);
layerId = "EC64484B-0978-4CB1-9EE9-C40A2D8C4059";
paths = (
{
closed = 1;
nodes = (
"448 -10 OFFCURVE",
"553 94 OFFCURVE",
"567 145 CURVE SMOOTH",
"571 158 OFFCURVE",
"563 167 OFFCURVE",
"550 167 CURVE SMOOTH",
"361 167 LINE SMOOTH",
"345 167 OFFCURVE",
"339 165 OFFCURVE",
"325 153 CURVE SMOOTH",
"311 142 OFFCURVE",
"304 135 OFFCURVE",
"292 135 CURVE SMOOTH",
"263 135 OFFCURVE",
"257 156 OFFCURVE",
"266 196 CURVE SMOOTH",
"266 198 OFFCURVE",
"267 199 OFFCURVE",
"267 201 CURVE",
"565 201 LINE SMOOTH",
"580 201 OFFCURVE",
"594 213 OFFCURVE",
"598 228 CURVE SMOOTH",
"604 258 LINE SMOOTH",
"635 405 OFFCURVE",
"573 530 OFFCURVE",
"377 530 CURVE SMOOTH",
"206 530 OFFCURVE",
"75 438 OFFCURVE",
"36 266 CURVE SMOOTH",
"35 264 OFFCURVE",
"35 261 OFFCURVE",
"34 259 CURVE SMOOTH",
"-5 72 OFFCURVE",
"88 -10 OFFCURVE",
"263 -10 CURVE SMOOTH"
);
},
{
closed = 1;
nodes = (
"294 327 LINE",
"303 371 OFFCURVE",
"321 390 OFFCURVE",
"347 390 CURVE SMOOTH",
"373 390 OFFCURVE",
"383 371 OFFCURVE",
"374 327 CURVE",
"374 326 LINE",
"294 326 LINE"
);
}
);
width = 623;
}
);
leftKerningGroup = o;
rightKerningGroup = e;
unicode = 0065;
userData = {
com.typemytype.robofont.guides = (
{
angle = 0;
isGlobal = 0;
magnetic = 5;
x = 0;
y = "-10";
},
{
angle = 90;
isGlobal = 0;
magnetic = 5;
x = 275;
y = 0;
},
{
angle = 90;
isGlobal = 0;
magnetic = 5;
x = 496;
y = 0;
},
{
angle = 90;
isGlobal = 0;
magnetic = 5;
x = 61;
y = 0;
},
{
angle = 90;
isGlobal = 0;
magnetic = 5;
x = 122;
y = 0;
},
{
angle = 90;
isGlobal = 0;
magnetic = 5;
x = 430;
y = 0;
}
);
};
},
{
glyphname = eogonek;
lastChange = "2016-01-20 15:26:13 +0000";
layers = (
{
guideLines = (
{
position = "{-150, 259}";
},
{
position = "{-150, -220}";
},
{
angle = 90;
position = "{189, 0}";
}
);
hints = (
{
horizontal = 1;
place = "{150, 0}";
type = Tag;
name = hr00;
}
);
layerId = "581BC726-83A6-4935-8633-5A6508251040";
paths = (
{
closed = 1;
nodes = (
"249 -220 LINE",
"262 -220 OFFCURVE",
"273 -211 OFFCURVE",
"276 -198 CURVE",
"279 -185 LINE",
"282 -172 OFFCURVE",
"275 -163 OFFCURVE",
"262 -163 CURVE",
"247 -163 LINE",
"203 -163 OFFCURVE",
"177 -133 OFFCURVE",
"188 -82 CURVE SMOOTH",
"198 -35 OFFCURVE",
"228 -14 OFFCURVE",
"270 -6 CURVE SMOOTH",
"372 14 OFFCURVE",
"447 77 OFFCURVE",
"456 111 CURVE SMOOTH",
"459 123 OFFCURVE",
"451 131 OFFCURVE",
"439 131 CURVE SMOOTH",
"423 131 LINE SMOOTH",
"408 131 OFFCURVE",
"405 130 OFFCURVE",
"389 113 CURVE SMOOTH",
"375 97 OFFCURVE",
"321 48 OFFCURVE",
"236 48 CURVE SMOOTH",
"139 48 OFFCURVE",
"101 134 OFFCURVE",
"116 225 CURVE SMOOTH",
"118 235 LINE",
"474 235 LINE SMOOTH",
"487 235 OFFCURVE",
"499 244 OFFCURVE",
"502 257 CURVE SMOOTH",
"505 272 LINE SMOOTH",
"539 432 OFFCURVE",
"478 530 OFFCURVE",
"339 530 CURVE SMOOTH",
"209 530 OFFCURVE",
"110 436 OFFCURVE",
"71 300 CURVE SMOOTH",
"66 280 OFFCURVE",
"57 240 OFFCURVE",
"54 220 CURVE SMOOTH",
"38 106 OFFCURVE",
"76 23 OFFCURVE",
"164 -2 CURVE",
"146 -23 OFFCURVE",
"134 -51 OFFCURVE",
"128 -82 CURVE SMOOTH",
"110 -167 OFFCURVE",
"149 -220 OFFCURVE",
"230 -220 CURVE"
);
},
{
closed = 1;
nodes = (
"130 295 LINE SMOOTH",
"151 395 OFFCURVE",
"226 472 OFFCURVE",
"326 472 CURVE SMOOTH",
"426 472 OFFCURVE",
"469 395 OFFCURVE",
"448 295 CURVE SMOOTH",
"447 291 LINE",
"129 291 LINE"
);
}
);
width = 547;
},
{
hints = (
{
horizontal = 1;
place = "{-2147483648, 0}";
type = Tag;
name = hr01;
},
{
horizontal = 1;
place = "{-2147483648, 0}";
type = Tag;
name = hr02;
},
{
horizontal = 1;
place = "{-2147483648, 0}";
type = Tag;
name = hr03;
}
);
layerId = "EC64484B-0978-4CB1-9EE9-C40A2D8C4059";
paths = (
{
closed = 1;
nodes = (
"286 -220 LINE",
"301 -220 OFFCURVE",
"316 -208 OFFCURVE",
"319 -193 CURVE",
"334 -125 LINE",
"337 -110 OFFCURVE",
"327 -98 OFFCURVE",
"312 -98 CURVE",
"302 -98 LINE",
"263 -98 OFFCURVE",
"258 -70 OFFCURVE",
"263 -49 CURVE SMOOTH",
"267 -28 OFFCURVE",
"287 -12 OFFCURVE",
"330 -5 CURVE",
"473 15 OFFCURVE",
"554 100 OFFCURVE",
"567 145 CURVE SMOOTH",
"571 158 OFFCURVE",
"563 167 OFFCURVE",
"550 167 CURVE",
"361 167 LINE",
"345 167 OFFCURVE",
"339 165 OFFCURVE",
"325 153 CURVE SMOOTH",
"311 142 OFFCURVE",
"304 135 OFFCURVE",
"292 135 CURVE SMOOTH",
"263 135 OFFCURVE",
"257 156 OFFCURVE",
"266 196 CURVE",
"267 201 LINE",
"565 201 LINE",
"580 201 OFFCURVE",
"594 213 OFFCURVE",
"598 228 CURVE",
"604 258 LINE",
"635 405 OFFCURVE",
"573 530 OFFCURVE",
"377 530 CURVE SMOOTH",
"206 530 OFFCURVE",
"74 437 OFFCURVE",
"35 264 CURVE SMOOTH",
"35 262 OFFCURVE",
"35 261 OFFCURVE",
"34 259 CURVE SMOOTH",
"4 116 OFFCURVE",
"51 34 OFFCURVE",
"154 3 CURVE",
"146 -13 OFFCURVE",
"141 -30 OFFCURVE",
"137 -49 CURVE SMOOTH",
"117 -144 OFFCURVE",
"151 -220 OFFCURVE",
"272 -220 CURVE SMOOTH"
);
},
{
closed = 1;
nodes = (
"294 327 LINE",
"303 371 OFFCURVE",
"321 390 OFFCURVE",
"347 390 CURVE SMOOTH",
"373 390 OFFCURVE",
"383 371 OFFCURVE",
"374 327 CURVE",
"374 326 LINE",
"294 326 LINE"
);
}
);
width = 623;
}
);
leftKerningGroup = o;
rightKerningGroup = e;
unicode = 0119;
userData = {
com.typemytype.robofont.guides = (
{
angle = 0;
isGlobal = 0;
magnetic = 5;
x = 0;
y = 259;
},
{
angle = 0;
isGlobal = 0;
magnetic = 5;
x = 0;
y = "-220";
},
{
angle = 90;
isGlobal = 0;
magnetic = 5;
x = 339;
y = 0;
}
);
};
},
{
glyphname = f;
lastChange = "2016-01-20 15:26:12 +0000";
layers = (
{
guideLines = (
{
position = "{-150, 345}";
},
{
position = "{-150, 9}";
},
{
position = "{-150, 740}";
},
{
angle = 90;
position = "{147, 0}";
},
{
angle = 90;
position = "{221, 0}";
}
);
hints = (
{
horizontal = 1;
place = "{554, 0}";
type = Tag;
name = hr01;
},
{
horizontal = 1;
place = "{-128, 0}";
type = Tag;
name = hr02;
}
);
layerId = "581BC726-83A6-4935-8633-5A6508251040";
paths = (
{
closed = 1;
nodes = (
"120 0 LINE SMOOTH",
"133 0 OFFCURVE",
"144 9 OFFCURVE",
"147 22 CURVE SMOOTH",
"240 462 LINE",
"372 462 LINE SMOOTH",
"385 462 OFFCURVE",
"396 471 OFFCURVE",
"399 484 CURVE SMOOTH",
"402 498 LINE SMOOTH",
"405 511 OFFCURVE",
"398 520 OFFCURVE",
"385 520 CURVE SMOOTH",
"253 520 LINE",
"264 572 LINE SMOOTH",
"279 643 OFFCURVE",
"306 682 OFFCURVE",
"377 682 CURVE SMOOTH",
"429 682 LINE SMOOTH",
"442 682 OFFCURVE",
"453 691 OFFCURVE",
"456 704 CURVE SMOOTH",
"459 718 LINE SMOOTH",
"462 731 OFFCURVE",
"455 740 OFFCURVE",
"442 740 CURVE SMOOTH",
"390 740 LINE SMOOTH",
"268 740 OFFCURVE",
"223 666 OFFCURVE",
"204 577 CURVE SMOOTH",
"192 520 LINE",
"103 520 LINE SMOOTH",
"90 520 OFFCURVE",
"79 511 OFFCURVE",
"76 498 CURVE SMOOTH",
"73 484 LINE SMOOTH",
"70 471 OFFCURVE",
"77 462 OFFCURVE",
"90 462 CURVE SMOOTH",
"179 462 LINE",
"86 22 LINE SMOOTH",
"83 9 OFFCURVE",
"90 0 OFFCURVE",
"103 0 CURVE SMOOTH"
);
}
);
width = 360;
},
{
guideLines = (
{
position = "{350, 740}";
},
{
position = "{350, 345}";
},
{
position = "{350, 565}";
},
{
position = "{350, 532}";
},
{
angle = 90;
position = "{841, 0}";
},
{
angle = 90;
position = "{733, 0}";
}
);
hints = (
{
horizontal = 1;
place = "{-2147483648, 0}";
type = Tag;
name = hr00;
}
);
layerId = "EC64484B-0978-4CB1-9EE9-C40A2D8C4059";
paths = (
{
closed = 1;
nodes = (
"264 0 LINE SMOOTH",
"279 0 OFFCURVE",
"294 12 OFFCURVE",
"297 27 CURVE SMOOTH",
"365 345 LINE",
"479 345 LINE SMOOTH",
"494 345 OFFCURVE",
"508 357 OFFCURVE",
"511 372 CURVE SMOOTH",
"537 493 LINE SMOOTH",
"540 508 OFFCURVE",
"531 520 OFFCURVE",
"516 520 CURVE SMOOTH",
"402 520 LINE",
"404 532 LINE SMOOTH",
"409 553 OFFCURVE",
"424 565 OFFCURVE",
"454 565 CURVE SMOOTH",
"535 565 LINE SMOOTH",
"550 565 OFFCURVE",
"565 577 OFFCURVE",
"568 592 CURVE SMOOTH",
"594 713 LINE SMOOTH",
"597 728 OFFCURVE",
"588 740 OFFCURVE",
"573 740 CURVE SMOOTH",
"480 740 LINE SMOOTH",
"335 740 OFFCURVE",
"211 701 OFFCURVE",
"176 537 CURVE SMOOTH",
"173 520 LINE",
"104 520 LINE SMOOTH",
"89 520 OFFCURVE",
"74 508 OFFCURVE",
"71 493 CURVE SMOOTH",
"45 372 LINE SMOOTH",
"42 357 OFFCURVE",
"52 345 OFFCURVE",
"67 345 CURVE SMOOTH",
"136 345 LINE",
"68 27 LINE SMOOTH",
"65 12 OFFCURVE",
"74 0 OFFCURVE",
"89 0 CURVE SMOOTH"
);
}
);
width = 492;
}
);
leftKerningGroup = f;
rightKerningGroup = f;
unicode = 0066;
userData = {
com.typemytype.robofont.guides = (
{
angle = 0;
isGlobal = 0;
magnetic = 5;
x = 0;
y = 345;
},
{
angle = 0;
isGlobal = 0;
magnetic = 5;
x = 0;
y = 9;
},
{
angle = 0;
isGlobal = 0;
magnetic = 5;
x = 0;
y = 740;
},
{
angle = 90;
isGlobal = 0;
magnetic = 5;
x = 297;
y = 0;
},
{
angle = 90;
isGlobal = 0;
magnetic = 5;
x = 371;
y = 0;
}
);
};
},
{
glyphname = g;
lastChange = "2016-01-20 15:26:12 +0000";
layers = (
{
guideLines = (
{
position = "{-150, 530}";
},
{
position = "{-150, -220}";
},
{
position = "{-150, 288}";
},
{
position = "{-150, 232}";
},
{
angle = 90;
position = "{-94, 0}";
},
{
angle = 90;
position = "{120, 0}";
}
);
hints = (
{
horizontal = 1;
place = "{380, 0}";
type = Tag;
name = hr01;
}
);
layerId = "581BC726-83A6-4935-8633-5A6508251040";
paths = (
{
closed = 1;
nodes = (
"357 -220 OFFCURVE",
"425 -118 OFFCURVE",
"452 10 CURVE SMOOTH",
"556 497 LINE SMOOTH",
"559 510 OFFCURVE",
"551 520 OFFCURVE",
"538 520 CURVE SMOOTH",
"522 520 LINE SMOOTH",
"509 520 OFFCURVE",
"498 510 OFFCURVE",
"495 497 CURVE SMOOTH",
"485 451 LINE",
"461 495 OFFCURVE",
"416 530 OFFCURVE",
"334 530 CURVE SMOOTH",
"178 530 OFFCURVE",
"96 405 OFFCURVE",
"68 288 CURVE SMOOTH",
"63 268 OFFCURVE",
"60 252 OFFCURVE",
"57 232 CURVE SMOOTH",
"35 115 OFFCURVE",
"63 -10 OFFCURVE",
"219 -10 CURVE SMOOTH",
"301 -10 OFFCURVE",
"361 24 OFFCURVE",
"404 69 CURVE",
"389 0 LINE SMOOTH",
"362 -127 OFFCURVE",
"296 -162 OFFCURVE",
"187 -162 CURVE SMOOTH",
"83 -162 OFFCURVE",
"66 -103 OFFCURVE",
"62 -71 CURVE SMOOTH",
"60 -53 OFFCURVE",
"53 -50 OFFCURVE",
"43 -50 CURVE SMOOTH",
"29 -50 LINE SMOOTH",
"17 -50 OFFCURVE",
"3 -60 OFFCURVE",
"2 -73 CURVE SMOOTH",
"-5 -113 OFFCURVE",
"9 -220 OFFCURVE",
"179 -220 CURVE SMOOTH"
);
},
{
closed = 1;
nodes = (
"120 48 OFFCURVE",
"100 136 OFFCURVE",
"118 232 CURVE SMOOTH",
"121 252 OFFCURVE",
"124 268 OFFCURVE",
"129 288 CURVE SMOOTH",
"153 384 OFFCURVE",
"211 472 OFFCURVE",
"328 472 CURVE SMOOTH",
"442 472 OFFCURVE",
"466 378 OFFCURVE",
"452 296 CURVE",
"449 276 OFFCURVE",
"442 244 OFFCURVE",
"437 224 CURVE",
"415 142 OFFCURVE",
"351 48 OFFCURVE",
"237 48 CURVE SMOOTH"
);
}
);
width = 581;
},
{
guideLines = (
{
position = "{350, 530}";
},
{
position = "{350, -220}";
},
{
position = "{350, 351}";
},
{
angle = 90;
position = "{731, 0}";
}
);
hints = (
{
horizontal = 1;
place = "{-2147483648, 0}";
type = Tag;
name = hr01;
},
{
horizontal = 1;
place = "{-2147483648, 0}";
type = Tag;
name = hr02;
},
{
horizontal = 1;
place = "{-2147483648, 0}";
type = Tag;
name = hr03;
}
);
layerId = "EC64484B-0978-4CB1-9EE9-C40A2D8C4059";
paths = (
{
closed = 1;
nodes = (
"400 -220 OFFCURVE",
"540 -151 OFFCURVE",
"576 17 CURVE",
"676 493 LINE",
"679 508 OFFCURVE",
"670 520 OFFCURVE",
"655 520 CURVE",
"480 520 LINE",
"465 520 OFFCURVE",
"450 508 OFFCURVE",
"447 493 CURVE",
"440 462 LINE",
"417 502 OFFCURVE",
"372 530 OFFCURVE",
"307 530 CURVE SMOOTH",
"181 530 OFFCURVE",
"87 457 OFFCURVE",
"46 300 CURVE",
"41 280 OFFCURVE",
"38 269 OFFCURVE",
"35 249 CURVE",
"9 82 OFFCURVE",
"73 23 OFFCURVE",
"199 23 CURVE SMOOTH",
"257 23 OFFCURVE",
"305 39 OFFCURVE",
"341 66 CURVE",
"327 0 LINE",
"319 -40 OFFCURVE",
"301 -59 OFFCURVE",
"272 -59 CURVE SMOOTH",
"248 -59 OFFCURVE",
"240 -51 OFFCURVE",
"235 -34 CURVE SMOOTH",
"232 -22 OFFCURVE",
"226 -14 OFFCURVE",
"211 -14 CURVE",
"16 -14 LINE",
"1 -14 OFFCURVE",
"-14 -26 OFFCURVE",
"-17 -41 CURVE SMOOTH",
"-23 -84 OFFCURVE",
"16 -220 OFFCURVE",
"242 -220 CURVE SMOOTH"
);
},
{
closed = 1;
nodes = (
"282 197 OFFCURVE",
"277 219 OFFCURVE",
"281 255 CURVE SMOOTH",
"283 265 OFFCURVE",
"286 283 OFFCURVE",
"289 293 CURVE",
"300 329 OFFCURVE",
"315 351 OFFCURVE",
"352 351 CURVE SMOOTH",
"386 351 OFFCURVE",
"395 333 OFFCURVE",
"391 301 CURVE SMOOTH",
"390 291 OFFCURVE",
"383 257 OFFCURVE",
"380 247 CURVE SMOOTH",
"370 215 OFFCURVE",
"353 197 OFFCURVE",
"319 197 CURVE SMOOTH"
);
}
);
width = 666;
}
);
leftKerningGroup = g;
rightKerningGroup = u;
unicode = 0067;
userData = {
com.typemytype.robofont.guides = (
{
angle = 0;
isGlobal = 0;
magnetic = 5;
x = 0;
y = 530;
},
{
angle = 0;
isGlobal = 0;
magnetic = 5;
x = 0;
y = "-220";
},
{
angle = 0;
isGlobal = 0;
magnetic = 5;
x = 0;
y = 288;
},
{
angle = 0;
isGlobal = 0;
magnetic = 5;
x = 0;
y = 232;
},
{
angle = 90;
isGlobal = 0;
magnetic = 5;
x = 56;
y = 0;
},
{
angle = 90;
isGlobal = 0;
magnetic = 5;
x = 270;
y = 0;
}
);
};
},
{
glyphname = h;
lastChange = "2016-01-20 15:26:13 +0000";
layers = (
{
guideLines = (
{
position = "{-150, 9}";
},
{
position = "{-150, 301}";
},
{
position = "{-150, 414}";
},
{
position = "{-150, 710}";
},
{
angle = 90;
position = "{-71, 0}";
},
{
angle = 90;
position = "{141, 0}";
}
);
hints = (
{
horizontal = 1;
place = "{538, 0}";
type = Tag;
name = hr00;
}
);
layerId = "581BC726-83A6-4935-8633-5A6508251040";
paths = (
{
closed = 1;
nodes = (
"72 0 LINE SMOOTH",
"85 0 OFFCURVE",
"96 9 OFFCURVE",
"99 22 CURVE SMOOTH",
"158 301 LINE SMOOTH",
"181 408 OFFCURVE",
"258 472 OFFCURVE",
"353 472 CURVE SMOOTH",
"453 472 OFFCURVE",
"492 407 OFFCURVE",
"469 301 CURVE SMOOTH",
"410 22 LINE SMOOTH",
"407 9 OFFCURVE",
"414 0 OFFCURVE",
"427 0 CURVE SMOOTH",
"444 0 LINE SMOOTH",
"457 0 OFFCURVE",
"468 9 OFFCURVE",
"471 22 CURVE SMOOTH",
"531 306 LINE SMOOTH",
"558 433 OFFCURVE",
"511 530 OFFCURVE",
"375 530 CURVE SMOOTH",
"289 530 OFFCURVE",
"236 498 OFFCURVE",
"190 451 CURVE",
"240 688 LINE SMOOTH",
"243 701 OFFCURVE",
"236 710 OFFCURVE",
"223 710 CURVE SMOOTH",
"206 710 LINE SMOOTH",
"193 710 OFFCURVE",
"182 701 OFFCURVE",
"179 688 CURVE SMOOTH",
"38 22 LINE SMOOTH",
"35 9 OFFCURVE",
"42 0 OFFCURVE",
"55 0 CURVE SMOOTH"
);
}
);
width = 591;
},
{
guideLines = (
{
position = "{350, 296}";
},
{
angle = 90;
position = "{801, 0}";
}
);
hints = (
{
horizontal = 1;
place = "{-2147483648, 0}";
type = Tag;
name = hr00;
}
);
layerId = "EC64484B-0978-4CB1-9EE9-C40A2D8C4059";
paths = (
{
closed = 1;
nodes = (
"218 0 LINE SMOOTH",
"233 0 OFFCURVE",
"248 12 OFFCURVE",
"251 27 CURVE SMOOTH",
"308 296 LINE SMOOTH",
"316 332 OFFCURVE",
"339 351 OFFCURVE",
"371 351 CURVE SMOOTH",
"403 351 OFFCURVE",
"417 332 OFFCURVE",
"409 296 CURVE SMOOTH",
"352 27 LINE SMOOTH",
"349 12 OFFCURVE",
"358 0 OFFCURVE",
"373 0 CURVE SMOOTH",
"569 0 LINE SMOOTH",
"584 0 OFFCURVE",
"599 12 OFFCURVE",
"602 27 CURVE SMOOTH",
"661 303 LINE SMOOTH",
"694 461 OFFCURVE",
"611 530 OFFCURVE",
"510 530 CURVE SMOOTH",
"448 530 OFFCURVE",
"388 506 OFFCURVE",
"345 468 CURVE",
"390 683 LINE SMOOTH",
"394 698 OFFCURVE",
"384 710 OFFCURVE",
"369 710 CURVE SMOOTH",
"174 710 LINE SMOOTH",
"159 710 OFFCURVE",
"145 698 OFFCURVE",
"141 683 CURVE SMOOTH",
"2 27 LINE SMOOTH",
"-1 12 OFFCURVE",
"8 0 OFFCURVE",
"23 0 CURVE SMOOTH"
);
}
);
width = 685;
}
);
leftKerningGroup = h;
rightKerningGroup = n;
unicode = 0068;
userData = {
com.typemytype.robofont.guides = (
{
angle = 0;
isGlobal = 0;
magnetic = 5;
x = 0;
y = 9;
},
{
angle = 0;
isGlobal = 0;
magnetic = 5;
x = 0;
y = 301;
},
{
angle = 0;
isGlobal = 0;
magnetic = 5;
x = 0;
y = 414;
},
{
angle = 0;
isGlobal = 0;
magnetic = 5;
x = 0;
y = 710;
},
{
angle = 90;
isGlobal = 0;
magnetic = 5;
x = 79;
y = 0;
},
{
angle = 90;
isGlobal = 0;
magnetic = 5;
x = 291;
y = 0;
}
);
};
},
{
glyphname = hbar;
lastChange = "2016-01-20 15:26:12 +0000";
layers = (
{
guideLines = (
{
angle = 90;
position = "{39, 0}";
},
{
angle = 90;
position = "{-40, 0}";
}
);
hints = (
{
horizontal = 1;
place = "{538, 0}";
type = Tag;
name = hr00;
}
);
layerId = "581BC726-83A6-4935-8633-5A6508251040";
paths = (
{
closed = 1;
nodes = (
"71 0 LINE",
"84 0 OFFCURVE",
"95 9 OFFCURVE",
"98 22 CURVE",
"157 301 LINE",
"180 408 OFFCURVE",
"257 472 OFFCURVE",
"352 472 CURVE SMOOTH",
"452 472 OFFCURVE",
"491 407 OFFCURVE",
"468 301 CURVE",
"409 22 LINE",
"406 9 OFFCURVE",
"413 0 OFFCURVE",
"426 0 CURVE",
"443 0 LINE",
"456 0 OFFCURVE",
"467 9 OFFCURVE",
"470 22 CURVE",
"530 306 LINE",
"557 433 OFFCURVE",
"510 530 OFFCURVE",
"374 530 CURVE SMOOTH",
"288 530 OFFCURVE",
"235 498 OFFCURVE",
"189 451 CURVE",
"215 571 LINE",
"273 571 LINE",
"286 571 OFFCURVE",
"296 580 OFFCURVE",
"299 593 CURVE",
"302 607 LINE",
"305 620 OFFCURVE",
"298 629 OFFCURVE",
"285 629 CURVE",
"227 629 LINE",
"239 688 LINE",
"242 701 OFFCURVE",
"235 710 OFFCURVE",
"222 710 CURVE",
"205 710 LINE",
"192 710 OFFCURVE",
"181 701 OFFCURVE",
"178 688 CURVE",
"166 629 LINE",
"108 629 LINE",
"95 629 OFFCURVE",
"84 620 OFFCURVE",
"81 607 CURVE",
"78 593 LINE",
"75 580 OFFCURVE",
"83 571 OFFCURVE",
"96 571 CURVE",
"154 571 LINE",
"37 22 LINE",
"34 9 OFFCURVE",
"41 0 OFFCURVE",
"54 0 CURVE"
);
}
);
width = 590;
},
{
hints = (
{
horizontal = 1;
place = "{-2147483648, 0}";
type = Tag;
name = hr01;
}
);
layerId = "EC64484B-0978-4CB1-9EE9-C40A2D8C4059";
paths = (
{
closed = 1;
nodes = (
"219 0 LINE SMOOTH",
"234 0 OFFCURVE",
"249 12 OFFCURVE",
"252 27 CURVE SMOOTH",
"309 296 LINE SMOOTH",
"317 332 OFFCURVE",
"340 351 OFFCURVE",
"372 351 CURVE SMOOTH",
"404 351 OFFCURVE",
"418 332 OFFCURVE",
"410 296 CURVE SMOOTH",
"353 28 LINE SMOOTH",
"350 13 OFFCURVE",
"359 1 OFFCURVE",
"374 1 CURVE SMOOTH",
"570 1 LINE SMOOTH",
"585 1 OFFCURVE",
"600 13 OFFCURVE",
"603 28 CURVE SMOOTH",
"662 303 LINE SMOOTH",
"695 461 OFFCURVE",
"612 530 OFFCURVE",
"511 530 CURVE SMOOTH",
"449 530 OFFCURVE",
"389 506 OFFCURVE",
"346 468 CURVE",
"361 538 LINE",
"385 538 LINE SMOOTH",
"400 538 OFFCURVE",
"414 550 OFFCURVE",
"417 565 CURVE SMOOTH",
"428 616 LINE SMOOTH",
"431 631 OFFCURVE",
"422 643 OFFCURVE",
"407 643 CURVE SMOOTH",
"383 643 LINE",
"391 683 LINE SMOOTH",
"395 698 OFFCURVE",
"385 710 OFFCURVE",
"370 710 CURVE SMOOTH",
"175 710 LINE SMOOTH",
"160 710 OFFCURVE",
"146 698 OFFCURVE",
"142 683 CURVE SMOOTH",
"134 643 LINE",
"108 643 LINE SMOOTH",
"93 643 OFFCURVE",
"78 631 OFFCURVE",
"75 616 CURVE SMOOTH",
"64 565 LINE SMOOTH",
"61 550 OFFCURVE",
"71 538 OFFCURVE",
"86 538 CURVE SMOOTH",
"112 538 LINE",
"3 27 LINE SMOOTH",
"0 12 OFFCURVE",
"9 0 OFFCURVE",
"24 0 CURVE SMOOTH"
);
}
);
width = 686;
}
);
leftKerningGroup = h;
rightKerningGroup = n;
unicode = 0127;
userData = {
com.typemytype.robofont.guides = (
{
angle = 90;
isGlobal = 0;
magnetic = 5;
x = 189;
y = 0;
},
{
angle = 90;
isGlobal = 0;
magnetic = 5;
x = 110;
y = 0;
}
);
};
},
{
glyphname = i;
lastChange = "2016-01-20 15:26:13 +0000";
layers = (
{
guideLines = (
{
position = "{-150, 510}";
},
{
position = "{-150, 22}";
},
{
position = "{-150, 627}";
},
{
angle = 90;
position = "{-71, 0}";
},
{
angle = 90;
position = "{-29, 0}";
},
{
angle = 90;
position = "{-80, 0}";
},
{
angle = 90;
position = "{-19, 0}";
}
);
hints = (
{
horizontal = 1;
place = "{537, 0}";
type = Tag;
name = hr00;
}
);
layerId = "581BC726-83A6-4935-8633-5A6508251040";
paths = (
{
closed = 1;
nodes = (
"71 0 LINE SMOOTH",
"84 0 OFFCURVE",
"95 9 OFFCURVE",
"98 22 CURVE SMOOTH",
"199 498 LINE SMOOTH",
"202 511 OFFCURVE",
"195 520 OFFCURVE",
"182 520 CURVE SMOOTH",
"165 520 LINE SMOOTH",
"152 520 OFFCURVE",
"141 511 OFFCURVE",
"138 498 CURVE SMOOTH",
"37 22 LINE SMOOTH",
"34 9 OFFCURVE",
"41 0 OFFCURVE",
"54 0 CURVE SMOOTH"
);
},
{
closed = 1;
nodes = (
"214 627 LINE SMOOTH",
"227 627 OFFCURVE",
"239 636 OFFCURVE",
"242 649 CURVE SMOOTH",
"250 687 LINE SMOOTH",
"253 700 OFFCURVE",
"245 710 OFFCURVE",
"232 710 CURVE SMOOTH",
"194 710 LINE SMOOTH",
"181 710 OFFCURVE",
"170 700 OFFCURVE",
"167 687 CURVE SMOOTH",
"159 649 LINE SMOOTH",
"156 636 OFFCURVE",
"163 627 OFFCURVE",
"176 627 CURVE SMOOTH"
);
}
);
width = 223;
},
{
guideLines = (
{
position = "{350, 740}";
},
{
position = "{350, 575}";
},
{
angle = 90;
position = "{400, 0}";
},
{
angle = 90;
position = "{633, 0}";
},
{
angle = 90;
position = "{516, 0}";
}
);
hints = (
{
horizontal = 1;
place = "{-2147483648, 0}";
type = Tag;
name = hr00;
}
);
layerId = "EC64484B-0978-4CB1-9EE9-C40A2D8C4059";
paths = (
{
closed = 1;
nodes = (
"202 0 LINE SMOOTH",
"217 0 OFFCURVE",
"232 12 OFFCURVE",
"235 27 CURVE SMOOTH",
"334 493 LINE SMOOTH",
"337 508 OFFCURVE",
"328 520 OFFCURVE",
"313 520 CURVE SMOOTH",
"134 520 LINE SMOOTH",
"119 520 OFFCURVE",
"104 508 OFFCURVE",
"101 493 CURVE SMOOTH",
"2 27 LINE SMOOTH",
"-1 12 OFFCURVE",
"8 0 OFFCURVE",
"23 0 CURVE SMOOTH"
);
},
{
closed = 1;
nodes = (
"319 575 LINE SMOOTH",
"334 575 OFFCURVE",
"349 587 OFFCURVE",
"352 602 CURVE SMOOTH",
"378 723 LINE SMOOTH",
"381 738 OFFCURVE",
"372 750 OFFCURVE",
"357 750 CURVE SMOOTH",
"188 750 LINE SMOOTH",
"173 750 OFFCURVE",
"158 738 OFFCURVE",
"155 723 CURVE SMOOTH",
"129 602 LINE SMOOTH",
"126 587 OFFCURVE",
"135 575 OFFCURVE",
"150 575 CURVE SMOOTH"
);
}
);
width = 323;
}
);
leftKerningGroup = i;
rightKerningGroup = i;
unicode = 0069;
userData = {
com.typemytype.robofont.guides = (
{
angle = 0;
isGlobal = 0;
magnetic = 5;
x = 0;
y = 510;
},
{
angle = 0;
isGlobal = 0;
magnetic = 5;
x = 0;
y = 22;
},
{
angle = 0;
isGlobal = 0;
magnetic = 5;
x = 0;
y = 627;
},
{
angle = 90;
isGlobal = 0;
magnetic = 5;
x = 79;
y = 0;
},
{
angle = 90;
isGlobal = 0;
magnetic = 5;
x = 121;
y = 0;
},
{
angle = 90;
isGlobal = 0;
magnetic = 5;
x = 70;
y = 0;
},
{
angle = 90;
isGlobal = 0;
magnetic = 5;
x = 131;
y = 0;
}
);
};
},
{
glyphname = idotless;
lastChange = "2016-01-20 15:26:12 +0000";
layers = (
{
hints = (
{
horizontal = 1;
place = "{348, 0}";
type = Tag;
name = hr00;
}
);
layerId = "581BC726-83A6-4935-8633-5A6508251040";
paths = (
{
closed = 1;
nodes = (
"71 0 LINE SMOOTH",
"84 0 OFFCURVE",
"95 9 OFFCURVE",
"98 22 CURVE SMOOTH",
"199 498 LINE SMOOTH",
"202 511 OFFCURVE",
"195 520 OFFCURVE",
"182 520 CURVE SMOOTH",
"165 520 LINE SMOOTH",
"152 520 OFFCURVE",
"141 511 OFFCURVE",
"138 498 CURVE SMOOTH",
"37 22 LINE SMOOTH",
"34 9 OFFCURVE",
"41 0 OFFCURVE",
"54 0 CURVE SMOOTH"
);
}
);
width = 223;
},
{
hints = (
{
horizontal = 1;
place = "{-2147483648, 0}";
type = Tag;
name = hr00;
}
);
layerId = "EC64484B-0978-4CB1-9EE9-C40A2D8C4059";
paths = (
{
closed = 1;
nodes = (
"202 0 LINE",
"217 0 OFFCURVE",
"232 12 OFFCURVE",
"235 27 CURVE SMOOTH",
"334 493 LINE SMOOTH",
"337 508 OFFCURVE",
"328 520 OFFCURVE",
"313 520 CURVE SMOOTH",
"134 520 LINE SMOOTH",
"119 520 OFFCURVE",
"104 508 OFFCURVE",
"101 493 CURVE SMOOTH",
"2 27 LINE SMOOTH",
"-1 12 OFFCURVE",
"8 0 OFFCURVE",
"23 0 CURVE SMOOTH"
);
}
);
width = 323;
}
);
leftKerningGroup = i;
rightKerningGroup = i;
unicode = 0131;
},
{
glyphname = iogonek;
lastChange = "2016-01-20 15:26:13 +0000";
layers = (
{
guideLines = (
{
position = "{-150, 22}";
},
{
angle = 90;
position = "{-19, 0}";
}
);
hints = (
{
horizontal = 1;
place = "{348, 0}";
type = Tag;
name = hr00;
}
);
layerId = "581BC726-83A6-4935-8633-5A6508251040";
paths = (
{
closed = 1;
nodes = (
"55 -220 LINE",
"68 -220 OFFCURVE",
"79 -211 OFFCURVE",
"82 -198 CURVE",
"85 -185 LINE",
"88 -172 OFFCURVE",
"81 -163 OFFCURVE",
"68 -163 CURVE",
"53 -163 LINE",
"9 -163 OFFCURVE",
"-17 -133 OFFCURVE",
"-6 -82 CURVE SMOOTH",
"5 -31 OFFCURVE",
"43 0 OFFCURVE",
"87 0 CURVE",
"92 0 LINE",
"105 0 OFFCURVE",
"116 9 OFFCURVE",
"119 22 CURVE",
"220 498 LINE",
"223 511 OFFCURVE",
"216 520 OFFCURVE",
"203 520 CURVE",
"186 520 LINE",
"173 520 OFFCURVE",
"162 511 OFFCURVE",
"159 498 CURVE",
"67 64 LINE",
"66 62 OFFCURVE",
"66 60 OFFCURVE",
"66 58 CURVE",
"65 54 LINE",
"-1 42 OFFCURVE",
"-50 -8 OFFCURVE",
"-66 -82 CURVE SMOOTH",
"-84 -167 OFFCURVE",
"-45 -220 OFFCURVE",
"36 -220 CURVE"
);
},
{
closed = 1;
nodes = (
"235 627 LINE",
"248 627 OFFCURVE",
"260 636 OFFCURVE",
"263 649 CURVE",
"271 687 LINE",
"274 700 OFFCURVE",
"266 710 OFFCURVE",
"253 710 CURVE",
"215 710 LINE",
"202 710 OFFCURVE",
"191 700 OFFCURVE",
"188 687 CURVE",
"180 649 LINE",
"177 636 OFFCURVE",
"184 627 OFFCURVE",
"197 627 CURVE"
);
}
);
width = 244;
},
{
hints = (
{
horizontal = 1;
place = "{-2147483648, 0}";
type = Tag;
name = hr01;
},
{
horizontal = 1;
place = "{-2147483648, 0}";
type = Tag;
name = hr02;
}
);
layerId = "EC64484B-0978-4CB1-9EE9-C40A2D8C4059";
paths = (
{
closed = 1;
nodes = (
"161 -192 LINE SMOOTH",
"176 -192 OFFCURVE",
"191 -180 OFFCURVE",
"194 -165 CURVE SMOOTH",
"206 -107 LINE SMOOTH",
"210 -92 OFFCURVE",
"200 -80 OFFCURVE",
"185 -80 CURVE",
"175 -80 LINE SMOOTH",
"136 -80 OFFCURVE",
"129 -61 OFFCURVE",
"134 -40 CURVE SMOOTH",
"138 -19 OFFCURVE",
"153 0 OFFCURVE",
"192 0 CURVE SMOOTH",
"202 0 LINE SMOOTH",
"217 0 OFFCURVE",
"232 12 OFFCURVE",
"235 27 CURVE SMOOTH",
"334 493 LINE SMOOTH",
"337 508 OFFCURVE",
"328 520 OFFCURVE",
"313 520 CURVE SMOOTH",
"134 520 LINE SMOOTH",
"119 520 OFFCURVE",
"104 508 OFFCURVE",
"101 493 CURVE SMOOTH",
"2 27 LINE SMOOTH",
"-1 12 OFFCURVE",
"8 0 OFFCURVE",
"23 0 CURVE SMOOTH",
"30 0 LINE",
"25 -12 OFFCURVE",
"21 -26 OFFCURVE",
"18 -40 CURVE SMOOTH",
"0 -125 OFFCURVE",
"36 -192 OFFCURVE",
"147 -192 CURVE SMOOTH"
);
},
{
closed = 1;
nodes = (
"319 575 LINE SMOOTH",
"334 575 OFFCURVE",
"349 587 OFFCURVE",
"352 602 CURVE SMOOTH",
"378 723 LINE SMOOTH",
"381 738 OFFCURVE",
"372 750 OFFCURVE",
"357 750 CURVE SMOOTH",
"188 750 LINE SMOOTH",
"173 750 OFFCURVE",
"158 738 OFFCURVE",
"155 723 CURVE SMOOTH",
"129 602 LINE SMOOTH",
"126 587 OFFCURVE",
"135 575 OFFCURVE",
"150 575 CURVE SMOOTH"
);
}
);
width = 323;
}
);
leftKerningGroup = i;
rightKerningGroup = i;
unicode = 012F;
userData = {
com.typemytype.robofont.guides = (
{
angle = 0;
isGlobal = 0;
magnetic = 5;
x = 0;
y = 22;
},
{
angle = 90;
isGlobal = 0;
magnetic = 5;
x = 131;
y = 0;
}
);
};
},
{
glyphname = j;
lastChange = "2016-01-20 15:26:12 +0000";
layers = (
{
guideLines = (
{
position = "{-150, 740}";
},
{
position = "{-150, -190}";
},
{
angle = 90;
position = "{-196, 0}";
}
);
hints = (
{
horizontal = 1;
place = "{-172, 0}";
type = Tag;
name = hr00;
}
);
layerId = "581BC726-83A6-4935-8633-5A6508251040";
paths = (
{
closed = 1;
nodes = (
"-89 -190 LINE SMOOTH",
"33 -190 OFFCURVE",
"78 -116 OFFCURVE",
"98 -22 CURVE SMOOTH",
"208 498 LINE SMOOTH",
"211 511 OFFCURVE",
"204 520 OFFCURVE",
"191 520 CURVE SMOOTH",
"174 520 LINE SMOOTH",
"161 520 OFFCURVE",
"150 511 OFFCURVE",
"147 498 CURVE SMOOTH",
"37 -22 LINE SMOOTH",
"24 -83 OFFCURVE",
"4 -132 OFFCURVE",
"-77 -132 CURVE SMOOTH",
"-81 -132 LINE SMOOTH",
"-94 -132 OFFCURVE",
"-105 -141 OFFCURVE",
"-108 -154 CURVE SMOOTH",
"-110 -168 LINE SMOOTH",
"-113 -181 OFFCURVE",
"-106 -190 OFFCURVE",
"-93 -190 CURVE SMOOTH"
);
},
{
closed = 1;
nodes = (
"223 627 LINE SMOOTH",
"236 627 OFFCURVE",
"248 636 OFFCURVE",
"251 649 CURVE SMOOTH",
"259 687 LINE SMOOTH",
"262 700 OFFCURVE",
"254 710 OFFCURVE",
"241 710 CURVE SMOOTH",
"203 710 LINE SMOOTH",
"190 710 OFFCURVE",
"179 700 OFFCURVE",
"176 687 CURVE SMOOTH",
"168 649 LINE SMOOTH",
"165 636 OFFCURVE",
"172 627 OFFCURVE",
"185 627 CURVE SMOOTH"
);
}
);
width = 233;
},
{
guideLines = (
{
position = "{350, 740}";
},
{
position = "{350, 560}";
},
{
position = "{350, -190}";
},
{
position = "{350, 35}";
},
{
angle = 90;
position = "{539, 0}";
},
{
angle = 90;
position = "{418, 0}";
},
{
angle = 90;
position = "{660, 0}";
}
);
hints = (
{
horizontal = 1;
place = "{-2147483648, 0}";
type = Tag;
name = hr00;
}
);
layerId = "EC64484B-0978-4CB1-9EE9-C40A2D8C4059";
paths = (
{
closed = 1;
nodes = (
"-44 -190 LINE SMOOTH",
"101 -190 OFFCURVE",
"225 -121 OFFCURVE",
"257 29 CURVE SMOOTH",
"356 493 LINE SMOOTH",
"359 508 OFFCURVE",
"350 520 OFFCURVE",
"335 520 CURVE SMOOTH",
"147 520 LINE SMOOTH",
"132 520 OFFCURVE",
"117 508 OFFCURVE",
"114 493 CURVE SMOOTH",
"17 35 LINE SMOOTH",
"10 4 OFFCURVE",
"-7 -15 OFFCURVE",
"-37 -15 CURVE SMOOTH",
"-95 -15 LINE SMOOTH",
"-110 -15 OFFCURVE",
"-125 -27 OFFCURVE",
"-128 -42 CURVE SMOOTH",
"-153 -163 LINE SMOOTH",
"-157 -178 OFFCURVE",
"-147 -190 OFFCURVE",
"-132 -190 CURVE SMOOTH"
);
},
{
closed = 1;
nodes = (
"341 575 LINE SMOOTH",
"356 575 OFFCURVE",
"371 587 OFFCURVE",
"374 602 CURVE SMOOTH",
"400 723 LINE SMOOTH",
"403 738 OFFCURVE",
"394 750 OFFCURVE",
"379 750 CURVE SMOOTH",
"201 750 LINE SMOOTH",
"186 750 OFFCURVE",
"171 738 OFFCURVE",
"168 723 CURVE SMOOTH",
"142 602 LINE SMOOTH",
"139 587 OFFCURVE",
"148 575 OFFCURVE",
"163 575 CURVE SMOOTH"
);
}
);
width = 345;
}
);
rightKerningGroup = i;
unicode = 006A;
userData = {
com.typemytype.robofont.guides = (
{
angle = 0;
isGlobal = 0;
magnetic = 5;
x = 0;
y = 740;
},
{
angle = 0;
isGlobal = 0;
magnetic = 5;
x = 0;
y = "-190";
},
{
angle = 90;
isGlobal = 0;
magnetic = 5;
x = "-46";
y = 0;
}
);
};
},
{
glyphname = jdotless;
lastChange = "2016-01-20 15:26:12 +0000";
layers = (
{
guideLines = (
{
position = "{-150, -190}";
},
{
angle = 90;
position = "{-105, 0}";
}
);
hints = (
{
horizontal = 1;
place = "{-304, 0}";
type = Tag;
name = hr01;
},
{
horizontal = 1;
place = "{312, 0}";
type = Tag;
name = hr02;
}
);
layerId = "581BC726-83A6-4935-8633-5A6508251040";
paths = (
{
closed = 1;
nodes = (
"-53 -190 LINE SMOOTH",
"69 -190 OFFCURVE",
"114 -116 OFFCURVE",
"134 -22 CURVE SMOOTH",
"244 498 LINE SMOOTH",
"247 511 OFFCURVE",
"240 520 OFFCURVE",
"227 520 CURVE SMOOTH",
"104 520 LINE SMOOTH",
"91 520 OFFCURVE",
"80 511 OFFCURVE",
"77 498 CURVE SMOOTH",
"74 484 LINE SMOOTH",
"71 471 OFFCURVE",
"78 462 OFFCURVE",
"91 462 CURVE SMOOTH",
"175 462 LINE",
"73 -22 LINE SMOOTH",
"60 -83 OFFCURVE",
"40 -132 OFFCURVE",
"-41 -132 CURVE SMOOTH",
"-45 -132 LINE SMOOTH",
"-58 -132 OFFCURVE",
"-69 -141 OFFCURVE",
"-72 -154 CURVE SMOOTH",
"-74 -168 LINE SMOOTH",
"-77 -181 OFFCURVE",
"-70 -190 OFFCURVE",
"-57 -190 CURVE SMOOTH"
);
}
);
width = 269;
},
{
guideLines = (
{
angle = 90;
position = "{375, 0}";
}
);
hints = (
{
horizontal = 1;
place = "{-2147483648, 0}";
type = Tag;
name = hr00;
}
);
layerId = "EC64484B-0978-4CB1-9EE9-C40A2D8C4059";
paths = (
{
closed = 1;
nodes = (
"93 -190 LINE",
"238 -190 OFFCURVE",
"368 -94 OFFCURVE",
"403 70 CURVE SMOOTH",
"493 493 LINE SMOOTH",
"496 508 OFFCURVE",
"487 520 OFFCURVE",
"472 520 CURVE SMOOTH",
"114 520 LINE SMOOTH",
"99 520 OFFCURVE",
"84 508 OFFCURVE",
"81 493 CURVE SMOOTH",
"54 364 LINE SMOOTH",
"50 349 OFFCURVE",
"60 337 OFFCURVE",
"75 337 CURVE SMOOTH",
"216 337 LINE",
"159 70 LINE SMOOTH",
"153 39 OFFCURVE",
"135 20 OFFCURVE",
"105 20 CURVE SMOOTH",
"4 20 LINE SMOOTH",
"-11 20 OFFCURVE",
"-25 8 OFFCURVE",
"-28 -7 CURVE SMOOTH",
"-61 -163 LINE SMOOTH",
"-65 -178 OFFCURVE",
"-55 -190 OFFCURVE",
"-40 -190 CURVE SMOOTH"
);
}
);
width = 482;
}
);
leftKerningGroup = dotlessj;
rightKerningGroup = i;
unicode = 0237;
userData = {
com.typemytype.robofont.guides = (
{
angle = 0;
isGlobal = 0;
magnetic = 5;
x = 0;
y = "-190";
},
{
angle = 90;
isGlobal = 0;
magnetic = 5;
x = 45;
y = 0;
}
);
};
},
{
glyphname = k;
lastChange = "2016-01-20 15:26:12 +0000";
layers = (
{
guideLines = (
{
position = "{-150, 520}";
},
{
position = "{-150, 710}";
},
{
position = "{-150, 260}";
},
{
angle = 90;
position = "{310, 0}";
},
{
angle = 90;
position = "{280, 0}";
}
);
hints = (
{
horizontal = 1;
place = "{330, 0}";
type = Tag;
name = hr00;
}
);
layerId = "581BC726-83A6-4935-8633-5A6508251040";
paths = (
{
closed = 1;
nodes = (
"72 0 LINE SMOOTH",
"85 0 OFFCURVE",
"96 9 OFFCURVE",
"99 22 CURVE SMOOTH",
"145 240 LINE",
"349 17 LINE SMOOTH",
"363 1 OFFCURVE",
"367 0 OFFCURVE",
"387 0 CURVE SMOOTH",
"403 0 LINE SMOOTH",
"415 0 OFFCURVE",
"425 8 OFFCURVE",
"427 20 CURVE SMOOTH",
"429 25 OFFCURVE",
"426 32 OFFCURVE",
"419 40 CURVE SMOOTH",
"193 288 LINE",
"487 480 LINE SMOOTH",
"499 487 OFFCURVE",
"503 495 OFFCURVE",
"504 500 CURVE SMOOTH",
"507 512 OFFCURVE",
"501 520 OFFCURVE",
"489 520 CURVE SMOOTH",
"470 520 LINE SMOOTH",
"450 520 OFFCURVE",
"446 517 OFFCURVE",
"424 503 CURVE SMOOTH",
"165 334 LINE",
"240 688 LINE SMOOTH",
"243 701 OFFCURVE",
"236 710 OFFCURVE",
"223 710 CURVE SMOOTH",
"206 710 LINE SMOOTH",
"193 710 OFFCURVE",
"182 701 OFFCURVE",
"179 688 CURVE SMOOTH",
"38 22 LINE SMOOTH",
"35 9 OFFCURVE",
"42 0 OFFCURVE",
"55 0 CURVE SMOOTH"
);
}
);
width = 487;
},
{
guideLines = (
{
position = "{350, 286}";
},
{
angle = 90;
position = "{996, 0}";
}
);
hints = (
{
horizontal = 1;
place = "{-2147483648, 0}";
type = Tag;
name = hr00;
}
);
layerId = "EC64484B-0978-4CB1-9EE9-C40A2D8C4059";
paths = (
{
closed = 1;
nodes = (
"198 0 LINE SMOOTH",
"213 0 OFFCURVE",
"228 12 OFFCURVE",
"231 27 CURVE SMOOTH",
"265 187 LINE",
"331 17 LINE SMOOTH",
"332 14 OFFCURVE",
"338 0 OFFCURVE",
"358 0 CURVE SMOOTH",
"568 0 LINE SMOOTH",
"581 0 OFFCURVE",
"595 11 OFFCURVE",
"597 24 CURVE SMOOTH",
"599 30 OFFCURVE",
"597 34 OFFCURVE",
"596 37 CURVE SMOOTH",
"487 286 LINE",
"665 481 LINE SMOOTH",
"668 484 OFFCURVE",
"672 490 OFFCURVE",
"674 496 CURVE SMOOTH",
"676 509 OFFCURVE",
"668 520 OFFCURVE",
"655 520 CURVE SMOOTH",
"453 520 LINE SMOOTH",
"435 520 OFFCURVE",
"424 508 OFFCURVE",
"420 503 CURVE SMOOTH",
"302 359 LINE",
"370 683 LINE SMOOTH",
"374 698 OFFCURVE",
"364 710 OFFCURVE",
"349 710 CURVE SMOOTH",
"174 710 LINE SMOOTH",
"159 710 OFFCURVE",
"145 698 OFFCURVE",
"141 683 CURVE SMOOTH",
"2 27 LINE SMOOTH",
"-1 12 OFFCURVE",
"8 0 OFFCURVE",
"23 0 CURVE SMOOTH"
);
}
);
width = 643;
}
);
leftKerningGroup = h;
rightKerningGroup = k;
unicode = 006B;
userData = {
com.typemytype.robofont.guides = (
{
angle = 0;
isGlobal = 0;
magnetic = 5;
x = 0;
y = 520;
},
{
angle = 0;
isGlobal = 0;
magnetic = 5;
x = 0;
y = 710;
},
{
angle = 0;
isGlobal = 0;
magnetic = 5;
x = 0;
y = 260;
},
{
angle = 90;
isGlobal = 0;
magnetic = 5;
x = 460;
y = 0;
},
{
angle = 90;
isGlobal = 0;
magnetic = 5;
x = 430;
y = 0;
}
);
};
},
{
glyphname = kgreenlandic;
lastChange = "2016-01-20 15:26:13 +0000";
layers = (
{
guideLines = (
{
position = "{-150, 520}";
},
{
position = "{-150, 260}";
}
);
hints = (
{
horizontal = 1;
place = "{330, 0}";
type = Tag;
name = hr00;
}
);
layerId = "581BC726-83A6-4935-8633-5A6508251040";
paths = (
{
closed = 1;
nodes = (
"71 0 LINE SMOOTH",
"84 0 OFFCURVE",
"95 9 OFFCURVE",
"98 22 CURVE SMOOTH",
"138 212 LINE",
"346 17 LINE",
"360 4 OFFCURVE",
"364 0 OFFCURVE",
"384 0 CURVE SMOOTH",
"402 0 LINE SMOOTH",
"414 0 OFFCURVE",
"424 8 OFFCURVE",
"426 20 CURVE SMOOTH",
"428 25 OFFCURVE",
"425 33 OFFCURVE",
"418 40 CURVE SMOOTH",
"184 260 LINE",
"491 480 LINE",
"503 487 OFFCURVE",
"507 495 OFFCURVE",
"508 500 CURVE SMOOTH",
"511 512 OFFCURVE",
"505 520 OFFCURVE",
"493 520 CURVE SMOOTH",
"477 520 LINE SMOOTH",
"457 520 OFFCURVE",
"453 517 OFFCURVE",
"431 503 CURVE",
"159 308 LINE",
"199 498 LINE SMOOTH",
"202 511 OFFCURVE",
"195 520 OFFCURVE",
"182 520 CURVE SMOOTH",
"165 520 LINE SMOOTH",
"152 520 OFFCURVE",
"141 511 OFFCURVE",
"138 498 CURVE SMOOTH",
"37 22 LINE SMOOTH",
"34 9 OFFCURVE",
"41 0 OFFCURVE",
"54 0 CURVE SMOOTH"
);
}
);
width = 488;
},
{
guideLines = (
{
position = "{350, 520}";
}
);
hints = (
{
horizontal = 1;
place = "{-2147483648, 0}";
type = Tag;
name = hr00;
}
);
layerId = "EC64484B-0978-4CB1-9EE9-C40A2D8C4059";
paths = (
{
closed = 1;
nodes = (
"198 0 LINE SMOOTH",
"213 0 OFFCURVE",
"228 12 OFFCURVE",
"231 27 CURVE SMOOTH",
"265 187 LINE",
"331 17 LINE SMOOTH",
"332 14 OFFCURVE",
"338 0 OFFCURVE",
"358 0 CURVE SMOOTH",
"568 0 LINE SMOOTH",
"581 0 OFFCURVE",
"595 11 OFFCURVE",
"597 24 CURVE SMOOTH",
"599 30 OFFCURVE",
"597 34 OFFCURVE",
"596 37 CURVE SMOOTH",
"493 266 LINE",
"665 481 LINE SMOOTH",
"668 484 OFFCURVE",
"672 490 OFFCURVE",
"674 496 CURVE SMOOTH",
"676 509 OFFCURVE",
"668 520 OFFCURVE",
"655 520 CURVE SMOOTH",
"463 520 LINE SMOOTH",
"445 520 OFFCURVE",
"434 508 OFFCURVE",
"430 503 CURVE SMOOTH",
"295 329 LINE",
"330 493 LINE SMOOTH",
"333 508 OFFCURVE",
"324 520 OFFCURVE",
"309 520 CURVE SMOOTH",
"134 520 LINE SMOOTH",
"119 520 OFFCURVE",
"104 508 OFFCURVE",
"101 493 CURVE SMOOTH",
"2 27 LINE SMOOTH",
"-1 12 OFFCURVE",
"8 0 OFFCURVE",
"23 0 CURVE SMOOTH"
);
}
);
width = 643;
}
);
leftKerningGroup = n;
rightKerningGroup = k;
unicode = 0138;
userData = {
com.typemytype.robofont.guides = (
{
angle = 0;
isGlobal = 0;
magnetic = 5;
x = 0;
y = 520;
},
{
angle = 0;
isGlobal = 0;
magnetic = 5;
x = 0;
y = 260;
}
);
};
},
{
glyphname = l;
lastChange = "2016-01-20 15:26:12 +0000";
layers = (
{
guideLines = (
{
position = "{-150, 9}";
},
{
position = "{-150, 710}";
}
);
hints = (
{
horizontal = 1;
place = "{538, 0}";
type = Tag;
name = hr00;
}
);
layerId = "581BC726-83A6-4935-8633-5A6508251040";
paths = (
{
closed = 1;
nodes = (
"72 0 LINE SMOOTH",
"85 0 OFFCURVE",
"96 9 OFFCURVE",
"99 22 CURVE SMOOTH",
"240 688 LINE SMOOTH",
"243 701 OFFCURVE",
"236 710 OFFCURVE",
"223 710 CURVE SMOOTH",
"206 710 LINE SMOOTH",
"193 710 OFFCURVE",
"182 701 OFFCURVE",
"179 688 CURVE SMOOTH",
"38 22 LINE SMOOTH",
"35 9 OFFCURVE",
"42 0 OFFCURVE",
"55 0 CURVE SMOOTH"
);
}
);
width = 225;
},
{
hints = (
{
horizontal = 1;
place = "{-2147483648, 0}";
type = Tag;
name = hr00;
}
);
layerId = "EC64484B-0978-4CB1-9EE9-C40A2D8C4059";
paths = (
{
closed = 1;
nodes = (
"202 0 LINE SMOOTH",
"217 0 OFFCURVE",
"232 12 OFFCURVE",
"235 27 CURVE SMOOTH",
"374 683 LINE SMOOTH",
"378 698 OFFCURVE",
"368 710 OFFCURVE",
"353 710 CURVE SMOOTH",
"174 710 LINE SMOOTH",
"159 710 OFFCURVE",
"145 698 OFFCURVE",
"141 683 CURVE SMOOTH",
"2 27 LINE SMOOTH",
"-1 12 OFFCURVE",
"8 0 OFFCURVE",
"23 0 CURVE SMOOTH"
);
}
);
width = 323;
}
);
leftKerningGroup = l;
rightKerningGroup = l;
unicode = 006C;
userData = {
com.typemytype.robofont.guides = (
{
angle = 0;
isGlobal = 0;
magnetic = 5;
x = 0;
y = 9;
},
{
angle = 0;
isGlobal = 0;
magnetic = 5;
x = 0;
y = 710;
}
);
};
},
